<svg width="1424" height="59" viewBox="0 0 1424 59" fill="none" xmlns="http://www.w3.org/2000/svg">
<g clip-path="url(#clip0_1212_4545)">
<mask id="path-1-inside-1_1212_4545" fill="white">
<path d="M1347.22 0C1364.48 0 1379.32 12.2513 1382.58 29.2012L1382.77 30.2012C1385.23 42.9749 1395.21 63 1408.21 63H1414.88C1424.33 63 1432 70.6651 1432 80.1205V1763C1432 1791.72 1408.72 1815 1380 1815H61C32.2812 1815 9 1791.72 9 1763V115C9 86.2812 32.2812 63 61 63H1043.79C1056.79 63 1066.78 42.9734 1069.23 30.1992L1069.43 29.1992C1072.69 12.2501 1087.52 4.94698e-05 1104.78 0H1347.22Z"/>
</mask>
<path d="M1347.22 0C1364.48 0 1379.32 12.2513 1382.58 29.2012L1382.77 30.2012C1385.23 42.9749 1395.21 63 1408.21 63H1414.88C1424.33 63 1432 70.6651 1432 80.1205V1763C1432 1791.72 1408.72 1815 1380 1815H61C32.2812 1815 9 1791.72 9 1763V115C9 86.2812 32.2812 63 61 63H1043.79C1056.79 63 1066.78 42.9734 1069.23 30.1992L1069.43 29.1992C1072.69 12.2501 1087.52 4.94698e-05 1104.78 0H1347.22Z" fill="white"/>
<path d="M1382.58 29.2012L1380.61 29.5789V29.579L1382.58 29.2012ZM1382.77 30.2012L1384.73 29.8235V29.8233L1382.77 30.2012ZM1069.23 30.1992L1067.27 29.8214V29.8214L1069.23 30.1992ZM1069.43 29.1992L1071.39 29.5771V29.577L1069.43 29.1992ZM1104.78 0V-2V-2V0ZM1347.22 0V2C1363.53 2 1377.53 13.5707 1380.61 29.5789L1382.58 29.2012L1384.54 28.8234C1381.1 10.9319 1365.44 -2 1347.22 -2V0ZM1382.58 29.2012L1380.61 29.579L1380.8 30.579L1382.77 30.2012L1384.73 29.8233L1384.54 28.8233L1382.58 29.2012ZM1408.21 63V65H1414.88V63V61H1408.21V63ZM1432 80.1205H1430V1763H1432H1434V80.1205H1432ZM1380 1815V1813H61V1815V1817H1380V1815ZM9 1763H11V115H9H7V1763H9ZM61 63V65H1043.79V63V61H61V63ZM1069.23 30.1992L1071.2 30.5771L1071.39 29.5771L1069.43 29.1992L1067.46 28.8214L1067.27 29.8214L1069.23 30.1992ZM1069.43 29.1992L1071.39 29.577C1074.47 13.5695 1088.48 2.00005 1104.78 2V0V-2C1086.56 -1.99995 1070.9 10.9307 1067.46 28.8214L1069.43 29.1992ZM1104.78 0V2H1347.22V0V-2H1104.78V0ZM1043.79 63V65C1051.34 65 1057.61 59.2407 1062.13 52.504C1066.71 45.6638 1069.92 37.2101 1071.2 30.577L1069.23 30.1992L1067.27 29.8214C1066.09 35.9626 1063.08 43.9093 1058.81 50.2759C1054.47 56.746 1049.24 61 1043.79 61V63ZM9 115H11C11 87.3858 33.3858 65 61 65V63V61C31.1766 61 7 85.1766 7 115H9ZM61 1815V1813C33.3858 1813 11 1790.61 11 1763H9H7C7 1792.82 31.1767 1817 61 1817V1815ZM1432 1763H1430C1430 1790.61 1407.61 1813 1380 1813V1815V1817C1409.82 1817 1434 1792.82 1434 1763H1432ZM1414.88 63V65C1423.23 65 1430 71.7697 1430 80.1205H1432H1434C1434 69.5605 1425.44 61 1414.88 61V63ZM1382.77 30.2012L1380.8 30.5789C1382.08 37.2117 1385.29 45.665 1389.87 52.5047C1394.39 59.2411 1400.66 65 1408.21 65V63V61C1402.76 61 1397.53 56.7464 1393.2 50.2767C1388.93 43.9105 1385.91 35.9643 1384.73 29.8235L1382.77 30.2012Z" fill="#150A3C" mask="url(#path-1-inside-1_1212_4545)"/>
<path d="M1192.26 27.768C1190.55 27.768 1189.12 28.368 1187.97 29.568C1186.82 30.752 1186.24 32.24 1186.24 34.032C1186.24 35.824 1186.82 37.32 1187.97 38.52C1189.12 39.704 1190.55 40.296 1192.26 40.296C1194.17 40.296 1195.66 39.544 1196.75 38.04H1199.2C1198.54 39.368 1197.62 40.416 1196.42 41.184C1195.23 41.936 1193.85 42.312 1192.26 42.312C1189.94 42.312 1188 41.52 1186.43 39.936C1184.86 38.352 1184.08 36.384 1184.08 34.032C1184.08 31.68 1184.86 29.712 1186.43 28.128C1188 26.544 1189.94 25.752 1192.26 25.752C1193.85 25.752 1195.23 26.136 1196.42 26.904C1197.62 27.656 1198.54 28.696 1199.2 30.024H1196.75C1195.66 28.52 1194.17 27.768 1192.26 27.768ZM1203.59 28.128C1205.16 26.544 1207.1 25.752 1209.42 25.752C1211.74 25.752 1213.68 26.544 1215.25 28.128C1216.82 29.712 1217.6 31.68 1217.6 34.032C1217.6 36.384 1216.82 38.352 1215.25 39.936C1213.68 41.52 1211.74 42.312 1209.42 42.312C1207.1 42.312 1205.16 41.52 1203.59 39.936C1202.02 38.352 1201.24 36.384 1201.24 34.032C1201.24 31.68 1202.02 29.712 1203.59 28.128ZM1213.72 29.568C1212.56 28.368 1211.13 27.768 1209.42 27.768C1207.71 27.768 1206.28 28.368 1205.12 29.568C1203.97 30.752 1203.4 32.24 1203.4 34.032C1203.4 35.824 1203.97 37.32 1205.12 38.52C1206.28 39.704 1207.71 40.296 1209.42 40.296C1211.13 40.296 1212.56 39.704 1213.72 38.52C1214.87 37.32 1215.44 35.824 1215.44 34.032C1215.44 32.24 1214.87 30.752 1213.72 29.568ZM1232.88 26.064H1235.04V42H1232.62L1222.9 29.136V42H1220.74V26.064H1223.16L1232.88 38.928V26.064ZM1237.67 38.04H1240.02C1240.41 38.728 1241 39.28 1241.8 39.696C1242.61 40.096 1243.54 40.296 1244.58 40.296C1245.78 40.296 1246.77 40.048 1247.56 39.552C1248.34 39.04 1248.73 38.4 1248.73 37.632C1248.73 36.88 1248.46 36.304 1247.92 35.904C1247.37 35.504 1246.52 35.24 1245.35 35.112L1242.57 34.824C1241.05 34.68 1239.92 34.224 1239.18 33.456C1238.46 32.688 1238.1 31.712 1238.1 30.528C1238.1 29.104 1238.65 27.952 1239.76 27.072C1240.88 26.192 1242.37 25.752 1244.25 25.752C1246.04 25.752 1247.49 26.176 1248.61 27.024C1249.75 27.872 1250.53 28.872 1250.97 30.024H1248.61C1248.29 29.352 1247.73 28.808 1246.93 28.392C1246.13 27.976 1245.21 27.768 1244.17 27.768C1242.97 27.768 1242.02 28.024 1241.32 28.536C1240.61 29.048 1240.26 29.68 1240.26 30.432C1240.26 31.856 1241.25 32.664 1243.21 32.856L1246.21 33.168C1247.69 33.328 1248.83 33.792 1249.65 34.56C1250.48 35.328 1250.89 36.312 1250.89 37.512C1250.89 38.792 1250.33 39.912 1249.21 40.872C1248.09 41.832 1246.55 42.312 1244.58 42.312C1242.66 42.312 1241.13 41.904 1240 41.088C1238.86 40.256 1238.09 39.24 1237.67 38.04ZM1253.73 35.4V26.064H1255.89V35.4C1255.89 37 1256.31 38.216 1257.14 39.048C1257.97 39.88 1259.14 40.296 1260.64 40.296C1262.15 40.296 1263.32 39.88 1264.15 39.048C1264.98 38.216 1265.4 37 1265.4 35.4V26.064H1267.56V35.4C1267.56 37.592 1266.93 39.296 1265.68 40.512C1264.45 41.712 1262.77 42.312 1260.64 42.312C1258.52 42.312 1256.83 41.712 1255.58 40.512C1254.35 39.296 1253.73 37.592 1253.73 35.4ZM1273.68 26.064V39.984H1282.32V42H1271.52V26.064H1273.68ZM1280.77 26.064H1293.97V28.08H1288.45V42H1286.29V28.08H1280.77V26.064ZM1298.76 26.064V42H1296.6V26.064H1298.76ZM1314.98 26.064H1317.14V42H1314.72L1305 29.136V42H1302.84V26.064H1305.26L1314.98 38.928V26.064ZM1328.44 27.768C1326.72 27.768 1325.29 28.368 1324.14 29.568C1322.99 30.752 1322.41 32.24 1322.41 34.032C1322.41 35.84 1322.98 37.336 1324.12 38.52C1325.27 39.704 1326.72 40.296 1328.46 40.296C1329.87 40.296 1331.04 39.88 1331.99 39.048C1332.95 38.216 1333.57 37.112 1333.86 35.736H1328.12V33.72H1336.16C1336.16 36.264 1335.43 38.336 1333.96 39.936C1332.48 41.52 1330.68 42.312 1328.53 42.312C1326.2 42.312 1324.23 41.52 1322.63 39.936C1321.04 38.352 1320.25 36.384 1320.25 34.032C1320.25 31.68 1321.04 29.712 1322.6 28.128C1324.17 26.544 1326.12 25.752 1328.44 25.752C1329.99 25.752 1331.38 26.144 1332.61 26.928C1333.86 27.696 1334.82 28.728 1335.49 30.024H1333.02C1332.52 29.336 1331.88 28.792 1331.08 28.392C1330.29 27.976 1329.41 27.768 1328.44 27.768Z" fill="#150A3C"/>
<mask id="path-4-inside-2_1212_4545" fill="white">
<path d="M1092.22 0C1109.48 0 1124.32 12.2513 1127.58 29.2012L1127.77 30.2002C1130.23 42.9742 1140.21 63 1153.22 63H1380C1408.72 63 1432 86.2812 1432 115V1763C1432 1791.72 1408.72 1815 1380 1815H44C15.2812 1815 -8 1791.72 -8 1763V115C-8 86.2812 15.2812 63 44 63H788.786C801.794 63 811.776 42.9735 814.233 30.1992L814.426 29.1992C817.686 12.2501 832.517 5.08549e-05 849.777 0H1092.22Z"/>
</mask>
<path d="M1092.22 0C1109.48 0 1124.32 12.2513 1127.58 29.2012L1127.77 30.2002C1130.23 42.9742 1140.21 63 1153.22 63H1380C1408.72 63 1432 86.2812 1432 115V1763C1432 1791.72 1408.72 1815 1380 1815H44C15.2812 1815 -8 1791.72 -8 1763V115C-8 86.2812 15.2812 63 44 63H788.786C801.794 63 811.776 42.9735 814.233 30.1992L814.426 29.1992C817.686 12.2501 832.517 5.08549e-05 849.777 0H1092.22Z" fill="white"/>
<path d="M1127.58 29.2012L1125.61 29.5789L1125.61 29.5794L1127.58 29.2012ZM1127.77 30.2002L1129.73 29.8225L1129.73 29.822L1127.77 30.2002ZM814.233 30.1992L812.269 29.8214V29.8214L814.233 30.1992ZM814.426 29.1992L816.39 29.5771V29.577L814.426 29.1992ZM849.777 0V-2V-2V0ZM1092.22 0V2C1108.53 2 1122.53 13.5707 1125.61 29.5789L1127.58 29.2012L1129.54 28.8234C1126.1 10.9319 1110.44 -2 1092.22 -2V0ZM1127.58 29.2012L1125.61 29.5794L1125.8 30.5784L1127.77 30.2002L1129.73 29.822L1129.54 28.823L1127.58 29.2012ZM1153.22 63V65H1380V63V61H1153.22V63ZM1432 115H1430V1763H1432H1434V115H1432ZM1380 1815V1813H44V1815V1817H1380V1815ZM-8 1763H-6V115H-8H-10V1763H-8ZM44 63V65H788.786V63V61H44V63ZM814.233 30.1992L816.197 30.5771L816.39 29.5771L814.426 29.1992L812.462 28.8214L812.269 29.8214L814.233 30.1992ZM814.426 29.1992L816.39 29.577C819.469 13.5695 833.476 2.00005 849.777 2V0V-2C831.559 -1.99995 815.904 10.9307 812.462 28.8214L814.426 29.1992ZM849.777 0V2H1092.22V0V-2H849.777V0ZM788.786 63V65C796.339 65 802.609 59.2407 807.127 52.504C811.715 45.6638 814.921 37.2101 816.197 30.577L814.233 30.1992L812.269 29.8214C811.088 35.9626 808.075 43.9093 803.805 50.2759C799.466 56.746 794.24 61 788.786 61V63ZM-8 115H-6C-6 87.3858 16.3858 65 44 65V63V61C14.1766 61 -10 85.1766 -10 115H-8ZM44 1815V1813C16.3858 1813 -6 1790.61 -6 1763H-8H-10C-10 1792.82 14.1766 1817 44 1817V1815ZM1432 1763H1430C1430 1790.61 1407.61 1813 1380 1813V1815V1817C1409.82 1817 1434 1792.82 1434 1763H1432ZM1380 63V65C1407.61 65 1430 87.3858 1430 115H1432H1434C1434 85.1766 1409.82 61 1380 61V63ZM1127.77 30.2002L1125.8 30.5779C1127.08 37.2109 1130.29 45.6644 1134.87 52.5044C1139.39 59.2409 1145.66 65 1153.22 65V63V61C1147.76 61 1142.54 56.7462 1138.2 50.2764C1133.93 43.91 1130.91 35.9635 1129.73 29.8225L1127.77 30.2002Z" fill="#150A3C" mask="url(#path-4-inside-2_1212_4545)"/>
<path d="M963.6 38.04H965.952C966.336 38.728 966.928 39.28 967.728 39.696C968.544 40.096 969.472 40.296 970.512 40.296C971.712 40.296 972.704 40.048 973.488 39.552C974.272 39.04 974.664 38.4 974.664 37.632C974.664 36.88 974.392 36.304 973.848 35.904C973.304 35.504 972.448 35.24 971.28 35.112L968.496 34.824C966.976 34.68 965.848 34.224 965.112 33.456C964.392 32.688 964.032 31.712 964.032 30.528C964.032 29.104 964.584 27.952 965.688 27.072C966.808 26.192 968.304 25.752 970.176 25.752C971.968 25.752 973.424 26.176 974.544 27.024C975.68 27.872 976.464 28.872 976.896 30.024H974.544C974.224 29.352 973.664 28.808 972.864 28.392C972.064 27.976 971.144 27.768 970.104 27.768C968.904 27.768 967.952 28.024 967.248 28.536C966.544 29.048 966.192 29.68 966.192 30.432C966.192 31.856 967.176 32.664 969.144 32.856L972.144 33.168C973.616 33.328 974.76 33.792 975.576 34.56C976.408 35.328 976.824 36.312 976.824 37.512C976.824 38.792 976.264 39.912 975.144 40.872C974.024 41.832 972.48 42.312 970.512 42.312C968.592 42.312 967.064 41.904 965.928 41.088C964.792 40.256 964.016 39.24 963.6 38.04ZM978.342 26.064H991.542V28.08H986.022V42H983.862V28.08H978.342V26.064ZM1007.01 30.744C1007.01 32.136 1006.6 33.24 1005.76 34.056C1004.93 34.872 1003.82 35.328 1002.43 35.424L1007.44 42H1004.76L999.741 35.424H996.333V42H994.173V26.064H1001.92C1003.46 26.064 1004.69 26.48 1005.62 27.312C1006.55 28.128 1007.01 29.272 1007.01 30.744ZM1004.04 32.712C1004.58 32.248 1004.85 31.592 1004.85 30.744C1004.85 29.896 1004.58 29.24 1004.04 28.776C1003.51 28.312 1002.8 28.08 1001.92 28.08H996.333V33.408H1001.92C1002.8 33.408 1003.51 33.176 1004.04 32.712ZM1011.89 38.304L1010.28 42H1008.05L1015.05 26.064H1017.41L1024.39 42H1022.09L1020.48 38.304H1011.89ZM1019.61 36.312L1016.18 28.416L1012.75 36.312H1019.61ZM1023.79 26.064H1036.99V28.08H1031.47V42H1029.31V28.08H1023.79V26.064ZM1050.42 28.08H1041.78V33.024H1050.25V35.04H1041.78V39.984H1050.42V42H1039.62V26.064H1050.42V28.08ZM1061.12 27.768C1059.4 27.768 1057.97 28.368 1056.82 29.568C1055.67 30.752 1055.09 32.24 1055.09 34.032C1055.09 35.84 1055.66 37.336 1056.8 38.52C1057.95 39.704 1059.4 40.296 1061.14 40.296C1062.55 40.296 1063.72 39.88 1064.67 39.048C1065.63 38.216 1066.25 37.112 1066.54 35.736H1060.8V33.72H1068.84C1068.84 36.264 1068.11 38.336 1066.64 39.936C1065.16 41.52 1063.36 42.312 1061.21 42.312C1058.88 42.312 1056.91 41.52 1055.31 39.936C1053.72 38.352 1052.93 36.384 1052.93 34.032C1052.93 31.68 1053.72 29.712 1055.28 28.128C1056.85 26.544 1058.8 25.752 1061.12 25.752C1062.67 25.752 1064.06 26.144 1065.29 26.928C1066.54 27.696 1067.5 28.728 1068.17 30.024H1065.7C1065.2 29.336 1064.56 28.792 1063.76 28.392C1062.97 27.976 1062.09 27.768 1061.12 27.768ZM1076.3 34.056L1081.05 26.064H1083.36L1077.36 36.072V42H1075.2V36.072L1069.2 26.064H1071.57L1076.3 34.056Z" fill="#150A3C"/>
<mask id="path-7-inside-3_1212_4545" fill="white">
<path d="M854.224 0C871.484 0 886.316 12.2513 889.576 29.2012L889.769 30.2002C892.225 42.9742 902.207 63 915.215 63H1380C1408.72 63 1432 86.2812 1432 115V1763C1432 1791.72 1408.72 1815 1380 1815H61C32.2812 1815 9 1791.72 9 1763V115C9 86.2812 32.2812 63 61 63H550.786C563.794 63 573.776 42.9735 576.233 30.1992L576.426 29.1992C579.686 12.2501 594.517 5.08549e-05 611.777 0H854.224Z"/>
</mask>
<path d="M854.224 0C871.484 0 886.316 12.2513 889.576 29.2012L889.769 30.2002C892.225 42.9742 902.207 63 915.215 63H1380C1408.72 63 1432 86.2812 1432 115V1763C1432 1791.72 1408.72 1815 1380 1815H61C32.2812 1815 9 1791.72 9 1763V115C9 86.2812 32.2812 63 61 63H550.786C563.794 63 573.776 42.9735 576.233 30.1992L576.426 29.1992C579.686 12.2501 594.517 5.08549e-05 611.777 0H854.224Z" fill="white"/>
<path d="M889.576 29.2012L887.612 29.5789L887.612 29.5794L889.576 29.2012ZM889.769 30.2002L891.733 29.8225L891.732 29.822L889.769 30.2002ZM576.233 30.1992L574.269 29.8214V29.8214L576.233 30.1992ZM576.426 29.1992L578.39 29.5771V29.577L576.426 29.1992ZM611.777 0V-2V-2V0ZM854.224 0V2C870.525 2 884.533 13.5707 887.612 29.5789L889.576 29.2012L891.54 28.8234C888.099 10.9319 872.443 -2 854.224 -2V0ZM889.576 29.2012L887.612 29.5794L887.805 30.5784L889.769 30.2002L891.732 29.822L891.54 28.823L889.576 29.2012ZM915.215 63V65H1380V63V61H915.215V63ZM1432 115H1430V1763H1432H1434V115H1432ZM1380 1815V1813H61V1815V1817H1380V1815ZM9 1763H11V115H9H7V1763H9ZM61 63V65H550.786V63V61H61V63ZM576.233 30.1992L578.197 30.5771L578.39 29.5771L576.426 29.1992L574.462 28.8214L574.269 29.8214L576.233 30.1992ZM576.426 29.1992L578.39 29.577C581.469 13.5695 595.476 2.00005 611.777 2V0V-2C593.559 -1.99995 577.904 10.9307 574.462 28.8214L576.426 29.1992ZM611.777 0V2H854.224V0V-2H611.777V0ZM550.786 63V65C558.339 65 564.609 59.2407 569.127 52.504C573.715 45.6638 576.921 37.2101 578.197 30.577L576.233 30.1992L574.269 29.8214C573.088 35.9626 570.075 43.9093 565.805 50.2759C561.466 56.746 556.24 61 550.786 61V63ZM9 115H11C11 87.3858 33.3858 65 61 65V63V61C31.1766 61 7 85.1766 7 115H9ZM61 1815V1813C33.3858 1813 11 1790.61 11 1763H9H7C7 1792.82 31.1767 1817 61 1817V1815ZM1432 1763H1430C1430 1790.61 1407.61 1813 1380 1813V1815V1817C1409.82 1817 1434 1792.82 1434 1763H1432ZM1380 63V65C1407.61 65 1430 87.3858 1430 115H1432H1434C1434 85.1766 1409.82 61 1380 61V63ZM889.769 30.2002L887.805 30.5779C889.08 37.2109 892.287 45.6644 896.874 52.5044C901.392 59.2409 907.662 65 915.215 65V63V61C909.761 61 904.535 56.7462 900.196 50.2764C895.926 43.91 892.914 35.9635 891.733 29.8225L889.769 30.2002Z" fill="#150A3C" mask="url(#path-7-inside-3_1212_4545)"/>
<path d="M776.84 38.304L775.232 42H773L780.008 26.064H782.36L789.344 42H787.04L785.432 38.304H776.84ZM784.568 36.312L781.136 28.416L777.704 36.312H784.568ZM791.256 35.4V26.064H793.416V35.4C793.416 37 793.832 38.216 794.664 39.048C795.496 39.88 796.664 40.296 798.168 40.296C799.672 40.296 800.84 39.88 801.672 39.048C802.504 38.216 802.92 37 802.92 35.4V26.064H805.08V35.4C805.08 37.592 804.456 39.296 803.208 40.512C801.976 41.712 800.296 42.312 798.168 42.312C796.04 42.312 794.352 41.712 793.104 40.512C791.872 39.296 791.256 37.592 791.256 35.4ZM809.048 26.064H814.4C817.088 26.064 819.216 26.832 820.784 28.368C822.352 29.888 823.136 31.776 823.136 34.032C823.136 36.288 822.352 38.184 820.784 39.72C819.216 41.24 817.088 42 814.4 42H809.048V26.064ZM819.248 38.352C820.4 37.264 820.976 35.824 820.976 34.032C820.976 32.24 820.4 30.8 819.248 29.712C818.096 28.624 816.528 28.08 814.544 28.08H811.208V39.984H814.544C816.528 39.984 818.096 39.44 819.248 38.352ZM828.411 26.064V42H826.251V26.064H828.411ZM831.045 26.064H844.245V28.08H838.725V42H836.565V28.08H831.045V26.064Z" fill="#150A3C"/>
<mask id="path-10-inside-4_1212_4545" fill="white">
<path d="M517.308 0C533.204 0 547.218 10.4255 551.788 25.6504L552.088 26.6504C556.212 40.3894 567.726 63 582.071 63H1421C1449.72 63 1473 86.2812 1473 115V1763C1473 1791.72 1449.72 1815 1421 1815H23C-5.71878 1815 -29 1791.72 -29 1763V92.7124C-29 76.3027 -15.6973 63 0.712428 63H34.9311C49.2759 63 60.7906 40.3885 64.915 26.6494L65.2148 25.6494C69.7852 10.4253 83.7991 0.000162953 99.6943 0H517.308Z"/>
</mask>
<path d="M517.308 0C533.204 0 547.218 10.4255 551.788 25.6504L552.088 26.6504C556.212 40.3894 567.726 63 582.071 63H1421C1449.72 63 1473 86.2812 1473 115V1763C1473 1791.72 1449.72 1815 1421 1815H23C-5.71878 1815 -29 1791.72 -29 1763V92.7124C-29 76.3027 -15.6973 63 0.712428 63H34.9311C49.2759 63 60.7906 40.3885 64.915 26.6494L65.2148 25.6494C69.7852 10.4253 83.7991 0.000162953 99.6943 0H517.308Z" fill="white"/>
<path d="M551.788 25.6504L553.704 25.076L553.704 25.0754L551.788 25.6504ZM552.088 26.6504L550.172 27.2247L550.172 27.2254L552.088 26.6504ZM64.915 26.6494L66.8306 27.2245L66.8308 27.2238L64.915 26.6494ZM65.2148 25.6494L63.2993 25.0744L63.2991 25.0751L65.2148 25.6494ZM99.6943 0V-2H99.6943L99.6943 0ZM517.308 0V2C532.32 2 545.557 11.8463 549.872 26.2254L551.788 25.6504L553.704 25.0754C548.88 9.00467 534.087 -2 517.308 -2V0ZM551.788 25.6504L549.872 26.2247L550.172 27.2247L552.088 26.6504L554.004 26.076L553.704 25.076L551.788 25.6504ZM582.071 63V65H1421V63V61H582.071V63ZM1473 115H1471V1763H1473H1475V115H1473ZM1421 1815V1813H23V1815V1817H1421V1815ZM-29 1763H-27V92.7124H-29H-31V1763H-29ZM0.712427 63V65H34.9311V63V61H0.712427V63ZM64.915 26.6494L66.8308 27.2238L67.1306 26.2238L65.2148 25.6494L63.2991 25.0751L62.9993 26.0751L64.915 26.6494ZM65.2148 25.6494L67.1304 26.2245C71.4468 11.8461 84.6822 2.00015 99.6944 2L99.6943 0L99.6943 -2C82.9159 -1.99983 68.1235 9.00452 63.2993 25.0744L65.2148 25.6494ZM99.6943 0V2H517.308V0V-2H99.6943V0ZM34.9311 63V65C43.1536 65 50.1414 58.587 55.3912 51.128C60.7277 43.5458 64.7207 34.2527 66.8306 27.2245L64.915 26.6494L62.9995 26.0744C60.9849 32.7852 57.1584 41.6674 52.1202 48.8257C46.9953 56.1072 41.0534 61 34.9311 61V63ZM-29 92.7124H-27C-27 77.4072 -14.5927 65 0.712427 65V63V61C-16.8019 61 -31 75.1981 -31 92.7124H-29ZM23 1815V1813C-4.61421 1813 -27 1790.61 -27 1763H-29H-31C-31 1792.82 -6.82335 1817 23 1817V1815ZM1473 1763H1471C1471 1790.61 1448.61 1813 1421 1813V1815V1817C1450.82 1817 1475 1792.82 1475 1763H1473ZM1421 63V65C1448.61 65 1471 87.3858 1471 115H1473H1475C1475 85.1766 1450.82 61 1421 61V63ZM552.088 26.6504L550.172 27.2254C552.282 34.2535 556.275 43.5465 561.611 51.1284C566.861 58.5872 573.848 65 582.071 65V63V61C575.948 61 570.007 56.1074 564.882 48.8262C559.844 41.6681 556.018 32.7862 554.003 26.0754L552.088 26.6504Z" fill="#150A3C" mask="url(#path-10-inside-4_1212_4545)"/>
<path d="M116.84 28.08H108.2V33.024H116.672V35.04H108.2V42H106.04V26.064H116.84V28.08ZM119.842 35.4V26.064H122.002V35.4C122.002 37 122.418 38.216 123.25 39.048C124.082 39.88 125.25 40.296 126.754 40.296C128.258 40.296 129.426 39.88 130.258 39.048C131.09 38.216 131.506 37 131.506 35.4V26.064H133.666V35.4C133.666 37.592 133.042 39.296 131.794 40.512C130.562 41.712 128.882 42.312 126.754 42.312C124.626 42.312 122.938 41.712 121.69 40.512C120.458 39.296 119.842 37.592 119.842 35.4ZM139.794 26.064V39.984H148.434V42H137.634V26.064H139.794ZM153.364 26.064V39.984H162.004V42H151.204V26.064H153.364Z" fill="#150A3C"/>
<path d="M219.293 0C207.001 3.1817e-06 195.924 7.41805 191.244 18.7842C187.449 28.0015 169.991 58.6445 160.023 58.6445H-11C-11.5523 58.6445 -12 59.0922 -12 59.6445V1791C-12 1807.57 1.43146 1821 18 1821H1405C1421.57 1821 1435 1807.57 1435 1791V59.6445C1435 59.0922 1434.55 58.6445 1434 58.6445H774.978C765.011 58.6445 747.553 28.0028 743.759 18.7861C739.079 7.41914 728.002 5.86723e-05 715.71 0H219.293Z" fill="url(#paint0_linear_1212_4545)"/>
<path d="M238.484 28.148C239.876 29.492 240.572 31.208 240.572 33.296C240.572 35.384 239.876 37.112 238.484 38.48C237.116 39.824 235.1 40.496 232.436 40.496H224.876V50H220.916V26.096H232.436C235.1 26.096 237.116 26.78 238.484 28.148ZM235.46 35.96C236.228 35.336 236.612 34.448 236.612 33.296C236.612 32.144 236.228 31.268 235.46 30.668C234.716 30.044 233.66 29.732 232.292 29.732H224.876V36.86H232.292C233.66 36.86 234.716 36.56 235.46 35.96ZM261.345 29.732H248.817V36.212H261.093V39.848H248.817V46.364H261.345V50H244.857V26.096H261.345V29.732ZM286.135 33.296C286.135 35.144 285.595 36.728 284.515 38.048C283.435 39.344 281.827 40.124 279.691 40.388L287.035 50H282.103L274.867 40.496H270.439V50H266.479V26.096H277.999C280.663 26.096 282.679 26.78 284.047 28.148C285.439 29.492 286.135 31.208 286.135 33.296ZM281.023 35.96C281.791 35.336 282.175 34.448 282.175 33.296C282.175 32.144 281.791 31.268 281.023 30.668C280.279 30.044 279.223 29.732 277.855 29.732H270.439V36.86H277.855C279.223 36.86 280.279 36.56 281.023 35.96ZM307.365 29.732H294.837V36.212H307.113V39.848H294.837V50H290.877V26.096H307.365V29.732ZM313.954 29.228C316.306 26.828 319.258 25.628 322.81 25.628C326.362 25.628 329.302 26.828 331.63 29.228C333.982 31.628 335.158 34.568 335.158 38.048C335.158 41.528 333.982 44.468 331.63 46.868C329.302 49.268 326.362 50.468 322.81 50.468C319.258 50.468 316.306 49.268 313.954 46.868C311.626 44.468 310.462 41.528 310.462 38.048C310.462 34.568 311.626 31.628 313.954 29.228ZM316.798 44.312C318.406 45.992 320.41 46.832 322.81 46.832C325.21 46.832 327.202 45.992 328.786 44.312C330.394 42.632 331.198 40.544 331.198 38.048C331.198 35.552 330.394 33.464 328.786 31.784C327.202 30.104 325.21 29.264 322.81 29.264C320.41 29.264 318.406 30.104 316.798 31.784C315.214 33.464 314.422 35.552 314.422 38.048C314.422 40.544 315.214 42.632 316.798 44.312ZM359.295 33.296C359.295 35.144 358.755 36.728 357.675 38.048C356.595 39.344 354.987 40.124 352.851 40.388L360.195 50H355.263L348.027 40.496H343.599V50H339.639V26.096H351.159C353.823 26.096 355.839 26.78 357.207 28.148C358.599 29.492 359.295 31.208 359.295 33.296ZM354.183 35.96C354.951 35.336 355.335 34.448 355.335 33.296C355.335 32.144 354.951 31.268 354.183 30.668C353.439 30.044 352.383 29.732 351.015 29.732H343.599V36.86H351.015C352.383 36.86 353.439 36.56 354.183 35.96ZM368.681 26.096L378.257 45.608L387.833 26.096H392.369V50H388.409V33.404L380.273 50H376.133L367.997 33.404V50H364.037V26.096H368.681ZM401.737 44.6L399.361 50H395.293L405.733 26.096H409.801L420.241 50H416.029L413.653 44.6H401.737ZM412.069 40.964L407.713 30.992L403.321 40.964H412.069ZM440.774 26.096H444.734V50H440.378L427.13 31.964V50H423.17V26.096H427.526L440.774 44.132V26.096ZM461.501 29.264C459.101 29.264 457.109 30.104 455.525 31.784C453.941 33.44 453.149 35.528 453.149 38.048C453.149 40.568 453.941 42.668 455.525 44.348C457.109 46.004 459.101 46.832 461.501 46.832C464.117 46.832 466.205 45.8 467.765 43.736H472.121C471.137 45.824 469.733 47.468 467.909 48.668C466.085 49.868 463.949 50.468 461.501 50.468C457.997 50.468 455.069 49.292 452.717 46.94C450.365 44.564 449.189 41.6 449.189 38.048C449.189 34.496 450.365 31.544 452.717 29.192C455.069 26.816 457.997 25.628 461.501 25.628C463.925 25.628 466.049 26.24 467.873 27.464C469.721 28.664 471.137 30.308 472.121 32.396H467.765C466.205 30.308 464.117 29.264 461.501 29.264ZM492.884 29.732H480.356V36.212H492.632V39.848H480.356V46.364H492.884V50H476.396V26.096H492.884V29.732ZM510.572 26.096L520.148 45.608L529.724 26.096H534.26V50H530.3V33.404L522.164 50H518.024L509.888 33.404V50H505.928V26.096H510.572ZM543.628 44.6L541.252 50H537.184L547.624 26.096H551.692L562.132 50H557.92L555.544 44.6H543.628ZM553.96 40.964L549.604 30.992L545.212 40.964H553.96ZM584.717 33.296C584.717 35.144 584.177 36.728 583.097 38.048C582.017 39.344 580.409 40.124 578.273 40.388L585.617 50H580.685L573.449 40.496H569.021V50H565.061V26.096H576.581C579.245 26.096 581.261 26.78 582.629 28.148C584.021 29.492 584.717 31.208 584.717 33.296ZM579.605 35.96C580.373 35.336 580.757 34.448 580.757 33.296C580.757 32.144 580.373 31.268 579.605 30.668C578.861 30.044 577.805 29.732 576.437 29.732H569.021V36.86H576.437C577.805 36.86 578.861 36.56 579.605 35.96ZM596.695 38.048L608.935 50H603.643L593.419 40.1V50H589.459V26.096H593.419V36.104L603.787 26.096H608.935L596.695 38.048ZM628.482 29.732H615.954V36.212H628.23V39.848H615.954V46.364H628.482V50H611.994V26.096H628.482V29.732ZM631.563 26.096H651.579V29.732H643.551V50H639.591V29.732H631.563V26.096ZM659.302 26.096V50H655.342V26.096H659.302ZM682.754 26.096H686.714V50H682.358L669.11 31.964V50H665.15V26.096H669.506L682.754 44.132V26.096ZM703.481 29.264C701.081 29.264 699.089 30.104 697.505 31.784C695.921 33.44 695.129 35.528 695.129 38.048C695.129 40.568 695.921 42.668 697.505 44.348C699.089 46.004 701.081 46.832 703.481 46.832C705.401 46.832 706.985 46.304 708.233 45.248C709.505 44.192 710.357 42.752 710.789 40.928H702.581V37.292H715.037C715.037 41.204 713.945 44.384 711.761 46.832C709.577 49.256 706.841 50.468 703.553 50.468C700.025 50.468 697.073 49.292 694.697 46.94C692.345 44.564 691.169 41.6 691.169 38.048C691.169 34.496 692.345 31.544 694.697 29.192C697.049 26.816 699.977 25.628 703.481 25.628C705.929 25.628 708.077 26.24 709.925 27.464C711.797 28.688 713.225 30.332 714.209 32.396H709.817C708.257 30.308 706.145 29.264 703.481 29.264Z" fill="white"/>
</g>
<defs>
<linearGradient id="paint0_linear_1212_4545" x1="711.5" y1="0" x2="711.5" y2="1821" gradientUnits="userSpaceOnUse">
<stop stop-color="#130839"/>
<stop offset="0.360577" stop-color="#282251"/>
<stop offset="0.764423" stop-color="#793971"/>
<stop offset="1" stop-color="#CC7897"/>
</linearGradient>
<clipPath id="clip0_1212_4545">
<rect width="1424" height="59" fill="white"/>
</clipPath>
</defs>
</svg>
