<svg width="1424" height="59" viewBox="0 0 1424 59" fill="none" xmlns="http://www.w3.org/2000/svg">
<g clip-path="url(#clip0_1286_3767)">
<mask id="path-1-inside-1_1286_3767" fill="white">
<path d="M274.561 0C292.228 9.96399e-06 307.285 12.821 310.101 30.2627L310.262 31.2627C312.272 43.7164 321.827 63 334.442 63H1410C1438.72 63 1462 86.2812 1462 115V1763C1462 1791.72 1438.72 1815 1410 1815H12C-16.7188 1815 -40 1791.72 -40 1763V90.9283C-40 75.5039 -27.4961 63 -12.0718 63H22.558C35.1733 63 44.7284 43.7157 46.7393 31.2617L46.9014 30.2617C49.7176 12.8205 64.7733 6.78387e-05 82.4404 0H274.561Z"/>
</mask>
<path d="M274.561 0C292.228 9.96399e-06 307.285 12.821 310.101 30.2627L310.262 31.2627C312.272 43.7164 321.827 63 334.442 63H1410C1438.72 63 1462 86.2812 1462 115V1763C1462 1791.72 1438.72 1815 1410 1815H12C-16.7188 1815 -40 1791.72 -40 1763V90.9283C-40 75.5039 -27.4961 63 -12.0718 63H22.558C35.1733 63 44.7284 43.7157 46.7393 31.2617L46.9014 30.2617C49.7176 12.8205 64.7733 6.78387e-05 82.4404 0H274.561Z" fill="white"/>
<path d="M274.561 0V-2V-2V0ZM310.101 30.2627L312.075 29.9445L312.075 29.9439L310.101 30.2627ZM310.262 31.2627L308.287 31.5809L308.287 31.5814L310.262 31.2627ZM46.7393 31.2617L44.765 30.9417L44.7648 30.9429L46.7393 31.2617ZM46.9014 30.2617L48.8756 30.5818L48.8758 30.5805L46.9014 30.2617ZM82.4404 0V-2H82.4404L82.4404 0ZM274.561 0V2C291.246 2.00001 305.467 14.1088 308.126 30.5815L310.101 30.2627L312.075 29.9439C309.103 11.5333 293.21 -1.99999 274.561 -2V0ZM310.101 30.2627L308.126 30.5809L308.287 31.5809L310.262 31.2627L312.236 30.9445L312.075 29.9445L310.101 30.2627ZM334.442 63V65H1410V63V61H334.442V63ZM1462 115H1460V1763H1462H1464V115H1462ZM1410 1815V1813H12V1815V1817H1410V1815ZM-40 1763H-38V90.9283H-40H-42V1763H-40ZM-12.0718 63V65H22.558V63V61H-12.0718V63ZM46.7393 31.2617L48.7135 31.5818L48.8756 30.5818L46.9014 30.2617L44.9271 29.9417L44.765 30.9417L46.7393 31.2617ZM46.9014 30.2617L48.8758 30.5805C51.5355 14.1082 65.7549 2.00006 82.4404 2L82.4404 0L82.4404 -2C63.7918 -1.99993 47.8996 11.5328 44.9269 29.9429L46.9014 30.2617ZM82.4404 0V2H274.561V0V-2H82.4404V0ZM22.558 63V65C29.9146 65 35.9793 59.429 40.2936 52.9042C44.6721 46.2821 47.6645 38.0787 48.7137 31.5805L46.7393 31.2617L44.7648 30.9429C43.8032 36.8988 41.0126 44.5644 36.957 50.698C32.8371 56.9288 27.8167 61 22.558 61V63ZM-40 90.9283H-38C-38 76.6085 -26.3915 65 -12.0718 65V63V61C-28.6007 61 -42 74.3993 -42 90.9283H-40ZM12 1815V1813C-15.6142 1813 -38 1790.61 -38 1763H-40H-42C-42 1792.82 -17.8233 1817 12 1817V1815ZM1462 1763H1460C1460 1790.61 1437.61 1813 1410 1813V1815V1817C1439.82 1817 1464 1792.82 1464 1763H1462ZM1410 63V65C1437.61 65 1460 87.3858 1460 115H1462H1464C1464 85.1766 1439.82 61 1410 61V63ZM310.262 31.2627L308.287 31.5814C309.336 38.0795 312.328 46.2827 316.707 52.9045C321.021 59.4292 327.086 65 334.442 65V63V61C329.183 61 324.163 56.929 320.043 50.6984C315.988 44.565 313.198 36.8996 312.236 30.944L310.262 31.2627Z" fill="#150A3C" mask="url(#path-1-inside-1_1286_3767)"/>
<mask id="path-3-inside-2_1286_3767" fill="white">
<path d="M645.857 0C661.896 1.35843e-05 676 10.611 680.446 26.0215L680.735 27.0215C684.672 40.6677 696.017 63 710.22 63H1369C1397.72 63 1421 86.2812 1421 115V1763C1421 1791.72 1397.72 1815 1369 1815H50C21.2812 1815 -2 1791.72 -2 1763V115C-2 86.2812 21.2812 63 50 63H182.78C196.984 63 208.33 40.6662 212.268 27.0195L212.556 26.0195C217.002 10.6099 231.106 0.000129354 247.145 0H645.857Z"/>
</mask>
<path d="M645.857 0C661.896 1.35843e-05 676 10.611 680.446 26.0215L680.735 27.0215C684.672 40.6677 696.017 63 710.22 63H1369C1397.72 63 1421 86.2812 1421 115V1763C1421 1791.72 1397.72 1815 1369 1815H50C21.2812 1815 -2 1791.72 -2 1763V115C-2 86.2812 21.2812 63 50 63H182.78C196.984 63 208.33 40.6662 212.268 27.0195L212.556 26.0195C217.002 10.6099 231.106 0.000129354 247.145 0H645.857Z" fill="white"/>
<path d="M645.857 0V-2V-2V0ZM680.446 26.0215L678.525 26.5759L678.525 26.5769L680.446 26.0215ZM680.735 27.0215L682.657 26.4671L682.657 26.4661L680.735 27.0215ZM212.268 27.0195L214.189 27.574L214.189 27.5732L212.268 27.0195ZM212.556 26.0195L210.634 25.4651L210.634 25.4659L212.556 26.0195ZM247.145 0V-2H247.145L247.145 0ZM645.857 0V2C661.005 2.00001 674.326 12.0215 678.525 26.5759L680.446 26.0215L682.368 25.4671C677.675 9.20054 662.788 -1.99999 645.857 -2V0ZM680.446 26.0215L678.525 26.5769L678.814 27.5769L680.735 27.0215L682.657 26.4661L682.368 25.4661L680.446 26.0215ZM710.22 63V65H1369V63V61H710.22V63ZM1421 115H1419V1763H1421H1423V115H1421ZM1369 1815V1813H50V1815V1817H1369V1815ZM-2 1763H0V115H-2H-4V1763H-2ZM50 63V65H182.78V63V61H50V63ZM212.268 27.0195L214.189 27.5732L214.478 26.5732L212.556 26.0195L210.634 25.4659L210.346 26.4659L212.268 27.0195ZM212.556 26.0195L214.477 26.574C218.677 12.0205 231.997 2.00012 247.145 2L247.145 0L247.145 -2C230.215 -1.99986 215.327 9.1993 210.634 25.4651L212.556 26.0195ZM247.145 0V2H645.857V0V-2H247.145V0ZM182.78 63V65C190.932 65 197.842 58.6571 203.012 51.2745C208.266 43.7706 212.172 34.5653 214.189 27.574L212.268 27.0195L210.346 26.4651C208.426 33.1204 204.689 41.9054 199.735 48.9801C194.696 56.176 188.832 61 182.78 61V63ZM-2 115H0C0 87.3858 22.3858 65 50 65V63V61C20.1766 61 -4 85.1766 -4 115H-2ZM50 1815V1813C22.3858 1813 0 1790.61 0 1763H-2H-4C-4 1792.82 20.1767 1817 50 1817V1815ZM1421 1763H1419C1419 1790.61 1396.61 1813 1369 1813V1815V1817C1398.82 1817 1423 1792.82 1423 1763H1421ZM1369 63V65C1396.61 65 1419 87.3858 1419 115H1421H1423C1423 85.1766 1398.82 61 1369 61V63ZM680.735 27.0215L678.814 27.5758C680.831 34.567 684.736 43.7718 689.99 51.2752C695.159 58.6574 702.068 65 710.22 65V63V61C704.169 61 698.305 56.1764 693.266 48.9809C688.313 41.9066 684.577 33.1222 682.657 26.4671L680.735 27.0215Z" fill="#150A3C" mask="url(#path-3-inside-2_1286_3767)"/>
<mask id="path-5-inside-3_1286_3767" fill="white">
<path d="M916.224 0C933.484 0 948.316 12.2513 951.576 29.2012L951.769 30.2002C954.225 42.9742 964.207 63 977.215 63H1229C1257.72 63 1281 86.2812 1281 115V1763C1281 1791.72 1257.72 1815 1229 1815H-107C-135.719 1815 -159 1791.72 -159 1763V115C-159 86.2812 -135.719 63 -107 63H612.785C625.794 63 635.776 42.9735 638.233 30.1992L638.426 29.1992C641.686 12.2501 656.517 5.08549e-05 673.777 0H916.224Z"/>
</mask>
<path d="M916.224 0C933.484 0 948.316 12.2513 951.576 29.2012L951.769 30.2002C954.225 42.9742 964.207 63 977.215 63H1229C1257.72 63 1281 86.2812 1281 115V1763C1281 1791.72 1257.72 1815 1229 1815H-107C-135.719 1815 -159 1791.72 -159 1763V115C-159 86.2812 -135.719 63 -107 63H612.785C625.794 63 635.776 42.9735 638.233 30.1992L638.426 29.1992C641.686 12.2501 656.517 5.08549e-05 673.777 0H916.224Z" fill="white"/>
<path d="M951.576 29.2012L949.612 29.5789L949.612 29.5794L951.576 29.2012ZM951.769 30.2002L953.733 29.8225L953.732 29.822L951.769 30.2002ZM638.233 30.1992L636.269 29.8214V29.8214L638.233 30.1992ZM638.426 29.1992L640.39 29.5771V29.577L638.426 29.1992ZM673.777 0V-2V-2V0ZM916.224 0V2C932.525 2 946.533 13.5707 949.612 29.5789L951.576 29.2012L953.54 28.8234C950.099 10.9319 934.443 -2 916.224 -2V0ZM951.576 29.2012L949.612 29.5794L949.805 30.5784L951.769 30.2002L953.732 29.822L953.54 28.823L951.576 29.2012ZM977.215 63V65H1229V63V61H977.215V63ZM1281 115H1279V1763H1281H1283V115H1281ZM1229 1815V1813H-107V1815V1817H1229V1815ZM-159 1763H-157V115H-159H-161V1763H-159ZM-107 63V65H612.786V63V61H-107V63ZM638.233 30.1992L640.197 30.5771L640.39 29.5771L638.426 29.1992L636.462 28.8214L636.269 29.8214L638.233 30.1992ZM638.426 29.1992L640.39 29.577C643.469 13.5695 657.476 2.00005 673.777 2V0V-2C655.559 -1.99995 639.904 10.9307 636.462 28.8214L638.426 29.1992ZM673.777 0V2H916.224V0V-2H673.777V0ZM612.786 63V65C620.339 65 626.609 59.2407 631.127 52.504C635.715 45.6638 638.921 37.2101 640.197 30.577L638.233 30.1992L636.269 29.8214C635.088 35.9626 632.075 43.9093 627.805 50.2759C623.466 56.746 618.24 61 612.786 61V63ZM-159 115H-157C-157 87.3858 -134.614 65 -107 65V63V61C-136.823 61 -161 85.1766 -161 115H-159ZM-107 1815V1813C-134.614 1813 -157 1790.61 -157 1763H-159H-161C-161 1792.82 -136.823 1817 -107 1817V1815ZM1281 1763H1279C1279 1790.61 1256.61 1813 1229 1813V1815V1817C1258.82 1817 1283 1792.82 1283 1763H1281ZM1229 63V65C1256.61 65 1279 87.3858 1279 115H1281H1283C1283 85.1766 1258.82 61 1229 61V63ZM951.769 30.2002L949.805 30.5779C951.08 37.2109 954.287 45.6644 958.874 52.5044C963.392 59.2409 969.662 65 977.215 65V63V61C971.761 61 966.535 56.7462 962.196 50.2764C957.927 43.91 954.914 35.9635 953.733 29.8225L951.769 30.2002Z" fill="#150A3C" mask="url(#path-5-inside-3_1286_3767)"/>
<mask id="path-7-inside-4_1286_3767" fill="white">
<path d="M1088.23 0C1105.49 0 1120.32 12.2491 1123.58 29.1973L1123.76 30.1572C1126.22 42.9323 1136.21 62.9648 1149.22 62.9648H1369C1397.72 62.9648 1421 86.246 1421 114.965V1762C1421 1790.72 1397.72 1814 1369 1814H50C21.2812 1814 -2 1790.72 -2 1762V114.965C-2 86.246 21.2812 62.9648 50 62.9648H784.783C797.794 62.9648 807.779 42.931 810.238 30.1553L810.423 29.1963C813.685 12.2486 828.516 0 845.774 0H1088.23Z"/>
</mask>
<path d="M1088.23 0C1105.49 0 1120.32 12.2491 1123.58 29.1973L1123.76 30.1572C1126.22 42.9323 1136.21 62.9648 1149.22 62.9648H1369C1397.72 62.9648 1421 86.246 1421 114.965V1762C1421 1790.72 1397.72 1814 1369 1814H50C21.2812 1814 -2 1790.72 -2 1762V114.965C-2 86.246 21.2812 62.9648 50 62.9648H784.783C797.794 62.9648 807.779 42.931 810.238 30.1553L810.423 29.1963C813.685 12.2486 828.516 0 845.774 0H1088.23Z" fill="white"/>
<path d="M1123.58 29.1973L1125.54 28.8196V28.8193L1123.58 29.1973ZM1123.76 30.1572L1121.8 30.5348V30.5352L1123.76 30.1572ZM810.238 30.1553L812.202 30.5333V30.5333L810.238 30.1553ZM810.423 29.1963L808.459 28.8183V28.8183L810.423 29.1963ZM1088.23 0V2C1104.53 2 1118.53 13.5686 1121.61 29.5752L1123.58 29.1973L1125.54 28.8193C1122.1 10.9296 1106.44 -2 1088.23 -2V0ZM1123.58 29.1973L1121.61 29.5749L1121.8 30.5348L1123.76 30.1572L1125.73 29.7796L1125.54 28.8196L1123.58 29.1973ZM1149.22 62.9648V64.9648H1369V62.9648V60.9648H1149.22V62.9648ZM1421 114.965H1419V1762H1421H1423V114.965H1421ZM1369 1814V1812H50V1814V1816H1369V1814ZM-2 1762H0V114.965H-2H-4V1762H-2ZM50 62.9648V64.9648H784.783V62.9648V60.9648H50V62.9648ZM810.238 30.1553L812.202 30.5333L812.387 29.5743L810.423 29.1963L808.459 28.8183L808.274 29.7773L810.238 30.1553ZM810.423 29.1963L812.387 29.5743C815.467 13.5682 829.474 2 845.774 2V0V-2C827.557 -2 811.902 10.9291 808.459 28.8183L810.423 29.1963ZM845.774 0V2H1088.23V0V-2H845.774V0ZM784.783 62.9648V64.9648C792.338 64.9648 798.609 59.2035 803.129 52.465C807.717 45.6228 810.925 37.167 812.202 30.5333L810.238 30.1553L808.274 29.7773C807.092 35.9193 804.078 43.8682 799.807 50.237C795.466 56.7092 790.239 60.9648 784.783 60.9648V62.9648ZM-2 114.965H0C0 87.3506 22.3858 64.9648 50 64.9648V62.9648V60.9648C20.1766 60.9648 -4 85.1414 -4 114.965H-2ZM50 1814V1812C22.3858 1812 0 1789.61 0 1762H-2H-4C-4 1791.82 20.1767 1816 50 1816V1814ZM1421 1762H1419C1419 1789.61 1396.61 1812 1369 1812V1814V1816C1398.82 1816 1423 1791.82 1423 1762H1421ZM1369 62.9648V64.9648C1396.61 64.9648 1419 87.3506 1419 114.965H1421H1423C1423 85.1415 1398.82 60.9648 1369 60.9648V62.9648ZM1123.76 30.1572L1121.8 30.5352C1123.08 37.1686 1126.28 45.6239 1130.87 52.4657C1135.39 59.2039 1141.66 64.9648 1149.22 64.9648V62.9648V60.9648C1143.76 60.9648 1138.53 56.7095 1134.19 50.2377C1129.92 43.8694 1126.91 35.9209 1125.73 29.7793L1123.76 30.1572Z" fill="#150A3C" mask="url(#path-7-inside-4_1286_3767)"/>
<path d="M1061.05 0C1047.01 0.000120957 1034.78 9.57057 1031.4 23.1982C1029.2 32.0422 1014.99 59.0625 1005.88 59.0625H-22C-22.5523 59.0625 -23 59.5102 -23 60.0625V1804C-23 1820.57 -9.56854 1834 7 1834H1394C1410.57 1834 1424 1820.57 1424 1804V60.0625C1424 59.5102 1423.55 59.0625 1423 59.0625H1394.12C1385.01 59.0625 1370.8 32.0433 1368.6 23.1992C1365.23 9.57091 1352.99 0 1338.95 0H1061.05Z" fill="url(#paint0_linear_1286_3767)"/>
</g>
<defs>
<linearGradient id="paint0_linear_1286_3767" x1="700.5" y1="0" x2="700.5" y2="1834" gradientUnits="userSpaceOnUse">
<stop stop-color="#130839"/>
<stop offset="0.360577" stop-color="#282251"/>
<stop offset="0.764423" stop-color="#793971"/>
<stop offset="1" stop-color="#CC7897"/>
</linearGradient>
<clipPath id="clip0_1286_3767">
<rect width="1424" height="59" fill="white"/>
</clipPath>
</defs>
</svg>
