<svg width="1424" height="59" viewBox="0 0 1424 59" fill="none" xmlns="http://www.w3.org/2000/svg">
<g clip-path="url(#clip0_1286_3680)">
<mask id="path-1-inside-1_1286_3680" fill="white">
<path d="M1345.22 0C1362.48 0 1377.32 12.2513 1380.58 29.2012L1380.77 30.2012C1383.23 42.9749 1393.21 63 1406.21 63H1412.88C1422.33 63 1430 70.6651 1430 80.1205V1763C1430 1791.72 1406.72 1815 1378 1815H59C30.2812 1815 7 1791.72 7 1763V115C7 86.2812 30.2812 63 59 63H1041.79C1054.79 63 1064.78 42.9734 1067.23 30.1992L1067.43 29.1992C1070.69 12.2501 1085.52 4.94698e-05 1102.78 0H1345.22Z"/>
</mask>
<path d="M1345.22 0C1362.48 0 1377.32 12.2513 1380.58 29.2012L1380.77 30.2012C1383.23 42.9749 1393.21 63 1406.21 63H1412.88C1422.33 63 1430 70.6651 1430 80.1205V1763C1430 1791.72 1406.72 1815 1378 1815H59C30.2812 1815 7 1791.72 7 1763V115C7 86.2812 30.2812 63 59 63H1041.79C1054.79 63 1064.78 42.9734 1067.23 30.1992L1067.43 29.1992C1070.69 12.2501 1085.52 4.94698e-05 1102.78 0H1345.22Z" fill="white"/>
<path d="M1380.58 29.2012L1378.61 29.5789V29.579L1380.58 29.2012ZM1380.77 30.2012L1382.73 29.8235V29.8233L1380.77 30.2012ZM1067.23 30.1992L1065.27 29.8214V29.8214L1067.23 30.1992ZM1067.43 29.1992L1069.39 29.5771V29.577L1067.43 29.1992ZM1102.78 0V-2V-2V0ZM1345.22 0V2C1361.53 2 1375.53 13.5707 1378.61 29.5789L1380.58 29.2012L1382.54 28.8234C1379.1 10.9319 1363.44 -2 1345.22 -2V0ZM1380.58 29.2012L1378.61 29.579L1378.8 30.579L1380.77 30.2012L1382.73 29.8233L1382.54 28.8233L1380.58 29.2012ZM1406.21 63V65H1412.88V63V61H1406.21V63ZM1430 80.1205H1428V1763H1430H1432V80.1205H1430ZM1378 1815V1813H59V1815V1817H1378V1815ZM7 1763H9V115H7H5V1763H7ZM59 63V65H1041.79V63V61H59V63ZM1067.23 30.1992L1069.2 30.5771L1069.39 29.5771L1067.43 29.1992L1065.46 28.8214L1065.27 29.8214L1067.23 30.1992ZM1067.43 29.1992L1069.39 29.577C1072.47 13.5695 1086.48 2.00005 1102.78 2V0V-2C1084.56 -1.99995 1068.9 10.9307 1065.46 28.8214L1067.43 29.1992ZM1102.78 0V2H1345.22V0V-2H1102.78V0ZM1041.79 63V65C1049.34 65 1055.61 59.2407 1060.13 52.504C1064.71 45.6638 1067.92 37.2101 1069.2 30.577L1067.23 30.1992L1065.27 29.8214C1064.09 35.9626 1061.08 43.9093 1056.81 50.2759C1052.47 56.746 1047.24 61 1041.79 61V63ZM7 115H9C9 87.3858 31.3858 65 59 65V63V61C29.1766 61 5 85.1766 5 115H7ZM59 1815V1813C31.3858 1813 9 1790.61 9 1763H7H5C5 1792.82 29.1767 1817 59 1817V1815ZM1430 1763H1428C1428 1790.61 1405.61 1813 1378 1813V1815V1817C1407.82 1817 1432 1792.82 1432 1763H1430ZM1412.88 63V65C1421.23 65 1428 71.7697 1428 80.1205H1430H1432C1432 69.5605 1423.44 61 1412.88 61V63ZM1380.77 30.2012L1378.8 30.5789C1380.08 37.2117 1383.29 45.665 1387.87 52.5047C1392.39 59.2411 1398.66 65 1406.21 65V63V61C1400.76 61 1395.53 56.7464 1391.2 50.2767C1386.93 43.9105 1383.91 35.9643 1382.73 29.8235L1380.77 30.2012Z" fill="#150A3C" mask="url(#path-1-inside-1_1286_3680)"/>
<mask id="path-3-inside-2_1286_3680" fill="white">
<path d="M1090.22 0C1107.48 0 1122.32 12.2513 1125.58 29.2012L1125.77 30.2002C1128.23 42.9742 1138.21 63 1151.22 63H1378C1406.72 63 1430 86.2812 1430 115V1763C1430 1791.72 1406.72 1815 1378 1815H42C13.2812 1815 -10 1791.72 -10 1763V115C-10 86.2812 13.2812 63 42 63H786.786C799.794 63 809.776 42.9735 812.233 30.1992L812.426 29.1992C815.686 12.2501 830.517 5.08549e-05 847.777 0H1090.22Z"/>
</mask>
<path d="M1090.22 0C1107.48 0 1122.32 12.2513 1125.58 29.2012L1125.77 30.2002C1128.23 42.9742 1138.21 63 1151.22 63H1378C1406.72 63 1430 86.2812 1430 115V1763C1430 1791.72 1406.72 1815 1378 1815H42C13.2812 1815 -10 1791.72 -10 1763V115C-10 86.2812 13.2812 63 42 63H786.786C799.794 63 809.776 42.9735 812.233 30.1992L812.426 29.1992C815.686 12.2501 830.517 5.08549e-05 847.777 0H1090.22Z" fill="white"/>
<path d="M1125.58 29.2012L1123.61 29.5789L1123.61 29.5794L1125.58 29.2012ZM1125.77 30.2002L1127.73 29.8225L1127.73 29.822L1125.77 30.2002ZM812.233 30.1992L810.269 29.8214V29.8214L812.233 30.1992ZM812.426 29.1992L814.39 29.5771V29.577L812.426 29.1992ZM847.777 0V-2V-2V0ZM1090.22 0V2C1106.53 2 1120.53 13.5707 1123.61 29.5789L1125.58 29.2012L1127.54 28.8234C1124.1 10.9319 1108.44 -2 1090.22 -2V0ZM1125.58 29.2012L1123.61 29.5794L1123.8 30.5784L1125.77 30.2002L1127.73 29.822L1127.54 28.823L1125.58 29.2012ZM1151.22 63V65H1378V63V61H1151.22V63ZM1430 115H1428V1763H1430H1432V115H1430ZM1378 1815V1813H42V1815V1817H1378V1815ZM-10 1763H-8V115H-10H-12V1763H-10ZM42 63V65H786.786V63V61H42V63ZM812.233 30.1992L814.197 30.5771L814.39 29.5771L812.426 29.1992L810.462 28.8214L810.269 29.8214L812.233 30.1992ZM812.426 29.1992L814.39 29.577C817.469 13.5695 831.476 2.00005 847.777 2V0V-2C829.559 -1.99995 813.904 10.9307 810.462 28.8214L812.426 29.1992ZM847.777 0V2H1090.22V0V-2H847.777V0ZM786.786 63V65C794.339 65 800.609 59.2407 805.127 52.504C809.715 45.6638 812.921 37.2101 814.197 30.577L812.233 30.1992L810.269 29.8214C809.088 35.9626 806.075 43.9093 801.805 50.2759C797.466 56.746 792.24 61 786.786 61V63ZM-10 115H-8C-8 87.3858 14.3858 65 42 65V63V61C12.1766 61 -12 85.1766 -12 115H-10ZM42 1815V1813C14.3858 1813 -8 1790.61 -8 1763H-10H-12C-12 1792.82 12.1766 1817 42 1817V1815ZM1430 1763H1428C1428 1790.61 1405.61 1813 1378 1813V1815V1817C1407.82 1817 1432 1792.82 1432 1763H1430ZM1378 63V65C1405.61 65 1428 87.3858 1428 115H1430H1432C1432 85.1766 1407.82 61 1378 61V63ZM1125.77 30.2002L1123.8 30.5779C1125.08 37.2109 1128.29 45.6644 1132.87 52.5044C1137.39 59.2409 1143.66 65 1151.22 65V63V61C1145.76 61 1140.54 56.7462 1136.2 50.2764C1131.93 43.91 1128.91 35.9635 1127.73 29.8225L1125.77 30.2002Z" fill="#150A3C" mask="url(#path-3-inside-2_1286_3680)"/>
<mask id="path-5-inside-3_1286_3680" fill="white">
<path d="M283.561 0C301.228 9.96399e-06 316.285 12.821 319.101 30.2627L319.262 31.2627C321.272 43.7164 330.827 63 343.442 63H1419C1447.72 63 1471 86.2812 1471 115V1763C1471 1791.72 1447.72 1815 1419 1815H21C-7.71878 1815 -31 1791.72 -31 1763V90.9283C-31 75.5039 -18.4961 63 -3.07175 63H31.558C44.1733 63 53.7284 43.7157 55.7393 31.2617L55.9014 30.2617C58.7176 12.8205 73.7733 6.78387e-05 91.4404 0H283.561Z"/>
</mask>
<path d="M283.561 0C301.228 9.96399e-06 316.285 12.821 319.101 30.2627L319.262 31.2627C321.272 43.7164 330.827 63 343.442 63H1419C1447.72 63 1471 86.2812 1471 115V1763C1471 1791.72 1447.72 1815 1419 1815H21C-7.71878 1815 -31 1791.72 -31 1763V90.9283C-31 75.5039 -18.4961 63 -3.07175 63H31.558C44.1733 63 53.7284 43.7157 55.7393 31.2617L55.9014 30.2617C58.7176 12.8205 73.7733 6.78387e-05 91.4404 0H283.561Z" fill="white"/>
<path d="M283.561 0V-2V-2V0ZM319.101 30.2627L321.075 29.9445L321.075 29.9439L319.101 30.2627ZM319.262 31.2627L317.287 31.5809L317.287 31.5814L319.262 31.2627ZM55.7393 31.2617L53.765 30.9417L53.7648 30.9429L55.7393 31.2617ZM55.9014 30.2617L57.8756 30.5818L57.8758 30.5805L55.9014 30.2617ZM91.4404 0V-2H91.4404L91.4404 0ZM283.561 0V2C300.246 2.00001 314.467 14.1088 317.126 30.5815L319.101 30.2627L321.075 29.9439C318.103 11.5333 302.21 -1.99999 283.561 -2V0ZM319.101 30.2627L317.126 30.5809L317.287 31.5809L319.262 31.2627L321.236 30.9445L321.075 29.9445L319.101 30.2627ZM343.442 63V65H1419V63V61H343.442V63ZM1471 115H1469V1763H1471H1473V115H1471ZM1419 1815V1813H21V1815V1817H1419V1815ZM-31 1763H-29V90.9283H-31H-33V1763H-31ZM-3.07175 63V65H31.558V63V61H-3.07175V63ZM55.7393 31.2617L57.7135 31.5818L57.8756 30.5818L55.9014 30.2617L53.9271 29.9417L53.765 30.9417L55.7393 31.2617ZM55.9014 30.2617L57.8758 30.5805C60.5355 14.1082 74.7549 2.00006 91.4404 2L91.4404 0L91.4404 -2C72.7918 -1.99993 56.8996 11.5328 53.9269 29.9429L55.9014 30.2617ZM91.4404 0V2H283.561V0V-2H91.4404V0ZM31.558 63V65C38.9146 65 44.9793 59.429 49.2936 52.9042C53.6721 46.2821 56.6645 38.0787 57.7137 31.5805L55.7393 31.2617L53.7648 30.9429C52.8032 36.8988 50.0126 44.5644 45.957 50.698C41.8371 56.9288 36.8167 61 31.558 61V63ZM-31 90.9283H-29C-29 76.6085 -17.3915 65 -3.07175 65V63V61C-19.6007 61 -33 74.3993 -33 90.9283H-31ZM21 1815V1813C-6.61421 1813 -29 1790.61 -29 1763H-31H-33C-33 1792.82 -8.82335 1817 21 1817V1815ZM1471 1763H1469C1469 1790.61 1446.61 1813 1419 1813V1815V1817C1448.82 1817 1473 1792.82 1473 1763H1471ZM1419 63V65C1446.61 65 1469 87.3858 1469 115H1471H1473C1473 85.1766 1448.82 61 1419 61V63ZM319.262 31.2627L317.287 31.5814C318.336 38.0795 321.328 46.2827 325.707 52.9045C330.021 59.4292 336.086 65 343.442 65V63V61C338.183 61 333.163 56.929 329.043 50.6984C324.988 44.565 322.198 36.8996 321.236 30.944L319.262 31.2627Z" fill="#150A3C" mask="url(#path-5-inside-3_1286_3680)"/>
<mask id="path-7-inside-4_1286_3680" fill="white">
<path d="M654.857 0C670.896 1.35843e-05 685 10.611 689.446 26.0215L689.735 27.0215C693.672 40.6677 705.017 63 719.22 63H1378C1406.72 63 1430 86.2812 1430 115V1763C1430 1791.72 1406.72 1815 1378 1815H59C30.2812 1815 7 1791.72 7 1763V115C7 86.2812 30.2812 63 59 63H191.78C205.984 63 217.33 40.6662 221.268 27.0195L221.556 26.0195C226.002 10.6099 240.106 0.000129354 256.145 0H654.857Z"/>
</mask>
<path d="M654.857 0C670.896 1.35843e-05 685 10.611 689.446 26.0215L689.735 27.0215C693.672 40.6677 705.017 63 719.22 63H1378C1406.72 63 1430 86.2812 1430 115V1763C1430 1791.72 1406.72 1815 1378 1815H59C30.2812 1815 7 1791.72 7 1763V115C7 86.2812 30.2812 63 59 63H191.78C205.984 63 217.33 40.6662 221.268 27.0195L221.556 26.0195C226.002 10.6099 240.106 0.000129354 256.145 0H654.857Z" fill="white"/>
<path d="M654.857 0V-2V-2V0ZM689.446 26.0215L687.525 26.5759L687.525 26.5769L689.446 26.0215ZM689.735 27.0215L691.657 26.4671L691.657 26.4661L689.735 27.0215ZM221.268 27.0195L223.189 27.574L223.189 27.5732L221.268 27.0195ZM221.556 26.0195L219.634 25.4651L219.634 25.4659L221.556 26.0195ZM256.145 0V-2H256.145L256.145 0ZM654.857 0V2C670.005 2.00001 683.326 12.0215 687.525 26.5759L689.446 26.0215L691.368 25.4671C686.675 9.20054 671.788 -1.99999 654.857 -2V0ZM689.446 26.0215L687.525 26.5769L687.814 27.5769L689.735 27.0215L691.657 26.4661L691.368 25.4661L689.446 26.0215ZM719.22 63V65H1378V63V61H719.22V63ZM1430 115H1428V1763H1430H1432V115H1430ZM1378 1815V1813H59V1815V1817H1378V1815ZM7 1763H9V115H7H5V1763H7ZM59 63V65H191.78V63V61H59V63ZM221.268 27.0195L223.189 27.5732L223.478 26.5732L221.556 26.0195L219.634 25.4659L219.346 26.4659L221.268 27.0195ZM221.556 26.0195L223.477 26.574C227.677 12.0205 240.997 2.00012 256.145 2L256.145 0L256.145 -2C239.215 -1.99986 224.327 9.1993 219.634 25.4651L221.556 26.0195ZM256.145 0V2H654.857V0V-2H256.145V0ZM191.78 63V65C199.932 65 206.842 58.6571 212.012 51.2745C217.266 43.7706 221.172 34.5653 223.189 27.574L221.268 27.0195L219.346 26.4651C217.426 33.1204 213.689 41.9054 208.735 48.9801C203.696 56.176 197.832 61 191.78 61V63ZM7 115H9C9 87.3858 31.3858 65 59 65V63V61C29.1766 61 5 85.1766 5 115H7ZM59 1815V1813C31.3858 1813 9 1790.61 9 1763H7H5C5 1792.82 29.1767 1817 59 1817V1815ZM1430 1763H1428C1428 1790.61 1405.61 1813 1378 1813V1815V1817C1407.82 1817 1432 1792.82 1432 1763H1430ZM1378 63V65C1405.61 65 1428 87.3858 1428 115H1430H1432C1432 85.1766 1407.82 61 1378 61V63ZM689.735 27.0215L687.814 27.5758C689.831 34.567 693.736 43.7718 698.99 51.2752C704.159 58.6574 711.068 65 719.22 65V63V61C713.169 61 707.305 56.1764 702.266 48.9809C697.313 41.9066 693.577 33.1222 691.657 26.4671L689.735 27.0215Z" fill="#150A3C" mask="url(#path-7-inside-4_1286_3680)"/>
<path d="M675.923 0C661.285 0.000209846 648.709 10.3945 645.953 24.7705C644.302 33.3815 631.215 58.998 622.447 58.998H-13C-13.5521 58.998 -13.9997 59.446 -14 59.998V1802C-14 1818.57 -0.568542 1832 16 1832H1403C1419.57 1832 1433 1818.57 1433 1802V59.999C1433 59.4467 1432.55 58.998 1432 58.998H930.554C921.786 58.998 908.7 33.3815 907.049 24.7705C904.293 10.3942 891.716 0.000128683 877.078 0H675.923Z" fill="url(#paint0_linear_1286_3680)"/>
</g>
<defs>
<linearGradient id="paint0_linear_1286_3680" x1="709.5" y1="0" x2="709.5" y2="1832" gradientUnits="userSpaceOnUse">
<stop stop-color="#130839"/>
<stop offset="0.360577" stop-color="#282251"/>
<stop offset="0.764423" stop-color="#793971"/>
<stop offset="1" stop-color="#CC7897"/>
</linearGradient>
<clipPath id="clip0_1286_3680">
<rect width="1424" height="59" fill="white"/>
</clipPath>
</defs>
</svg>
