<svg width="1424" height="59" viewBox="0 0 1424 59" fill="none" xmlns="http://www.w3.org/2000/svg">
<g clip-path="url(#clip0_1212_4858)">
<mask id="path-1-inside-1_1212_4858" fill="white">
<path d="M1338.22 0C1355.48 0 1370.32 12.2513 1373.58 29.2012L1373.77 30.2012C1376.23 42.9749 1386.21 63 1399.21 63H1405.88C1415.33 63 1423 70.6651 1423 80.1205V1763C1423 1791.72 1399.72 1815 1371 1815H52C23.2812 1815 0 1791.72 0 1763V115C0 86.2812 23.2812 63 52 63H1034.79C1047.79 63 1057.78 42.9734 1060.23 30.1992L1060.43 29.1992C1063.69 12.2501 1078.52 4.94698e-05 1095.78 0H1338.22Z"/>
</mask>
<path d="M1338.22 0C1355.48 0 1370.32 12.2513 1373.58 29.2012L1373.77 30.2012C1376.23 42.9749 1386.21 63 1399.21 63H1405.88C1415.33 63 1423 70.6651 1423 80.1205V1763C1423 1791.72 1399.72 1815 1371 1815H52C23.2812 1815 0 1791.72 0 1763V115C0 86.2812 23.2812 63 52 63H1034.79C1047.79 63 1057.78 42.9734 1060.23 30.1992L1060.43 29.1992C1063.69 12.2501 1078.52 4.94698e-05 1095.78 0H1338.22Z" fill="white"/>
<path d="M1373.58 29.2012L1371.61 29.5789V29.579L1373.58 29.2012ZM1373.77 30.2012L1375.73 29.8235V29.8233L1373.77 30.2012ZM1060.23 30.1992L1058.27 29.8214V29.8214L1060.23 30.1992ZM1060.43 29.1992L1062.39 29.5771V29.577L1060.43 29.1992ZM1095.78 0V-2V-2V0ZM1338.22 0V2C1354.53 2 1368.53 13.5707 1371.61 29.5789L1373.58 29.2012L1375.54 28.8234C1372.1 10.9319 1356.44 -2 1338.22 -2V0ZM1373.58 29.2012L1371.61 29.579L1371.8 30.579L1373.77 30.2012L1375.73 29.8233L1375.54 28.8233L1373.58 29.2012ZM1399.21 63V65H1405.88V63V61H1399.21V63ZM1423 80.1205H1421V1763H1423H1425V80.1205H1423ZM1371 1815V1813H52V1815V1817H1371V1815ZM0 1763H2V115H0H-2V1763H0ZM52 63V65H1034.79V63V61H52V63ZM1060.23 30.1992L1062.2 30.5771L1062.39 29.5771L1060.43 29.1992L1058.46 28.8214L1058.27 29.8214L1060.23 30.1992ZM1060.43 29.1992L1062.39 29.577C1065.47 13.5695 1079.48 2.00005 1095.78 2V0V-2C1077.56 -1.99995 1061.9 10.9307 1058.46 28.8214L1060.43 29.1992ZM1095.78 0V2H1338.22V0V-2H1095.78V0ZM1034.79 63V65C1042.34 65 1048.61 59.2407 1053.13 52.504C1057.71 45.6638 1060.92 37.2101 1062.2 30.577L1060.23 30.1992L1058.27 29.8214C1057.09 35.9626 1054.08 43.9093 1049.81 50.2759C1045.47 56.746 1040.24 61 1034.79 61V63ZM0 115H2C2 87.3858 24.3858 65 52 65V63V61C22.1766 61 -2 85.1766 -2 115H0ZM52 1815V1813C24.3858 1813 2 1790.61 2 1763H0H-2C-2 1792.82 22.1767 1817 52 1817V1815ZM1423 1763H1421C1421 1790.61 1398.61 1813 1371 1813V1815V1817C1400.82 1817 1425 1792.82 1425 1763H1423ZM1405.88 63V65C1414.23 65 1421 71.7697 1421 80.1205H1423H1425C1425 69.5605 1416.44 61 1405.88 61V63ZM1373.77 30.2012L1371.8 30.5789C1373.08 37.2117 1376.29 45.665 1380.87 52.5047C1385.39 59.2411 1391.66 65 1399.21 65V63V61C1393.76 61 1388.53 56.7464 1384.2 50.2767C1379.93 43.9105 1376.91 35.9643 1375.73 29.8235L1373.77 30.2012Z" fill="#150A3C" mask="url(#path-1-inside-1_1212_4858)"/>
<path d="M1183.26 27.768C1181.55 27.768 1180.12 28.368 1178.97 29.568C1177.82 30.752 1177.24 32.24 1177.24 34.032C1177.24 35.824 1177.82 37.32 1178.97 38.52C1180.12 39.704 1181.55 40.296 1183.26 40.296C1185.17 40.296 1186.66 39.544 1187.75 38.04H1190.2C1189.54 39.368 1188.62 40.416 1187.42 41.184C1186.23 41.936 1184.85 42.312 1183.26 42.312C1180.94 42.312 1179 41.52 1177.43 39.936C1175.86 38.352 1175.08 36.384 1175.08 34.032C1175.08 31.68 1175.86 29.712 1177.43 28.128C1179 26.544 1180.94 25.752 1183.26 25.752C1184.85 25.752 1186.23 26.136 1187.42 26.904C1188.62 27.656 1189.54 28.696 1190.2 30.024H1187.75C1186.66 28.52 1185.17 27.768 1183.26 27.768ZM1194.59 28.128C1196.16 26.544 1198.1 25.752 1200.42 25.752C1202.74 25.752 1204.68 26.544 1206.25 28.128C1207.82 29.712 1208.6 31.68 1208.6 34.032C1208.6 36.384 1207.82 38.352 1206.25 39.936C1204.68 41.52 1202.74 42.312 1200.42 42.312C1198.1 42.312 1196.16 41.52 1194.59 39.936C1193.02 38.352 1192.24 36.384 1192.24 34.032C1192.24 31.68 1193.02 29.712 1194.59 28.128ZM1204.72 29.568C1203.56 28.368 1202.13 27.768 1200.42 27.768C1198.71 27.768 1197.28 28.368 1196.12 29.568C1194.97 30.752 1194.4 32.24 1194.4 34.032C1194.4 35.824 1194.97 37.32 1196.12 38.52C1197.28 39.704 1198.71 40.296 1200.42 40.296C1202.13 40.296 1203.56 39.704 1204.72 38.52C1205.87 37.32 1206.44 35.824 1206.44 34.032C1206.44 32.24 1205.87 30.752 1204.72 29.568ZM1223.88 26.064H1226.04V42H1223.62L1213.9 29.136V42H1211.74V26.064H1214.16L1223.88 38.928V26.064ZM1228.67 38.04H1231.02C1231.41 38.728 1232 39.28 1232.8 39.696C1233.61 40.096 1234.54 40.296 1235.58 40.296C1236.78 40.296 1237.77 40.048 1238.56 39.552C1239.34 39.04 1239.73 38.4 1239.73 37.632C1239.73 36.88 1239.46 36.304 1238.92 35.904C1238.37 35.504 1237.52 35.24 1236.35 35.112L1233.57 34.824C1232.05 34.68 1230.92 34.224 1230.18 33.456C1229.46 32.688 1229.1 31.712 1229.1 30.528C1229.1 29.104 1229.65 27.952 1230.76 27.072C1231.88 26.192 1233.37 25.752 1235.25 25.752C1237.04 25.752 1238.49 26.176 1239.61 27.024C1240.75 27.872 1241.53 28.872 1241.97 30.024H1239.61C1239.29 29.352 1238.73 28.808 1237.93 28.392C1237.13 27.976 1236.21 27.768 1235.17 27.768C1233.97 27.768 1233.02 28.024 1232.32 28.536C1231.61 29.048 1231.26 29.68 1231.26 30.432C1231.26 31.856 1232.25 32.664 1234.21 32.856L1237.21 33.168C1238.69 33.328 1239.83 33.792 1240.65 34.56C1241.48 35.328 1241.89 36.312 1241.89 37.512C1241.89 38.792 1241.33 39.912 1240.21 40.872C1239.09 41.832 1237.55 42.312 1235.58 42.312C1233.66 42.312 1232.13 41.904 1231 41.088C1229.86 40.256 1229.09 39.24 1228.67 38.04ZM1244.73 35.4V26.064H1246.89V35.4C1246.89 37 1247.31 38.216 1248.14 39.048C1248.97 39.88 1250.14 40.296 1251.64 40.296C1253.15 40.296 1254.32 39.88 1255.15 39.048C1255.98 38.216 1256.4 37 1256.4 35.4V26.064H1258.56V35.4C1258.56 37.592 1257.93 39.296 1256.68 40.512C1255.45 41.712 1253.77 42.312 1251.64 42.312C1249.52 42.312 1247.83 41.712 1246.58 40.512C1245.35 39.296 1244.73 37.592 1244.73 35.4ZM1264.68 26.064V39.984H1273.32V42H1262.52V26.064H1264.68ZM1271.77 26.064H1284.97V28.08H1279.45V42H1277.29V28.08H1271.77V26.064ZM1289.76 26.064V42H1287.6V26.064H1289.76ZM1305.98 26.064H1308.14V42H1305.72L1296 29.136V42H1293.84V26.064H1296.26L1305.98 38.928V26.064ZM1319.44 27.768C1317.72 27.768 1316.29 28.368 1315.14 29.568C1313.99 30.752 1313.41 32.24 1313.41 34.032C1313.41 35.84 1313.98 37.336 1315.12 38.52C1316.27 39.704 1317.72 40.296 1319.46 40.296C1320.87 40.296 1322.04 39.88 1322.99 39.048C1323.95 38.216 1324.57 37.112 1324.86 35.736H1319.12V33.72H1327.16C1327.16 36.264 1326.43 38.336 1324.96 39.936C1323.48 41.52 1321.68 42.312 1319.53 42.312C1317.2 42.312 1315.23 41.52 1313.63 39.936C1312.04 38.352 1311.25 36.384 1311.25 34.032C1311.25 31.68 1312.04 29.712 1313.6 28.128C1315.17 26.544 1317.12 25.752 1319.44 25.752C1320.99 25.752 1322.38 26.144 1323.61 26.928C1324.86 27.696 1325.82 28.728 1326.49 30.024H1324.02C1323.52 29.336 1322.88 28.792 1322.08 28.392C1321.29 27.976 1320.41 27.768 1319.44 27.768Z" fill="#150A3C"/>
<mask id="path-4-inside-2_1212_4858" fill="white">
<path d="M276.561 0C294.228 9.96399e-06 309.285 12.821 312.101 30.2627L312.262 31.2627C314.272 43.7164 323.827 63 336.442 63H1412C1440.72 63 1464 86.2812 1464 115V1763C1464 1791.72 1440.72 1815 1412 1815H14C-14.7188 1815 -38 1791.72 -38 1763V90.9283C-38 75.5039 -25.4961 63 -10.0718 63H24.558C37.1733 63 46.7284 43.7157 48.7393 31.2617L48.9014 30.2617C51.7176 12.8205 66.7733 6.78387e-05 84.4404 0H276.561Z"/>
</mask>
<path d="M276.561 0C294.228 9.96399e-06 309.285 12.821 312.101 30.2627L312.262 31.2627C314.272 43.7164 323.827 63 336.442 63H1412C1440.72 63 1464 86.2812 1464 115V1763C1464 1791.72 1440.72 1815 1412 1815H14C-14.7188 1815 -38 1791.72 -38 1763V90.9283C-38 75.5039 -25.4961 63 -10.0718 63H24.558C37.1733 63 46.7284 43.7157 48.7393 31.2617L48.9014 30.2617C51.7176 12.8205 66.7733 6.78387e-05 84.4404 0H276.561Z" fill="white"/>
<path d="M276.561 0V-2V-2V0ZM312.101 30.2627L314.075 29.9445L314.075 29.9439L312.101 30.2627ZM312.262 31.2627L310.287 31.5809L310.287 31.5814L312.262 31.2627ZM48.7393 31.2617L46.765 30.9417L46.7648 30.9429L48.7393 31.2617ZM48.9014 30.2617L50.8756 30.5818L50.8758 30.5805L48.9014 30.2617ZM84.4404 0V-2H84.4404L84.4404 0ZM276.561 0V2C293.246 2.00001 307.467 14.1088 310.126 30.5815L312.101 30.2627L314.075 29.9439C311.103 11.5333 295.21 -1.99999 276.561 -2V0ZM312.101 30.2627L310.126 30.5809L310.287 31.5809L312.262 31.2627L314.236 30.9445L314.075 29.9445L312.101 30.2627ZM336.442 63V65H1412V63V61H336.442V63ZM1464 115H1462V1763H1464H1466V115H1464ZM1412 1815V1813H14V1815V1817H1412V1815ZM-38 1763H-36V90.9283H-38H-40V1763H-38ZM-10.0718 63V65H24.558V63V61H-10.0718V63ZM48.7393 31.2617L50.7135 31.5818L50.8756 30.5818L48.9014 30.2617L46.9271 29.9417L46.765 30.9417L48.7393 31.2617ZM48.9014 30.2617L50.8758 30.5805C53.5355 14.1082 67.7549 2.00006 84.4404 2L84.4404 0L84.4404 -2C65.7918 -1.99993 49.8996 11.5328 46.9269 29.9429L48.9014 30.2617ZM84.4404 0V2H276.561V0V-2H84.4404V0ZM24.558 63V65C31.9146 65 37.9793 59.429 42.2936 52.9042C46.6721 46.2821 49.6645 38.0787 50.7137 31.5805L48.7393 31.2617L46.7648 30.9429C45.8032 36.8988 43.0126 44.5644 38.957 50.698C34.8371 56.9288 29.8167 61 24.558 61V63ZM-38 90.9283H-36C-36 76.6085 -24.3915 65 -10.0718 65V63V61C-26.6007 61 -40 74.3993 -40 90.9283H-38ZM14 1815V1813C-13.6142 1813 -36 1790.61 -36 1763H-38H-40C-40 1792.82 -15.8233 1817 14 1817V1815ZM1464 1763H1462C1462 1790.61 1439.61 1813 1412 1813V1815V1817C1441.82 1817 1466 1792.82 1466 1763H1464ZM1412 63V65C1439.61 65 1462 87.3858 1462 115H1464H1466C1466 85.1766 1441.82 61 1412 61V63ZM312.262 31.2627L310.287 31.5814C311.336 38.0795 314.328 46.2827 318.707 52.9045C323.021 59.4292 329.086 65 336.442 65V63V61C331.183 61 326.163 56.929 322.043 50.6984C317.988 44.565 315.198 36.8996 314.236 30.944L312.262 31.2627Z" fill="#150A3C" mask="url(#path-4-inside-2_1212_4858)"/>
<path d="M107.84 28.08H99.2V33.024H107.672V35.04H99.2V42H97.04V26.064H107.84V28.08ZM110.842 35.4V26.064H113.002V35.4C113.002 37 113.418 38.216 114.25 39.048C115.082 39.88 116.25 40.296 117.754 40.296C119.258 40.296 120.426 39.88 121.258 39.048C122.09 38.216 122.506 37 122.506 35.4V26.064H124.666V35.4C124.666 37.592 124.042 39.296 122.794 40.512C121.562 41.712 119.882 42.312 117.754 42.312C115.626 42.312 113.938 41.712 112.69 40.512C111.458 39.296 110.842 37.592 110.842 35.4ZM130.794 26.064V39.984H139.434V42H128.634V26.064H130.794ZM144.364 26.064V39.984H153.004V42H142.204V26.064H144.364Z" fill="#150A3C"/>
<mask id="path-7-inside-3_1212_4858" fill="white">
<path d="M647.857 0C663.896 1.35843e-05 678 10.611 682.446 26.0215L682.735 27.0215C686.672 40.6677 698.017 63 712.22 63H1371C1399.72 63 1423 86.2812 1423 115V1763C1423 1791.72 1399.72 1815 1371 1815H52C23.2812 1815 0 1791.72 0 1763V115C0 86.2812 23.2812 63 52 63H184.78C198.984 63 210.33 40.6662 214.268 27.0195L214.556 26.0195C219.002 10.6099 233.106 0.000129354 249.145 0H647.857Z"/>
</mask>
<path d="M647.857 0C663.896 1.35843e-05 678 10.611 682.446 26.0215L682.735 27.0215C686.672 40.6677 698.017 63 712.22 63H1371C1399.72 63 1423 86.2812 1423 115V1763C1423 1791.72 1399.72 1815 1371 1815H52C23.2812 1815 0 1791.72 0 1763V115C0 86.2812 23.2812 63 52 63H184.78C198.984 63 210.33 40.6662 214.268 27.0195L214.556 26.0195C219.002 10.6099 233.106 0.000129354 249.145 0H647.857Z" fill="white"/>
<path d="M647.857 0V-2V-2V0ZM682.446 26.0215L680.525 26.5759L680.525 26.5769L682.446 26.0215ZM682.735 27.0215L684.657 26.4671L684.657 26.4661L682.735 27.0215ZM214.268 27.0195L216.189 27.574L216.189 27.5732L214.268 27.0195ZM214.556 26.0195L212.634 25.4651L212.634 25.4659L214.556 26.0195ZM249.145 0V-2H249.145L249.145 0ZM647.857 0V2C663.005 2.00001 676.326 12.0215 680.525 26.5759L682.446 26.0215L684.368 25.4671C679.675 9.20054 664.788 -1.99999 647.857 -2V0ZM682.446 26.0215L680.525 26.5769L680.814 27.5769L682.735 27.0215L684.657 26.4661L684.368 25.4661L682.446 26.0215ZM712.22 63V65H1371V63V61H712.22V63ZM1423 115H1421V1763H1423H1425V115H1423ZM1371 1815V1813H52V1815V1817H1371V1815ZM0 1763H2V115H0H-2V1763H0ZM52 63V65H184.78V63V61H52V63ZM214.268 27.0195L216.189 27.5732L216.478 26.5732L214.556 26.0195L212.634 25.4659L212.346 26.4659L214.268 27.0195ZM214.556 26.0195L216.477 26.574C220.677 12.0205 233.997 2.00012 249.145 2L249.145 0L249.145 -2C232.215 -1.99986 217.327 9.1993 212.634 25.4651L214.556 26.0195ZM249.145 0V2H647.857V0V-2H249.145V0ZM184.78 63V65C192.932 65 199.842 58.6571 205.012 51.2745C210.266 43.7706 214.172 34.5653 216.189 27.574L214.268 27.0195L212.346 26.4651C210.426 33.1204 206.689 41.9054 201.735 48.9801C196.696 56.176 190.832 61 184.78 61V63ZM0 115H2C2 87.3858 24.3858 65 52 65V63V61C22.1766 61 -2 85.1766 -2 115H0ZM52 1815V1813C24.3858 1813 2 1790.61 2 1763H0H-2C-2 1792.82 22.1767 1817 52 1817V1815ZM1423 1763H1421C1421 1790.61 1398.61 1813 1371 1813V1815V1817C1400.82 1817 1425 1792.82 1425 1763H1423ZM1371 63V65C1398.61 65 1421 87.3858 1421 115H1423H1425C1425 85.1766 1400.82 61 1371 61V63ZM682.735 27.0215L680.814 27.5758C682.831 34.567 686.736 43.7718 691.99 51.2752C697.159 58.6574 704.068 65 712.22 65V63V61C706.169 61 700.305 56.1764 695.266 48.9809C690.313 41.9066 686.577 33.1222 684.657 26.4671L682.735 27.0215Z" fill="#150A3C" mask="url(#path-7-inside-3_1212_4858)"/>
<path d="M267.488 27.312C268.416 28.128 268.88 29.272 268.88 30.744C268.88 32.216 268.416 33.368 267.488 34.2C266.56 35.016 265.328 35.424 263.792 35.424H258.2V42H256.04V26.064H263.792C265.328 26.064 266.56 26.48 267.488 27.312ZM265.904 32.712C266.448 32.248 266.72 31.592 266.72 30.744C266.72 29.896 266.448 29.24 265.904 28.776C265.376 28.312 264.672 28.08 263.792 28.08H258.2V33.408H263.792C264.672 33.408 265.376 33.176 265.904 32.712ZM282.684 28.08H274.044V33.024H282.516V35.04H274.044V39.984H282.684V42H271.884V26.064H282.684V28.08ZM299.114 30.744C299.114 32.136 298.698 33.24 297.866 34.056C297.034 34.872 295.922 35.328 294.53 35.424L299.546 42H296.858L291.842 35.424H288.434V42H286.274V26.064H294.026C295.562 26.064 296.794 26.48 297.722 27.312C298.65 28.128 299.114 29.272 299.114 30.744ZM296.138 32.712C296.682 32.248 296.954 31.592 296.954 30.744C296.954 29.896 296.682 29.24 296.138 28.776C295.61 28.312 294.906 28.08 294.026 28.08H288.434V33.408H294.026C294.906 33.408 295.61 33.176 296.138 32.712ZM312.988 28.08H304.348V33.024H312.82V35.04H304.348V42H302.188V26.064H312.988V28.08ZM317.502 28.128C319.07 26.544 321.014 25.752 323.334 25.752C325.654 25.752 327.598 26.544 329.166 28.128C330.734 29.712 331.518 31.68 331.518 34.032C331.518 36.384 330.734 38.352 329.166 39.936C327.598 41.52 325.654 42.312 323.334 42.312C321.014 42.312 319.07 41.52 317.502 39.936C315.934 38.352 315.15 36.384 315.15 34.032C315.15 31.68 315.934 29.712 317.502 28.128ZM327.63 29.568C326.478 28.368 325.046 27.768 323.334 27.768C321.622 27.768 320.19 28.368 319.038 29.568C317.886 30.752 317.31 32.24 317.31 34.032C317.31 35.824 317.886 37.32 319.038 38.52C320.19 39.704 321.622 40.296 323.334 40.296C325.046 40.296 326.478 39.704 327.63 38.52C328.782 37.32 329.358 35.824 329.358 34.032C329.358 32.24 328.782 30.752 327.63 29.568ZM347.489 30.744C347.489 32.136 347.073 33.24 346.241 34.056C345.409 34.872 344.297 35.328 342.905 35.424L347.921 42H345.233L340.217 35.424H336.809V42H334.649V26.064H342.401C343.937 26.064 345.169 26.48 346.097 27.312C347.025 28.128 347.489 29.272 347.489 30.744ZM344.513 32.712C345.057 32.248 345.329 31.592 345.329 30.744C345.329 29.896 345.057 29.24 344.513 28.776C343.985 28.312 343.281 28.08 342.401 28.08H336.809V33.408H342.401C343.281 33.408 343.985 33.176 344.513 32.712ZM366.739 26.064H369.427V42H367.267V29.616L361.219 42H358.771L352.723 29.616V42H350.563V26.064H353.299L360.019 39.84L366.739 26.064ZM375.309 38.304L373.701 42H371.469L378.477 26.064H380.829L387.813 42H385.509L383.901 38.304H375.309ZM383.037 36.312L379.605 28.416L376.173 36.312H383.037ZM401.989 26.064H404.149V42H401.725L392.005 29.136V42H389.845V26.064H392.269L401.989 38.928V26.064ZM415.444 27.768C413.732 27.768 412.3 28.368 411.148 29.568C409.996 30.752 409.42 32.24 409.42 34.032C409.42 35.824 409.996 37.32 411.148 38.52C412.3 39.704 413.732 40.296 415.444 40.296C417.348 40.296 418.844 39.544 419.932 38.04H422.38C421.724 39.368 420.796 40.416 419.596 41.184C418.412 41.936 417.028 42.312 415.444 42.312C413.124 42.312 411.18 41.52 409.612 39.936C408.044 38.352 407.26 36.384 407.26 34.032C407.26 31.68 408.044 29.712 409.612 28.128C411.18 26.544 413.124 25.752 415.444 25.752C417.028 25.752 418.412 26.136 419.596 26.904C420.796 27.656 421.724 28.696 422.38 30.024H419.932C418.844 28.52 417.348 27.768 415.444 27.768ZM436.176 28.08H427.536V33.024H436.008V35.04H427.536V39.984H436.176V42H425.376V26.064H436.176V28.08ZM461.474 26.064H464.162V42H462.002V29.616L455.954 42H453.506L447.458 29.616V42H445.298V26.064H448.034L454.754 39.84L461.474 26.064ZM470.043 38.304L468.435 42H466.203L473.211 26.064H475.563L482.547 42H480.243L478.635 38.304H470.043ZM477.771 36.312L474.339 28.416L470.907 36.312H477.771ZM497.419 30.744C497.419 32.136 497.003 33.24 496.171 34.056C495.339 34.872 494.227 35.328 492.835 35.424L497.851 42H495.163L490.147 35.424H486.739V42H484.579V26.064H492.331C493.867 26.064 495.099 26.48 496.027 27.312C496.955 28.128 497.419 29.272 497.419 30.744ZM494.443 32.712C494.987 32.248 495.259 31.592 495.259 30.744C495.259 29.896 494.987 29.24 494.443 28.776C493.915 28.312 493.211 28.08 492.331 28.08H486.739V33.408H492.331C493.211 33.408 493.915 33.176 494.443 32.712ZM504.501 34.032L513.021 42H510.141L502.653 35.112V42H500.493V26.064H502.653V32.952L510.141 26.064H513.021L504.501 34.032ZM525.988 28.08H517.348V33.024H525.82V35.04H517.348V39.984H525.988V42H515.188V26.064H525.988V28.08ZM528.139 26.064H541.339V28.08H535.819V42H533.659V28.08H528.139V26.064ZM546.13 26.064V42H543.97V26.064H546.13ZM562.348 26.064H564.508V42H562.084L552.364 29.136V42H550.204V26.064H552.628L562.348 38.928V26.064ZM575.803 27.768C574.091 27.768 572.659 28.368 571.507 29.568C570.355 30.752 569.779 32.24 569.779 34.032C569.779 35.84 570.347 37.336 571.483 38.52C572.635 39.704 574.083 40.296 575.827 40.296C577.235 40.296 578.411 39.88 579.355 39.048C580.315 38.216 580.939 37.112 581.227 35.736H575.491V33.72H583.531C583.531 36.264 582.795 38.336 581.323 39.936C579.851 41.52 578.043 42.312 575.899 42.312C573.563 42.312 571.595 41.52 569.995 39.936C568.411 38.352 567.619 36.384 567.619 34.032C567.619 31.68 568.403 29.712 569.971 28.128C571.539 26.544 573.483 25.752 575.803 25.752C577.355 25.752 578.747 26.144 579.979 26.928C581.227 27.696 582.187 28.728 582.859 30.024H580.387C579.891 29.336 579.243 28.792 578.443 28.392C577.659 27.976 576.779 27.768 575.803 27.768Z" fill="#150A3C"/>
<mask id="path-10-inside-4_1212_4858" fill="white">
<path d="M918.224 0C935.484 0 950.316 12.2513 953.576 29.2012L953.769 30.2002C956.225 42.9742 966.207 63 979.215 63H1231C1259.72 63 1283 86.2812 1283 115V1763C1283 1791.72 1259.72 1815 1231 1815H-105C-133.719 1815 -157 1791.72 -157 1763V115C-157 86.2812 -133.719 63 -105 63H614.785C627.794 63 637.776 42.9735 640.233 30.1992L640.426 29.1992C643.686 12.2501 658.517 5.08549e-05 675.777 0H918.224Z"/>
</mask>
<path d="M918.224 0C935.484 0 950.316 12.2513 953.576 29.2012L953.769 30.2002C956.225 42.9742 966.207 63 979.215 63H1231C1259.72 63 1283 86.2812 1283 115V1763C1283 1791.72 1259.72 1815 1231 1815H-105C-133.719 1815 -157 1791.72 -157 1763V115C-157 86.2812 -133.719 63 -105 63H614.785C627.794 63 637.776 42.9735 640.233 30.1992L640.426 29.1992C643.686 12.2501 658.517 5.08549e-05 675.777 0H918.224Z" fill="white"/>
<path d="M953.576 29.2012L951.612 29.5789L951.612 29.5794L953.576 29.2012ZM953.769 30.2002L955.733 29.8225L955.732 29.822L953.769 30.2002ZM640.233 30.1992L638.269 29.8214V29.8214L640.233 30.1992ZM640.426 29.1992L642.39 29.5771V29.577L640.426 29.1992ZM675.777 0V-2V-2V0ZM918.224 0V2C934.525 2 948.533 13.5707 951.612 29.5789L953.576 29.2012L955.54 28.8234C952.099 10.9319 936.443 -2 918.224 -2V0ZM953.576 29.2012L951.612 29.5794L951.805 30.5784L953.769 30.2002L955.732 29.822L955.54 28.823L953.576 29.2012ZM979.215 63V65H1231V63V61H979.215V63ZM1283 115H1281V1763H1283H1285V115H1283ZM1231 1815V1813H-105V1815V1817H1231V1815ZM-157 1763H-155V115H-157H-159V1763H-157ZM-105 63V65H614.786V63V61H-105V63ZM640.233 30.1992L642.197 30.5771L642.39 29.5771L640.426 29.1992L638.462 28.8214L638.269 29.8214L640.233 30.1992ZM640.426 29.1992L642.39 29.577C645.469 13.5695 659.476 2.00005 675.777 2V0V-2C657.559 -1.99995 641.904 10.9307 638.462 28.8214L640.426 29.1992ZM675.777 0V2H918.224V0V-2H675.777V0ZM614.786 63V65C622.339 65 628.609 59.2407 633.127 52.504C637.715 45.6638 640.921 37.2101 642.197 30.577L640.233 30.1992L638.269 29.8214C637.088 35.9626 634.075 43.9093 629.805 50.2759C625.466 56.746 620.24 61 614.786 61V63ZM-157 115H-155C-155 87.3858 -132.614 65 -105 65V63V61C-134.823 61 -159 85.1766 -159 115H-157ZM-105 1815V1813C-132.614 1813 -155 1790.61 -155 1763H-157H-159C-159 1792.82 -134.823 1817 -105 1817V1815ZM1283 1763H1281C1281 1790.61 1258.61 1813 1231 1813V1815V1817C1260.82 1817 1285 1792.82 1285 1763H1283ZM1231 63V65C1258.61 65 1281 87.3858 1281 115H1283H1285C1285 85.1766 1260.82 61 1231 61V63ZM953.769 30.2002L951.805 30.5779C953.08 37.2109 956.287 45.6644 960.874 52.5044C965.392 59.2409 971.662 65 979.215 65V63V61C973.761 61 968.535 56.7462 964.196 50.2764C959.927 43.91 956.914 35.9635 955.733 29.8225L953.769 30.2002Z" fill="#150A3C" mask="url(#path-10-inside-4_1212_4858)"/>
<path d="M688.84 38.304L687.232 42H685L692.008 26.064H694.36L701.344 42H699.04L697.432 38.304H688.84ZM696.568 36.312L693.136 28.416L689.704 36.312H696.568ZM703.256 35.4V26.064H705.416V35.4C705.416 37 705.832 38.216 706.664 39.048C707.496 39.88 708.664 40.296 710.168 40.296C711.672 40.296 712.84 39.88 713.672 39.048C714.504 38.216 714.92 37 714.92 35.4V26.064H717.08V35.4C717.08 37.592 716.456 39.296 715.208 40.512C713.976 41.712 712.296 42.312 710.168 42.312C708.04 42.312 706.352 41.712 705.104 40.512C703.872 39.296 703.256 37.592 703.256 35.4ZM721.048 26.064H726.4C729.088 26.064 731.216 26.832 732.784 28.368C734.352 29.888 735.136 31.776 735.136 34.032C735.136 36.288 734.352 38.184 732.784 39.72C731.216 41.24 729.088 42 726.4 42H721.048V26.064ZM731.248 38.352C732.4 37.264 732.976 35.824 732.976 34.032C732.976 32.24 732.4 30.8 731.248 29.712C730.096 28.624 728.528 28.08 726.544 28.08H723.208V39.984H726.544C728.528 39.984 730.096 39.44 731.248 38.352ZM740.411 26.064V42H738.251V26.064H740.411ZM743.045 26.064H756.245V28.08H750.725V42H748.565V28.08H743.045V26.064Z" fill="#150A3C"/>
<path d="M850.945 0C836.703 0 824.37 9.8877 821.272 23.7891C819.333 32.4941 805.685 58.7734 796.767 58.7734H1C0.447715 58.7734 0 59.2212 0 59.7734V1795C0 1811.57 13.4315 1825 30 1825H1396C1412.57 1825 1426 1811.57 1426 1795V59.7734C1426 59.2212 1425.55 58.7734 1425 58.7734H1147.6C1138.68 58.7734 1125.03 32.4947 1123.1 23.79C1120 9.88837 1107.67 0.000124869 1093.42 0H850.945Z" fill="url(#paint0_linear_1212_4858)"/>
<path d="M874.864 43.736H879.004C880.156 45.8 882.304 46.832 885.448 46.832C887.128 46.832 888.484 46.508 889.516 45.86C890.572 45.212 891.1 44.36 891.1 43.304C891.1 42.296 890.728 41.54 889.984 41.036C889.264 40.508 888.112 40.16 886.528 39.992L882.388 39.56C880.06 39.344 878.332 38.648 877.204 37.472C876.076 36.296 875.512 34.796 875.512 32.972C875.512 30.788 876.352 29.024 878.032 27.68C879.736 26.312 882.016 25.628 884.872 25.628C887.584 25.628 889.84 26.3 891.64 27.644C893.44 28.964 894.628 30.548 895.204 32.396H891.028C890.596 31.46 889.804 30.704 888.652 30.128C887.5 29.552 886.216 29.264 884.8 29.264C883.144 29.264 881.836 29.612 880.876 30.308C879.94 30.98 879.472 31.82 879.472 32.828C879.472 34.676 880.792 35.732 883.432 35.996L887.86 36.464C890.092 36.704 891.844 37.424 893.116 38.624C894.412 39.8 895.06 41.3 895.06 43.124C895.06 45.14 894.208 46.868 892.504 48.308C890.824 49.748 888.472 50.468 885.448 50.468C882.52 50.468 880.18 49.844 878.428 48.596C876.7 47.324 875.512 45.704 874.864 43.736ZM897.259 26.096H917.275V29.732H909.247V50H905.287V29.732H897.259V26.096ZM940.693 33.296C940.693 35.144 940.153 36.728 939.073 38.048C937.993 39.344 936.385 40.124 934.249 40.388L941.593 50H936.661L929.425 40.496H924.997V50H921.037V26.096H932.557C935.221 26.096 937.237 26.78 938.605 28.148C939.997 29.492 940.693 31.208 940.693 33.296ZM935.581 35.96C936.349 35.336 936.733 34.448 936.733 33.296C936.733 32.144 936.349 31.268 935.581 30.668C934.837 30.044 933.781 29.732 932.413 29.732H924.997V36.86H932.413C933.781 36.86 934.837 36.56 935.581 35.96ZM948.964 44.6L946.588 50H942.52L952.96 26.096H957.028L967.468 50H963.256L960.88 44.6H948.964ZM959.296 40.964L954.94 30.992L950.548 40.964H959.296ZM966.622 26.096H986.638V29.732H978.61V50H974.65V29.732H966.622V26.096ZM1006.89 29.732H994.36V36.212H1006.64V39.848H994.36V46.364H1006.89V50H990.4V26.096H1006.89V29.732ZM1022.79 29.264C1020.39 29.264 1018.4 30.104 1016.81 31.784C1015.23 33.44 1014.44 35.528 1014.44 38.048C1014.44 40.568 1015.23 42.668 1016.81 44.348C1018.4 46.004 1020.39 46.832 1022.79 46.832C1024.71 46.832 1026.29 46.304 1027.54 45.248C1028.81 44.192 1029.67 42.752 1030.1 40.928H1021.89V37.292H1034.35C1034.35 41.204 1033.25 44.384 1031.07 46.832C1028.89 49.256 1026.15 50.468 1022.86 50.468C1019.33 50.468 1016.38 49.292 1014.01 46.94C1011.65 44.564 1010.48 41.6 1010.48 38.048C1010.48 34.496 1011.65 31.544 1014.01 29.192C1016.36 26.816 1019.29 25.628 1022.79 25.628C1025.24 25.628 1027.39 26.24 1029.23 27.464C1031.11 28.688 1032.53 30.332 1033.52 32.396H1029.13C1027.57 30.308 1025.45 29.264 1022.79 29.264ZM1046 37.472L1052.8 26.096H1057.09L1047.94 41.36V50H1043.98V41.36L1034.8 26.096H1039.16L1046 37.472Z" fill="white"/>
</g>
<defs>
<linearGradient id="paint0_linear_1212_4858" x1="713" y1="0" x2="713" y2="1825" gradientUnits="userSpaceOnUse">
<stop stop-color="#130839"/>
<stop offset="0.360577" stop-color="#282251"/>
<stop offset="0.764423" stop-color="#793971"/>
<stop offset="1" stop-color="#CC7897"/>
</linearGradient>
<clipPath id="clip0_1212_4858">
<rect width="1424" height="59" fill="white"/>
</clipPath>
</defs>
</svg>
