<svg width="1424" height="59" viewBox="0 0 1424 59" fill="none" xmlns="http://www.w3.org/2000/svg">
<g clip-path="url(#clip0_1212_4772)">
<mask id="path-1-inside-1_1212_4772" fill="white">
<path d="M1345.22 0C1362.48 0 1377.32 12.2513 1380.58 29.2012L1380.77 30.2012C1383.23 42.9749 1393.21 63 1406.21 63H1412.88C1422.33 63 1430 70.6651 1430 80.1205V1763C1430 1791.72 1406.72 1815 1378 1815H59C30.2812 1815 7 1791.72 7 1763V115C7 86.2812 30.2812 63 59 63H1041.79C1054.79 63 1064.78 42.9734 1067.23 30.1992L1067.43 29.1992C1070.69 12.2501 1085.52 4.94698e-05 1102.78 0H1345.22Z"/>
</mask>
<path d="M1345.22 0C1362.48 0 1377.32 12.2513 1380.58 29.2012L1380.77 30.2012C1383.23 42.9749 1393.21 63 1406.21 63H1412.88C1422.33 63 1430 70.6651 1430 80.1205V1763C1430 1791.72 1406.72 1815 1378 1815H59C30.2812 1815 7 1791.72 7 1763V115C7 86.2812 30.2812 63 59 63H1041.79C1054.79 63 1064.78 42.9734 1067.23 30.1992L1067.43 29.1992C1070.69 12.2501 1085.52 4.94698e-05 1102.78 0H1345.22Z" fill="white"/>
<path d="M1380.58 29.2012L1378.61 29.5789V29.579L1380.58 29.2012ZM1380.77 30.2012L1382.73 29.8235V29.8233L1380.77 30.2012ZM1067.23 30.1992L1065.27 29.8214V29.8214L1067.23 30.1992ZM1067.43 29.1992L1069.39 29.5771V29.577L1067.43 29.1992ZM1102.78 0V-2V-2V0ZM1345.22 0V2C1361.53 2 1375.53 13.5707 1378.61 29.5789L1380.58 29.2012L1382.54 28.8234C1379.1 10.9319 1363.44 -2 1345.22 -2V0ZM1380.58 29.2012L1378.61 29.579L1378.8 30.579L1380.77 30.2012L1382.73 29.8233L1382.54 28.8233L1380.58 29.2012ZM1406.21 63V65H1412.88V63V61H1406.21V63ZM1430 80.1205H1428V1763H1430H1432V80.1205H1430ZM1378 1815V1813H59V1815V1817H1378V1815ZM7 1763H9V115H7H5V1763H7ZM59 63V65H1041.79V63V61H59V63ZM1067.23 30.1992L1069.2 30.5771L1069.39 29.5771L1067.43 29.1992L1065.46 28.8214L1065.27 29.8214L1067.23 30.1992ZM1067.43 29.1992L1069.39 29.577C1072.47 13.5695 1086.48 2.00005 1102.78 2V0V-2C1084.56 -1.99995 1068.9 10.9307 1065.46 28.8214L1067.43 29.1992ZM1102.78 0V2H1345.22V0V-2H1102.78V0ZM1041.79 63V65C1049.34 65 1055.61 59.2407 1060.13 52.504C1064.71 45.6638 1067.92 37.2101 1069.2 30.577L1067.23 30.1992L1065.27 29.8214C1064.09 35.9626 1061.08 43.9093 1056.81 50.2759C1052.47 56.746 1047.24 61 1041.79 61V63ZM7 115H9C9 87.3858 31.3858 65 59 65V63V61C29.1766 61 5 85.1766 5 115H7ZM59 1815V1813C31.3858 1813 9 1790.61 9 1763H7H5C5 1792.82 29.1767 1817 59 1817V1815ZM1430 1763H1428C1428 1790.61 1405.61 1813 1378 1813V1815V1817C1407.82 1817 1432 1792.82 1432 1763H1430ZM1412.88 63V65C1421.23 65 1428 71.7697 1428 80.1205H1430H1432C1432 69.5605 1423.44 61 1412.88 61V63ZM1380.77 30.2012L1378.8 30.5789C1380.08 37.2117 1383.29 45.665 1387.87 52.5047C1392.39 59.2411 1398.66 65 1406.21 65V63V61C1400.76 61 1395.53 56.7464 1391.2 50.2767C1386.93 43.9105 1383.91 35.9643 1382.73 29.8235L1380.77 30.2012Z" fill="#150A3C" mask="url(#path-1-inside-1_1212_4772)"/>
<path d="M1190.26 27.768C1188.55 27.768 1187.12 28.368 1185.97 29.568C1184.82 30.752 1184.24 32.24 1184.24 34.032C1184.24 35.824 1184.82 37.32 1185.97 38.52C1187.12 39.704 1188.55 40.296 1190.26 40.296C1192.17 40.296 1193.66 39.544 1194.75 38.04H1197.2C1196.54 39.368 1195.62 40.416 1194.42 41.184C1193.23 41.936 1191.85 42.312 1190.26 42.312C1187.94 42.312 1186 41.52 1184.43 39.936C1182.86 38.352 1182.08 36.384 1182.08 34.032C1182.08 31.68 1182.86 29.712 1184.43 28.128C1186 26.544 1187.94 25.752 1190.26 25.752C1191.85 25.752 1193.23 26.136 1194.42 26.904C1195.62 27.656 1196.54 28.696 1197.2 30.024H1194.75C1193.66 28.52 1192.17 27.768 1190.26 27.768ZM1201.59 28.128C1203.16 26.544 1205.1 25.752 1207.42 25.752C1209.74 25.752 1211.68 26.544 1213.25 28.128C1214.82 29.712 1215.6 31.68 1215.6 34.032C1215.6 36.384 1214.82 38.352 1213.25 39.936C1211.68 41.52 1209.74 42.312 1207.42 42.312C1205.1 42.312 1203.16 41.52 1201.59 39.936C1200.02 38.352 1199.24 36.384 1199.24 34.032C1199.24 31.68 1200.02 29.712 1201.59 28.128ZM1211.72 29.568C1210.56 28.368 1209.13 27.768 1207.42 27.768C1205.71 27.768 1204.28 28.368 1203.12 29.568C1201.97 30.752 1201.4 32.24 1201.4 34.032C1201.4 35.824 1201.97 37.32 1203.12 38.52C1204.28 39.704 1205.71 40.296 1207.42 40.296C1209.13 40.296 1210.56 39.704 1211.72 38.52C1212.87 37.32 1213.44 35.824 1213.44 34.032C1213.44 32.24 1212.87 30.752 1211.72 29.568ZM1230.88 26.064H1233.04V42H1230.62L1220.9 29.136V42H1218.74V26.064H1221.16L1230.88 38.928V26.064ZM1235.67 38.04H1238.02C1238.41 38.728 1239 39.28 1239.8 39.696C1240.61 40.096 1241.54 40.296 1242.58 40.296C1243.78 40.296 1244.77 40.048 1245.56 39.552C1246.34 39.04 1246.73 38.4 1246.73 37.632C1246.73 36.88 1246.46 36.304 1245.92 35.904C1245.37 35.504 1244.52 35.24 1243.35 35.112L1240.57 34.824C1239.05 34.68 1237.92 34.224 1237.18 33.456C1236.46 32.688 1236.1 31.712 1236.1 30.528C1236.1 29.104 1236.65 27.952 1237.76 27.072C1238.88 26.192 1240.37 25.752 1242.25 25.752C1244.04 25.752 1245.49 26.176 1246.61 27.024C1247.75 27.872 1248.53 28.872 1248.97 30.024H1246.61C1246.29 29.352 1245.73 28.808 1244.93 28.392C1244.13 27.976 1243.21 27.768 1242.17 27.768C1240.97 27.768 1240.02 28.024 1239.32 28.536C1238.61 29.048 1238.26 29.68 1238.26 30.432C1238.26 31.856 1239.25 32.664 1241.21 32.856L1244.21 33.168C1245.69 33.328 1246.83 33.792 1247.65 34.56C1248.48 35.328 1248.89 36.312 1248.89 37.512C1248.89 38.792 1248.33 39.912 1247.21 40.872C1246.09 41.832 1244.55 42.312 1242.58 42.312C1240.66 42.312 1239.13 41.904 1238 41.088C1236.86 40.256 1236.09 39.24 1235.67 38.04ZM1251.73 35.4V26.064H1253.89V35.4C1253.89 37 1254.31 38.216 1255.14 39.048C1255.97 39.88 1257.14 40.296 1258.64 40.296C1260.15 40.296 1261.32 39.88 1262.15 39.048C1262.98 38.216 1263.4 37 1263.4 35.4V26.064H1265.56V35.4C1265.56 37.592 1264.93 39.296 1263.68 40.512C1262.45 41.712 1260.77 42.312 1258.64 42.312C1256.52 42.312 1254.83 41.712 1253.58 40.512C1252.35 39.296 1251.73 37.592 1251.73 35.4ZM1271.68 26.064V39.984H1280.32V42H1269.52V26.064H1271.68ZM1278.77 26.064H1291.97V28.08H1286.45V42H1284.29V28.08H1278.77V26.064ZM1296.76 26.064V42H1294.6V26.064H1296.76ZM1312.98 26.064H1315.14V42H1312.72L1303 29.136V42H1300.84V26.064H1303.26L1312.98 38.928V26.064ZM1326.44 27.768C1324.72 27.768 1323.29 28.368 1322.14 29.568C1320.99 30.752 1320.41 32.24 1320.41 34.032C1320.41 35.84 1320.98 37.336 1322.12 38.52C1323.27 39.704 1324.72 40.296 1326.46 40.296C1327.87 40.296 1329.04 39.88 1329.99 39.048C1330.95 38.216 1331.57 37.112 1331.86 35.736H1326.12V33.72H1334.16C1334.16 36.264 1333.43 38.336 1331.96 39.936C1330.48 41.52 1328.68 42.312 1326.53 42.312C1324.2 42.312 1322.23 41.52 1320.63 39.936C1319.04 38.352 1318.25 36.384 1318.25 34.032C1318.25 31.68 1319.04 29.712 1320.6 28.128C1322.17 26.544 1324.12 25.752 1326.44 25.752C1327.99 25.752 1329.38 26.144 1330.61 26.928C1331.86 27.696 1332.82 28.728 1333.49 30.024H1331.02C1330.52 29.336 1329.88 28.792 1329.08 28.392C1328.29 27.976 1327.41 27.768 1326.44 27.768Z" fill="#150A3C"/>
<mask id="path-4-inside-2_1212_4772" fill="white">
<path d="M1090.22 0C1107.48 0 1122.32 12.2513 1125.58 29.2012L1125.77 30.2002C1128.23 42.9742 1138.21 63 1151.22 63H1378C1406.72 63 1430 86.2812 1430 115V1763C1430 1791.72 1406.72 1815 1378 1815H42C13.2812 1815 -10 1791.72 -10 1763V115C-10 86.2812 13.2812 63 42 63H786.786C799.794 63 809.776 42.9735 812.233 30.1992L812.426 29.1992C815.686 12.2501 830.517 5.08549e-05 847.777 0H1090.22Z"/>
</mask>
<path d="M1090.22 0C1107.48 0 1122.32 12.2513 1125.58 29.2012L1125.77 30.2002C1128.23 42.9742 1138.21 63 1151.22 63H1378C1406.72 63 1430 86.2812 1430 115V1763C1430 1791.72 1406.72 1815 1378 1815H42C13.2812 1815 -10 1791.72 -10 1763V115C-10 86.2812 13.2812 63 42 63H786.786C799.794 63 809.776 42.9735 812.233 30.1992L812.426 29.1992C815.686 12.2501 830.517 5.08549e-05 847.777 0H1090.22Z" fill="white"/>
<path d="M1125.58 29.2012L1123.61 29.5789L1123.61 29.5794L1125.58 29.2012ZM1125.77 30.2002L1127.73 29.8225L1127.73 29.822L1125.77 30.2002ZM812.233 30.1992L810.269 29.8214V29.8214L812.233 30.1992ZM812.426 29.1992L814.39 29.5771V29.577L812.426 29.1992ZM847.777 0V-2V-2V0ZM1090.22 0V2C1106.53 2 1120.53 13.5707 1123.61 29.5789L1125.58 29.2012L1127.54 28.8234C1124.1 10.9319 1108.44 -2 1090.22 -2V0ZM1125.58 29.2012L1123.61 29.5794L1123.8 30.5784L1125.77 30.2002L1127.73 29.822L1127.54 28.823L1125.58 29.2012ZM1151.22 63V65H1378V63V61H1151.22V63ZM1430 115H1428V1763H1430H1432V115H1430ZM1378 1815V1813H42V1815V1817H1378V1815ZM-10 1763H-8V115H-10H-12V1763H-10ZM42 63V65H786.786V63V61H42V63ZM812.233 30.1992L814.197 30.5771L814.39 29.5771L812.426 29.1992L810.462 28.8214L810.269 29.8214L812.233 30.1992ZM812.426 29.1992L814.39 29.577C817.469 13.5695 831.476 2.00005 847.777 2V0V-2C829.559 -1.99995 813.904 10.9307 810.462 28.8214L812.426 29.1992ZM847.777 0V2H1090.22V0V-2H847.777V0ZM786.786 63V65C794.339 65 800.609 59.2407 805.127 52.504C809.715 45.6638 812.921 37.2101 814.197 30.577L812.233 30.1992L810.269 29.8214C809.088 35.9626 806.075 43.9093 801.805 50.2759C797.466 56.746 792.24 61 786.786 61V63ZM-10 115H-8C-8 87.3858 14.3858 65 42 65V63V61C12.1766 61 -12 85.1766 -12 115H-10ZM42 1815V1813C14.3858 1813 -8 1790.61 -8 1763H-10H-12C-12 1792.82 12.1766 1817 42 1817V1815ZM1430 1763H1428C1428 1790.61 1405.61 1813 1378 1813V1815V1817C1407.82 1817 1432 1792.82 1432 1763H1430ZM1378 63V65C1405.61 65 1428 87.3858 1428 115H1430H1432C1432 85.1766 1407.82 61 1378 61V63ZM1125.77 30.2002L1123.8 30.5779C1125.08 37.2109 1128.29 45.6644 1132.87 52.5044C1137.39 59.2409 1143.66 65 1151.22 65V63V61C1145.76 61 1140.54 56.7462 1136.2 50.2764C1131.93 43.91 1128.91 35.9635 1127.73 29.8225L1125.77 30.2002Z" fill="#150A3C" mask="url(#path-4-inside-2_1212_4772)"/>
<path d="M961.6 38.04H963.952C964.336 38.728 964.928 39.28 965.728 39.696C966.544 40.096 967.472 40.296 968.512 40.296C969.712 40.296 970.704 40.048 971.488 39.552C972.272 39.04 972.664 38.4 972.664 37.632C972.664 36.88 972.392 36.304 971.848 35.904C971.304 35.504 970.448 35.24 969.28 35.112L966.496 34.824C964.976 34.68 963.848 34.224 963.112 33.456C962.392 32.688 962.032 31.712 962.032 30.528C962.032 29.104 962.584 27.952 963.688 27.072C964.808 26.192 966.304 25.752 968.176 25.752C969.968 25.752 971.424 26.176 972.544 27.024C973.68 27.872 974.464 28.872 974.896 30.024H972.544C972.224 29.352 971.664 28.808 970.864 28.392C970.064 27.976 969.144 27.768 968.104 27.768C966.904 27.768 965.952 28.024 965.248 28.536C964.544 29.048 964.192 29.68 964.192 30.432C964.192 31.856 965.176 32.664 967.144 32.856L970.144 33.168C971.616 33.328 972.76 33.792 973.576 34.56C974.408 35.328 974.824 36.312 974.824 37.512C974.824 38.792 974.264 39.912 973.144 40.872C972.024 41.832 970.48 42.312 968.512 42.312C966.592 42.312 965.064 41.904 963.928 41.088C962.792 40.256 962.016 39.24 961.6 38.04ZM976.342 26.064H989.542V28.08H984.022V42H981.862V28.08H976.342V26.064ZM1005.01 30.744C1005.01 32.136 1004.6 33.24 1003.76 34.056C1002.93 34.872 1001.82 35.328 1000.43 35.424L1005.44 42H1002.76L997.741 35.424H994.333V42H992.173V26.064H999.925C1001.46 26.064 1002.69 26.48 1003.62 27.312C1004.55 28.128 1005.01 29.272 1005.01 30.744ZM1002.04 32.712C1002.58 32.248 1002.85 31.592 1002.85 30.744C1002.85 29.896 1002.58 29.24 1002.04 28.776C1001.51 28.312 1000.8 28.08 999.925 28.08H994.333V33.408H999.925C1000.8 33.408 1001.51 33.176 1002.04 32.712ZM1009.89 38.304L1008.28 42H1006.05L1013.05 26.064H1015.41L1022.39 42H1020.09L1018.48 38.304H1009.89ZM1017.61 36.312L1014.18 28.416L1010.75 36.312H1017.61ZM1021.79 26.064H1034.99V28.08H1029.47V42H1027.31V28.08H1021.79V26.064ZM1048.42 28.08H1039.78V33.024H1048.25V35.04H1039.78V39.984H1048.42V42H1037.62V26.064H1048.42V28.08ZM1059.12 27.768C1057.4 27.768 1055.97 28.368 1054.82 29.568C1053.67 30.752 1053.09 32.24 1053.09 34.032C1053.09 35.84 1053.66 37.336 1054.8 38.52C1055.95 39.704 1057.4 40.296 1059.14 40.296C1060.55 40.296 1061.72 39.88 1062.67 39.048C1063.63 38.216 1064.25 37.112 1064.54 35.736H1058.8V33.72H1066.84C1066.84 36.264 1066.11 38.336 1064.64 39.936C1063.16 41.52 1061.36 42.312 1059.21 42.312C1056.88 42.312 1054.91 41.52 1053.31 39.936C1051.72 38.352 1050.93 36.384 1050.93 34.032C1050.93 31.68 1051.72 29.712 1053.28 28.128C1054.85 26.544 1056.8 25.752 1059.12 25.752C1060.67 25.752 1062.06 26.144 1063.29 26.928C1064.54 27.696 1065.5 28.728 1066.17 30.024H1063.7C1063.2 29.336 1062.56 28.792 1061.76 28.392C1060.97 27.976 1060.09 27.768 1059.12 27.768ZM1074.3 34.056L1079.05 26.064H1081.36L1075.36 36.072V42H1073.2V36.072L1067.2 26.064H1069.57L1074.3 34.056Z" fill="#150A3C"/>
<mask id="path-7-inside-3_1212_4772" fill="white">
<path d="M283.561 0C301.228 9.96399e-06 316.285 12.821 319.101 30.2627L319.262 31.2627C321.272 43.7164 330.827 63 343.442 63H1419C1447.72 63 1471 86.2812 1471 115V1763C1471 1791.72 1447.72 1815 1419 1815H21C-7.71878 1815 -31 1791.72 -31 1763V90.9283C-31 75.5039 -18.4961 63 -3.07175 63H31.558C44.1733 63 53.7284 43.7157 55.7393 31.2617L55.9014 30.2617C58.7176 12.8205 73.7733 6.78387e-05 91.4404 0H283.561Z"/>
</mask>
<path d="M283.561 0C301.228 9.96399e-06 316.285 12.821 319.101 30.2627L319.262 31.2627C321.272 43.7164 330.827 63 343.442 63H1419C1447.72 63 1471 86.2812 1471 115V1763C1471 1791.72 1447.72 1815 1419 1815H21C-7.71878 1815 -31 1791.72 -31 1763V90.9283C-31 75.5039 -18.4961 63 -3.07175 63H31.558C44.1733 63 53.7284 43.7157 55.7393 31.2617L55.9014 30.2617C58.7176 12.8205 73.7733 6.78387e-05 91.4404 0H283.561Z" fill="white"/>
<path d="M283.561 0V-2V-2V0ZM319.101 30.2627L321.075 29.9445L321.075 29.9439L319.101 30.2627ZM319.262 31.2627L317.287 31.5809L317.287 31.5814L319.262 31.2627ZM55.7393 31.2617L53.765 30.9417L53.7648 30.9429L55.7393 31.2617ZM55.9014 30.2617L57.8756 30.5818L57.8758 30.5805L55.9014 30.2617ZM91.4404 0V-2H91.4404L91.4404 0ZM283.561 0V2C300.246 2.00001 314.467 14.1088 317.126 30.5815L319.101 30.2627L321.075 29.9439C318.103 11.5333 302.21 -1.99999 283.561 -2V0ZM319.101 30.2627L317.126 30.5809L317.287 31.5809L319.262 31.2627L321.236 30.9445L321.075 29.9445L319.101 30.2627ZM343.442 63V65H1419V63V61H343.442V63ZM1471 115H1469V1763H1471H1473V115H1471ZM1419 1815V1813H21V1815V1817H1419V1815ZM-31 1763H-29V90.9283H-31H-33V1763H-31ZM-3.07175 63V65H31.558V63V61H-3.07175V63ZM55.7393 31.2617L57.7135 31.5818L57.8756 30.5818L55.9014 30.2617L53.9271 29.9417L53.765 30.9417L55.7393 31.2617ZM55.9014 30.2617L57.8758 30.5805C60.5355 14.1082 74.7549 2.00006 91.4404 2L91.4404 0L91.4404 -2C72.7918 -1.99993 56.8996 11.5328 53.9269 29.9429L55.9014 30.2617ZM91.4404 0V2H283.561V0V-2H91.4404V0ZM31.558 63V65C38.9146 65 44.9793 59.429 49.2936 52.9042C53.6721 46.2821 56.6645 38.0787 57.7137 31.5805L55.7393 31.2617L53.7648 30.9429C52.8032 36.8988 50.0126 44.5644 45.957 50.698C41.8371 56.9288 36.8167 61 31.558 61V63ZM-31 90.9283H-29C-29 76.6085 -17.3915 65 -3.07175 65V63V61C-19.6007 61 -33 74.3993 -33 90.9283H-31ZM21 1815V1813C-6.61421 1813 -29 1790.61 -29 1763H-31H-33C-33 1792.82 -8.82335 1817 21 1817V1815ZM1471 1763H1469C1469 1790.61 1446.61 1813 1419 1813V1815V1817C1448.82 1817 1473 1792.82 1473 1763H1471ZM1419 63V65C1446.61 65 1469 87.3858 1469 115H1471H1473C1473 85.1766 1448.82 61 1419 61V63ZM319.262 31.2627L317.287 31.5814C318.336 38.0795 321.328 46.2827 325.707 52.9045C330.021 59.4292 336.086 65 343.442 65V63V61C338.183 61 333.163 56.929 329.043 50.6984C324.988 44.565 322.198 36.8996 321.236 30.944L319.262 31.2627Z" fill="#150A3C" mask="url(#path-7-inside-3_1212_4772)"/>
<path d="M114.84 28.08H106.2V33.024H114.672V35.04H106.2V42H104.04V26.064H114.84V28.08ZM117.842 35.4V26.064H120.002V35.4C120.002 37 120.418 38.216 121.25 39.048C122.082 39.88 123.25 40.296 124.754 40.296C126.258 40.296 127.426 39.88 128.258 39.048C129.09 38.216 129.506 37 129.506 35.4V26.064H131.666V35.4C131.666 37.592 131.042 39.296 129.794 40.512C128.562 41.712 126.882 42.312 124.754 42.312C122.626 42.312 120.938 41.712 119.69 40.512C118.458 39.296 117.842 37.592 117.842 35.4ZM137.794 26.064V39.984H146.434V42H135.634V26.064H137.794ZM151.364 26.064V39.984H160.004V42H149.204V26.064H151.364Z" fill="#150A3C"/>
<mask id="path-10-inside-4_1212_4772" fill="white">
<path d="M654.857 0C670.896 1.35843e-05 685 10.611 689.446 26.0215L689.735 27.0215C693.672 40.6677 705.017 63 719.22 63H1378C1406.72 63 1430 86.2812 1430 115V1763C1430 1791.72 1406.72 1815 1378 1815H59C30.2812 1815 7 1791.72 7 1763V115C7 86.2812 30.2812 63 59 63H191.78C205.984 63 217.33 40.6662 221.268 27.0195L221.556 26.0195C226.002 10.6099 240.106 0.000129354 256.145 0H654.857Z"/>
</mask>
<path d="M654.857 0C670.896 1.35843e-05 685 10.611 689.446 26.0215L689.735 27.0215C693.672 40.6677 705.017 63 719.22 63H1378C1406.72 63 1430 86.2812 1430 115V1763C1430 1791.72 1406.72 1815 1378 1815H59C30.2812 1815 7 1791.72 7 1763V115C7 86.2812 30.2812 63 59 63H191.78C205.984 63 217.33 40.6662 221.268 27.0195L221.556 26.0195C226.002 10.6099 240.106 0.000129354 256.145 0H654.857Z" fill="white"/>
<path d="M654.857 0V-2V-2V0ZM689.446 26.0215L687.525 26.5759L687.525 26.5769L689.446 26.0215ZM689.735 27.0215L691.657 26.4671L691.657 26.4661L689.735 27.0215ZM221.268 27.0195L223.189 27.574L223.189 27.5732L221.268 27.0195ZM221.556 26.0195L219.634 25.4651L219.634 25.4659L221.556 26.0195ZM256.145 0V-2H256.145L256.145 0ZM654.857 0V2C670.005 2.00001 683.326 12.0215 687.525 26.5759L689.446 26.0215L691.368 25.4671C686.675 9.20054 671.788 -1.99999 654.857 -2V0ZM689.446 26.0215L687.525 26.5769L687.814 27.5769L689.735 27.0215L691.657 26.4661L691.368 25.4661L689.446 26.0215ZM719.22 63V65H1378V63V61H719.22V63ZM1430 115H1428V1763H1430H1432V115H1430ZM1378 1815V1813H59V1815V1817H1378V1815ZM7 1763H9V115H7H5V1763H7ZM59 63V65H191.78V63V61H59V63ZM221.268 27.0195L223.189 27.5732L223.478 26.5732L221.556 26.0195L219.634 25.4659L219.346 26.4659L221.268 27.0195ZM221.556 26.0195L223.477 26.574C227.677 12.0205 240.997 2.00012 256.145 2L256.145 0L256.145 -2C239.215 -1.99986 224.327 9.1993 219.634 25.4651L221.556 26.0195ZM256.145 0V2H654.857V0V-2H256.145V0ZM191.78 63V65C199.932 65 206.842 58.6571 212.012 51.2745C217.266 43.7706 221.172 34.5653 223.189 27.574L221.268 27.0195L219.346 26.4651C217.426 33.1204 213.689 41.9054 208.735 48.9801C203.696 56.176 197.832 61 191.78 61V63ZM7 115H9C9 87.3858 31.3858 65 59 65V63V61C29.1766 61 5 85.1766 5 115H7ZM59 1815V1813C31.3858 1813 9 1790.61 9 1763H7H5C5 1792.82 29.1767 1817 59 1817V1815ZM1430 1763H1428C1428 1790.61 1405.61 1813 1378 1813V1815V1817C1407.82 1817 1432 1792.82 1432 1763H1430ZM1378 63V65C1405.61 65 1428 87.3858 1428 115H1430H1432C1432 85.1766 1407.82 61 1378 61V63ZM689.735 27.0215L687.814 27.5758C689.831 34.567 693.736 43.7718 698.99 51.2752C704.159 58.6574 711.068 65 719.22 65V63V61C713.169 61 707.305 56.1764 702.266 48.9809C697.313 41.9066 693.577 33.1222 691.657 26.4671L689.735 27.0215Z" fill="#150A3C" mask="url(#path-10-inside-4_1212_4772)"/>
<path d="M274.488 27.312C275.416 28.128 275.88 29.272 275.88 30.744C275.88 32.216 275.416 33.368 274.488 34.2C273.56 35.016 272.328 35.424 270.792 35.424H265.2V42H263.04V26.064H270.792C272.328 26.064 273.56 26.48 274.488 27.312ZM272.904 32.712C273.448 32.248 273.72 31.592 273.72 30.744C273.72 29.896 273.448 29.24 272.904 28.776C272.376 28.312 271.672 28.08 270.792 28.08H265.2V33.408H270.792C271.672 33.408 272.376 33.176 272.904 32.712ZM289.684 28.08H281.044V33.024H289.516V35.04H281.044V39.984H289.684V42H278.884V26.064H289.684V28.08ZM306.114 30.744C306.114 32.136 305.698 33.24 304.866 34.056C304.034 34.872 302.922 35.328 301.53 35.424L306.546 42H303.858L298.842 35.424H295.434V42H293.274V26.064H301.026C302.562 26.064 303.794 26.48 304.722 27.312C305.65 28.128 306.114 29.272 306.114 30.744ZM303.138 32.712C303.682 32.248 303.954 31.592 303.954 30.744C303.954 29.896 303.682 29.24 303.138 28.776C302.61 28.312 301.906 28.08 301.026 28.08H295.434V33.408H301.026C301.906 33.408 302.61 33.176 303.138 32.712ZM319.988 28.08H311.348V33.024H319.82V35.04H311.348V42H309.188V26.064H319.988V28.08ZM324.502 28.128C326.07 26.544 328.014 25.752 330.334 25.752C332.654 25.752 334.598 26.544 336.166 28.128C337.734 29.712 338.518 31.68 338.518 34.032C338.518 36.384 337.734 38.352 336.166 39.936C334.598 41.52 332.654 42.312 330.334 42.312C328.014 42.312 326.07 41.52 324.502 39.936C322.934 38.352 322.15 36.384 322.15 34.032C322.15 31.68 322.934 29.712 324.502 28.128ZM334.63 29.568C333.478 28.368 332.046 27.768 330.334 27.768C328.622 27.768 327.19 28.368 326.038 29.568C324.886 30.752 324.31 32.24 324.31 34.032C324.31 35.824 324.886 37.32 326.038 38.52C327.19 39.704 328.622 40.296 330.334 40.296C332.046 40.296 333.478 39.704 334.63 38.52C335.782 37.32 336.358 35.824 336.358 34.032C336.358 32.24 335.782 30.752 334.63 29.568ZM354.489 30.744C354.489 32.136 354.073 33.24 353.241 34.056C352.409 34.872 351.297 35.328 349.905 35.424L354.921 42H352.233L347.217 35.424H343.809V42H341.649V26.064H349.401C350.937 26.064 352.169 26.48 353.097 27.312C354.025 28.128 354.489 29.272 354.489 30.744ZM351.513 32.712C352.057 32.248 352.329 31.592 352.329 30.744C352.329 29.896 352.057 29.24 351.513 28.776C350.985 28.312 350.281 28.08 349.401 28.08H343.809V33.408H349.401C350.281 33.408 350.985 33.176 351.513 32.712ZM373.739 26.064H376.427V42H374.267V29.616L368.219 42H365.771L359.723 29.616V42H357.563V26.064H360.299L367.019 39.84L373.739 26.064ZM382.309 38.304L380.701 42H378.469L385.477 26.064H387.829L394.813 42H392.509L390.901 38.304H382.309ZM390.037 36.312L386.605 28.416L383.173 36.312H390.037ZM408.989 26.064H411.149V42H408.725L399.005 29.136V42H396.845V26.064H399.269L408.989 38.928V26.064ZM422.444 27.768C420.732 27.768 419.3 28.368 418.148 29.568C416.996 30.752 416.42 32.24 416.42 34.032C416.42 35.824 416.996 37.32 418.148 38.52C419.3 39.704 420.732 40.296 422.444 40.296C424.348 40.296 425.844 39.544 426.932 38.04H429.38C428.724 39.368 427.796 40.416 426.596 41.184C425.412 41.936 424.028 42.312 422.444 42.312C420.124 42.312 418.18 41.52 416.612 39.936C415.044 38.352 414.26 36.384 414.26 34.032C414.26 31.68 415.044 29.712 416.612 28.128C418.18 26.544 420.124 25.752 422.444 25.752C424.028 25.752 425.412 26.136 426.596 26.904C427.796 27.656 428.724 28.696 429.38 30.024H426.932C425.844 28.52 424.348 27.768 422.444 27.768ZM443.176 28.08H434.536V33.024H443.008V35.04H434.536V39.984H443.176V42H432.376V26.064H443.176V28.08ZM468.474 26.064H471.162V42H469.002V29.616L462.954 42H460.506L454.458 29.616V42H452.298V26.064H455.034L461.754 39.84L468.474 26.064ZM477.043 38.304L475.435 42H473.203L480.211 26.064H482.563L489.547 42H487.243L485.635 38.304H477.043ZM484.771 36.312L481.339 28.416L477.907 36.312H484.771ZM504.419 30.744C504.419 32.136 504.003 33.24 503.171 34.056C502.339 34.872 501.227 35.328 499.835 35.424L504.851 42H502.163L497.147 35.424H493.739V42H491.579V26.064H499.331C500.867 26.064 502.099 26.48 503.027 27.312C503.955 28.128 504.419 29.272 504.419 30.744ZM501.443 32.712C501.987 32.248 502.259 31.592 502.259 30.744C502.259 29.896 501.987 29.24 501.443 28.776C500.915 28.312 500.211 28.08 499.331 28.08H493.739V33.408H499.331C500.211 33.408 500.915 33.176 501.443 32.712ZM511.501 34.032L520.021 42H517.141L509.653 35.112V42H507.493V26.064H509.653V32.952L517.141 26.064H520.021L511.501 34.032ZM532.988 28.08H524.348V33.024H532.82V35.04H524.348V39.984H532.988V42H522.188V26.064H532.988V28.08ZM535.139 26.064H548.339V28.08H542.819V42H540.659V28.08H535.139V26.064ZM553.13 26.064V42H550.97V26.064H553.13ZM569.348 26.064H571.508V42H569.084L559.364 29.136V42H557.204V26.064H559.628L569.348 38.928V26.064ZM582.803 27.768C581.091 27.768 579.659 28.368 578.507 29.568C577.355 30.752 576.779 32.24 576.779 34.032C576.779 35.84 577.347 37.336 578.483 38.52C579.635 39.704 581.083 40.296 582.827 40.296C584.235 40.296 585.411 39.88 586.355 39.048C587.315 38.216 587.939 37.112 588.227 35.736H582.491V33.72H590.531C590.531 36.264 589.795 38.336 588.323 39.936C586.851 41.52 585.043 42.312 582.899 42.312C580.563 42.312 578.595 41.52 576.995 39.936C575.411 38.352 574.619 36.384 574.619 34.032C574.619 31.68 575.403 29.712 576.971 28.128C578.539 26.544 580.483 25.752 582.803 25.752C584.355 25.752 585.747 26.144 586.979 26.928C588.227 27.696 589.187 28.728 589.859 30.024H587.387C586.891 29.336 586.243 28.792 585.443 28.392C584.659 27.976 583.779 27.768 582.803 27.768Z" fill="#150A3C"/>
<path d="M675.923 0C661.285 0.000209846 648.709 10.3945 645.953 24.7705C644.302 33.3815 631.215 58.998 622.447 58.998H-13C-13.5521 58.998 -13.9997 59.446 -14 59.998V1802C-14 1818.57 -0.568542 1832 16 1832H1403C1419.57 1832 1433 1818.57 1433 1802V59.999C1433 59.4467 1432.55 58.998 1432 58.998H930.554C921.786 58.998 908.7 33.3815 907.049 24.7705C904.293 10.3942 891.716 0.000128683 877.078 0H675.923Z" fill="url(#paint0_linear_1212_4772)"/>
<path d="M728.444 44.6L726.068 50H722L732.44 26.096H736.508L746.948 50H742.736L740.36 44.6H728.444ZM738.776 40.964L734.42 30.992L730.028 40.964H738.776ZM749.697 40.064V26.096H753.657V40.028C753.657 42.236 754.221 43.928 755.349 45.104C756.501 46.256 758.097 46.832 760.137 46.832C762.177 46.832 763.761 46.256 764.889 45.104C766.041 43.928 766.617 42.236 766.617 40.028V26.096H770.577V40.064C770.577 43.352 769.641 45.908 767.769 47.732C765.897 49.556 763.353 50.468 760.137 50.468C756.921 50.468 754.377 49.556 752.505 47.732C750.633 45.908 749.697 43.352 749.697 40.064ZM776.244 26.096H784.38C788.412 26.096 791.592 27.248 793.92 29.552C796.272 31.832 797.448 34.664 797.448 38.048C797.448 41.432 796.272 44.276 793.92 46.58C791.592 48.86 788.412 50 784.38 50H776.244V26.096ZM791.04 44.06C792.672 42.524 793.488 40.52 793.488 38.048C793.488 35.576 792.672 33.572 791.04 32.036C789.408 30.5 787.2 29.732 784.416 29.732H780.204V46.364H784.416C787.2 46.364 789.408 45.596 791.04 44.06ZM805.868 26.096V50H801.908V26.096H805.868ZM809.665 26.096H829.681V29.732H821.653V50H817.693V29.732H809.665V26.096Z" fill="white"/>
</g>
<defs>
<linearGradient id="paint0_linear_1212_4772" x1="709.5" y1="0" x2="709.5" y2="1832" gradientUnits="userSpaceOnUse">
<stop stop-color="#130839"/>
<stop offset="0.360577" stop-color="#282251"/>
<stop offset="0.764423" stop-color="#793971"/>
<stop offset="1" stop-color="#CC7897"/>
</linearGradient>
<clipPath id="clip0_1212_4772">
<rect width="1424" height="59" fill="white"/>
</clipPath>
</defs>
</svg>
