<svg width="1424" height="59" viewBox="0 0 1424 59" fill="none" xmlns="http://www.w3.org/2000/svg">
<g clip-path="url(#clip0_1212_4940)">
<mask id="path-1-inside-1_1212_4940" fill="white">
<path d="M274.561 0C292.228 9.96399e-06 307.285 12.821 310.101 30.2627L310.262 31.2627C312.272 43.7164 321.827 63 334.442 63H1410C1438.72 63 1462 86.2812 1462 115V1763C1462 1791.72 1438.72 1815 1410 1815H12C-16.7188 1815 -40 1791.72 -40 1763V90.9283C-40 75.5039 -27.4961 63 -12.0718 63H22.558C35.1733 63 44.7284 43.7157 46.7393 31.2617L46.9014 30.2617C49.7176 12.8205 64.7733 6.78387e-05 82.4404 0H274.561Z"/>
</mask>
<path d="M274.561 0C292.228 9.96399e-06 307.285 12.821 310.101 30.2627L310.262 31.2627C312.272 43.7164 321.827 63 334.442 63H1410C1438.72 63 1462 86.2812 1462 115V1763C1462 1791.72 1438.72 1815 1410 1815H12C-16.7188 1815 -40 1791.72 -40 1763V90.9283C-40 75.5039 -27.4961 63 -12.0718 63H22.558C35.1733 63 44.7284 43.7157 46.7393 31.2617L46.9014 30.2617C49.7176 12.8205 64.7733 6.78387e-05 82.4404 0H274.561Z" fill="white"/>
<path d="M274.561 0V-2V-2V0ZM310.101 30.2627L312.075 29.9445L312.075 29.9439L310.101 30.2627ZM310.262 31.2627L308.287 31.5809L308.287 31.5814L310.262 31.2627ZM46.7393 31.2617L44.765 30.9417L44.7648 30.9429L46.7393 31.2617ZM46.9014 30.2617L48.8756 30.5818L48.8758 30.5805L46.9014 30.2617ZM82.4404 0V-2H82.4404L82.4404 0ZM274.561 0V2C291.246 2.00001 305.467 14.1088 308.126 30.5815L310.101 30.2627L312.075 29.9439C309.103 11.5333 293.21 -1.99999 274.561 -2V0ZM310.101 30.2627L308.126 30.5809L308.287 31.5809L310.262 31.2627L312.236 30.9445L312.075 29.9445L310.101 30.2627ZM334.442 63V65H1410V63V61H334.442V63ZM1462 115H1460V1763H1462H1464V115H1462ZM1410 1815V1813H12V1815V1817H1410V1815ZM-40 1763H-38V90.9283H-40H-42V1763H-40ZM-12.0718 63V65H22.558V63V61H-12.0718V63ZM46.7393 31.2617L48.7135 31.5818L48.8756 30.5818L46.9014 30.2617L44.9271 29.9417L44.765 30.9417L46.7393 31.2617ZM46.9014 30.2617L48.8758 30.5805C51.5355 14.1082 65.7549 2.00006 82.4404 2L82.4404 0L82.4404 -2C63.7918 -1.99993 47.8996 11.5328 44.9269 29.9429L46.9014 30.2617ZM82.4404 0V2H274.561V0V-2H82.4404V0ZM22.558 63V65C29.9146 65 35.9793 59.429 40.2936 52.9042C44.6721 46.2821 47.6645 38.0787 48.7137 31.5805L46.7393 31.2617L44.7648 30.9429C43.8032 36.8988 41.0126 44.5644 36.957 50.698C32.8371 56.9288 27.8167 61 22.558 61V63ZM-40 90.9283H-38C-38 76.6085 -26.3915 65 -12.0718 65V63V61C-28.6007 61 -42 74.3993 -42 90.9283H-40ZM12 1815V1813C-15.6142 1813 -38 1790.61 -38 1763H-40H-42C-42 1792.82 -17.8233 1817 12 1817V1815ZM1462 1763H1460C1460 1790.61 1437.61 1813 1410 1813V1815V1817C1439.82 1817 1464 1792.82 1464 1763H1462ZM1410 63V65C1437.61 65 1460 87.3858 1460 115H1462H1464C1464 85.1766 1439.82 61 1410 61V63ZM310.262 31.2627L308.287 31.5814C309.336 38.0795 312.328 46.2827 316.707 52.9045C321.021 59.4292 327.086 65 334.442 65V63V61C329.183 61 324.163 56.929 320.043 50.6984C315.988 44.565 313.198 36.8996 312.236 30.944L310.262 31.2627Z" fill="#150A3C" mask="url(#path-1-inside-1_1212_4940)"/>
<path d="M105.84 28.08H97.2V33.024H105.672V35.04H97.2V42H95.04V26.064H105.84V28.08ZM108.842 35.4V26.064H111.002V35.4C111.002 37 111.418 38.216 112.25 39.048C113.082 39.88 114.25 40.296 115.754 40.296C117.258 40.296 118.426 39.88 119.258 39.048C120.09 38.216 120.506 37 120.506 35.4V26.064H122.666V35.4C122.666 37.592 122.042 39.296 120.794 40.512C119.562 41.712 117.882 42.312 115.754 42.312C113.626 42.312 111.938 41.712 110.69 40.512C109.458 39.296 108.842 37.592 108.842 35.4ZM128.794 26.064V39.984H137.434V42H126.634V26.064H128.794ZM142.364 26.064V39.984H151.004V42H140.204V26.064H142.364Z" fill="#150A3C"/>
<mask id="path-4-inside-2_1212_4940" fill="white">
<path d="M645.857 0C661.896 1.35843e-05 676 10.611 680.446 26.0215L680.735 27.0215C684.672 40.6677 696.017 63 710.22 63H1369C1397.72 63 1421 86.2812 1421 115V1763C1421 1791.72 1397.72 1815 1369 1815H50C21.2812 1815 -2 1791.72 -2 1763V115C-2 86.2812 21.2812 63 50 63H182.78C196.984 63 208.33 40.6662 212.268 27.0195L212.556 26.0195C217.002 10.6099 231.106 0.000129354 247.145 0H645.857Z"/>
</mask>
<path d="M645.857 0C661.896 1.35843e-05 676 10.611 680.446 26.0215L680.735 27.0215C684.672 40.6677 696.017 63 710.22 63H1369C1397.72 63 1421 86.2812 1421 115V1763C1421 1791.72 1397.72 1815 1369 1815H50C21.2812 1815 -2 1791.72 -2 1763V115C-2 86.2812 21.2812 63 50 63H182.78C196.984 63 208.33 40.6662 212.268 27.0195L212.556 26.0195C217.002 10.6099 231.106 0.000129354 247.145 0H645.857Z" fill="white"/>
<path d="M645.857 0V-2V-2V0ZM680.446 26.0215L678.525 26.5759L678.525 26.5769L680.446 26.0215ZM680.735 27.0215L682.657 26.4671L682.657 26.4661L680.735 27.0215ZM212.268 27.0195L214.189 27.574L214.189 27.5732L212.268 27.0195ZM212.556 26.0195L210.634 25.4651L210.634 25.4659L212.556 26.0195ZM247.145 0V-2H247.145L247.145 0ZM645.857 0V2C661.005 2.00001 674.326 12.0215 678.525 26.5759L680.446 26.0215L682.368 25.4671C677.675 9.20054 662.788 -1.99999 645.857 -2V0ZM680.446 26.0215L678.525 26.5769L678.814 27.5769L680.735 27.0215L682.657 26.4661L682.368 25.4661L680.446 26.0215ZM710.22 63V65H1369V63V61H710.22V63ZM1421 115H1419V1763H1421H1423V115H1421ZM1369 1815V1813H50V1815V1817H1369V1815ZM-2 1763H0V115H-2H-4V1763H-2ZM50 63V65H182.78V63V61H50V63ZM212.268 27.0195L214.189 27.5732L214.478 26.5732L212.556 26.0195L210.634 25.4659L210.346 26.4659L212.268 27.0195ZM212.556 26.0195L214.477 26.574C218.677 12.0205 231.997 2.00012 247.145 2L247.145 0L247.145 -2C230.215 -1.99986 215.327 9.1993 210.634 25.4651L212.556 26.0195ZM247.145 0V2H645.857V0V-2H247.145V0ZM182.78 63V65C190.932 65 197.842 58.6571 203.012 51.2745C208.266 43.7706 212.172 34.5653 214.189 27.574L212.268 27.0195L210.346 26.4651C208.426 33.1204 204.689 41.9054 199.735 48.9801C194.696 56.176 188.832 61 182.78 61V63ZM-2 115H0C0 87.3858 22.3858 65 50 65V63V61C20.1766 61 -4 85.1766 -4 115H-2ZM50 1815V1813C22.3858 1813 0 1790.61 0 1763H-2H-4C-4 1792.82 20.1767 1817 50 1817V1815ZM1421 1763H1419C1419 1790.61 1396.61 1813 1369 1813V1815V1817C1398.82 1817 1423 1792.82 1423 1763H1421ZM1369 63V65C1396.61 65 1419 87.3858 1419 115H1421H1423C1423 85.1766 1398.82 61 1369 61V63ZM680.735 27.0215L678.814 27.5758C680.831 34.567 684.736 43.7718 689.99 51.2752C695.159 58.6574 702.068 65 710.22 65V63V61C704.169 61 698.305 56.1764 693.266 48.9809C688.313 41.9066 684.577 33.1222 682.657 26.4671L680.735 27.0215Z" fill="#150A3C" mask="url(#path-4-inside-2_1212_4940)"/>
<path d="M265.488 27.312C266.416 28.128 266.88 29.272 266.88 30.744C266.88 32.216 266.416 33.368 265.488 34.2C264.56 35.016 263.328 35.424 261.792 35.424H256.2V42H254.04V26.064H261.792C263.328 26.064 264.56 26.48 265.488 27.312ZM263.904 32.712C264.448 32.248 264.72 31.592 264.72 30.744C264.72 29.896 264.448 29.24 263.904 28.776C263.376 28.312 262.672 28.08 261.792 28.08H256.2V33.408H261.792C262.672 33.408 263.376 33.176 263.904 32.712ZM280.684 28.08H272.044V33.024H280.516V35.04H272.044V39.984H280.684V42H269.884V26.064H280.684V28.08ZM297.114 30.744C297.114 32.136 296.698 33.24 295.866 34.056C295.034 34.872 293.922 35.328 292.53 35.424L297.546 42H294.858L289.842 35.424H286.434V42H284.274V26.064H292.026C293.562 26.064 294.794 26.48 295.722 27.312C296.65 28.128 297.114 29.272 297.114 30.744ZM294.138 32.712C294.682 32.248 294.954 31.592 294.954 30.744C294.954 29.896 294.682 29.24 294.138 28.776C293.61 28.312 292.906 28.08 292.026 28.08H286.434V33.408H292.026C292.906 33.408 293.61 33.176 294.138 32.712ZM310.988 28.08H302.348V33.024H310.82V35.04H302.348V42H300.188V26.064H310.988V28.08ZM315.502 28.128C317.07 26.544 319.014 25.752 321.334 25.752C323.654 25.752 325.598 26.544 327.166 28.128C328.734 29.712 329.518 31.68 329.518 34.032C329.518 36.384 328.734 38.352 327.166 39.936C325.598 41.52 323.654 42.312 321.334 42.312C319.014 42.312 317.07 41.52 315.502 39.936C313.934 38.352 313.15 36.384 313.15 34.032C313.15 31.68 313.934 29.712 315.502 28.128ZM325.63 29.568C324.478 28.368 323.046 27.768 321.334 27.768C319.622 27.768 318.19 28.368 317.038 29.568C315.886 30.752 315.31 32.24 315.31 34.032C315.31 35.824 315.886 37.32 317.038 38.52C318.19 39.704 319.622 40.296 321.334 40.296C323.046 40.296 324.478 39.704 325.63 38.52C326.782 37.32 327.358 35.824 327.358 34.032C327.358 32.24 326.782 30.752 325.63 29.568ZM345.489 30.744C345.489 32.136 345.073 33.24 344.241 34.056C343.409 34.872 342.297 35.328 340.905 35.424L345.921 42H343.233L338.217 35.424H334.809V42H332.649V26.064H340.401C341.937 26.064 343.169 26.48 344.097 27.312C345.025 28.128 345.489 29.272 345.489 30.744ZM342.513 32.712C343.057 32.248 343.329 31.592 343.329 30.744C343.329 29.896 343.057 29.24 342.513 28.776C341.985 28.312 341.281 28.08 340.401 28.08H334.809V33.408H340.401C341.281 33.408 341.985 33.176 342.513 32.712ZM364.739 26.064H367.427V42H365.267V29.616L359.219 42H356.771L350.723 29.616V42H348.563V26.064H351.299L358.019 39.84L364.739 26.064ZM373.309 38.304L371.701 42H369.469L376.477 26.064H378.829L385.813 42H383.509L381.901 38.304H373.309ZM381.037 36.312L377.605 28.416L374.173 36.312H381.037ZM399.989 26.064H402.149V42H399.725L390.005 29.136V42H387.845V26.064H390.269L399.989 38.928V26.064ZM413.444 27.768C411.732 27.768 410.3 28.368 409.148 29.568C407.996 30.752 407.42 32.24 407.42 34.032C407.42 35.824 407.996 37.32 409.148 38.52C410.3 39.704 411.732 40.296 413.444 40.296C415.348 40.296 416.844 39.544 417.932 38.04H420.38C419.724 39.368 418.796 40.416 417.596 41.184C416.412 41.936 415.028 42.312 413.444 42.312C411.124 42.312 409.18 41.52 407.612 39.936C406.044 38.352 405.26 36.384 405.26 34.032C405.26 31.68 406.044 29.712 407.612 28.128C409.18 26.544 411.124 25.752 413.444 25.752C415.028 25.752 416.412 26.136 417.596 26.904C418.796 27.656 419.724 28.696 420.38 30.024H417.932C416.844 28.52 415.348 27.768 413.444 27.768ZM434.176 28.08H425.536V33.024H434.008V35.04H425.536V39.984H434.176V42H423.376V26.064H434.176V28.08ZM459.474 26.064H462.162V42H460.002V29.616L453.954 42H451.506L445.458 29.616V42H443.298V26.064H446.034L452.754 39.84L459.474 26.064ZM468.043 38.304L466.435 42H464.203L471.211 26.064H473.563L480.547 42H478.243L476.635 38.304H468.043ZM475.771 36.312L472.339 28.416L468.907 36.312H475.771ZM495.419 30.744C495.419 32.136 495.003 33.24 494.171 34.056C493.339 34.872 492.227 35.328 490.835 35.424L495.851 42H493.163L488.147 35.424H484.739V42H482.579V26.064H490.331C491.867 26.064 493.099 26.48 494.027 27.312C494.955 28.128 495.419 29.272 495.419 30.744ZM492.443 32.712C492.987 32.248 493.259 31.592 493.259 30.744C493.259 29.896 492.987 29.24 492.443 28.776C491.915 28.312 491.211 28.08 490.331 28.08H484.739V33.408H490.331C491.211 33.408 491.915 33.176 492.443 32.712ZM502.501 34.032L511.021 42H508.141L500.653 35.112V42H498.493V26.064H500.653V32.952L508.141 26.064H511.021L502.501 34.032ZM523.988 28.08H515.348V33.024H523.82V35.04H515.348V39.984H523.988V42H513.188V26.064H523.988V28.08ZM526.139 26.064H539.339V28.08H533.819V42H531.659V28.08H526.139V26.064ZM544.13 26.064V42H541.97V26.064H544.13ZM560.348 26.064H562.508V42H560.084L550.364 29.136V42H548.204V26.064H550.628L560.348 38.928V26.064ZM573.803 27.768C572.091 27.768 570.659 28.368 569.507 29.568C568.355 30.752 567.779 32.24 567.779 34.032C567.779 35.84 568.347 37.336 569.483 38.52C570.635 39.704 572.083 40.296 573.827 40.296C575.235 40.296 576.411 39.88 577.355 39.048C578.315 38.216 578.939 37.112 579.227 35.736H573.491V33.72H581.531C581.531 36.264 580.795 38.336 579.323 39.936C577.851 41.52 576.043 42.312 573.899 42.312C571.563 42.312 569.595 41.52 567.995 39.936C566.411 38.352 565.619 36.384 565.619 34.032C565.619 31.68 566.403 29.712 567.971 28.128C569.539 26.544 571.483 25.752 573.803 25.752C575.355 25.752 576.747 26.144 577.979 26.928C579.227 27.696 580.187 28.728 580.859 30.024H578.387C577.891 29.336 577.243 28.792 576.443 28.392C575.659 27.976 574.779 27.768 573.803 27.768Z" fill="#150A3C"/>
<mask id="path-7-inside-3_1212_4940" fill="white">
<path d="M916.224 0C933.484 0 948.316 12.2513 951.576 29.2012L951.769 30.2002C954.225 42.9742 964.207 63 977.215 63H1229C1257.72 63 1281 86.2812 1281 115V1763C1281 1791.72 1257.72 1815 1229 1815H-107C-135.719 1815 -159 1791.72 -159 1763V115C-159 86.2812 -135.719 63 -107 63H612.785C625.794 63 635.776 42.9735 638.233 30.1992L638.426 29.1992C641.686 12.2501 656.517 5.08549e-05 673.777 0H916.224Z"/>
</mask>
<path d="M916.224 0C933.484 0 948.316 12.2513 951.576 29.2012L951.769 30.2002C954.225 42.9742 964.207 63 977.215 63H1229C1257.72 63 1281 86.2812 1281 115V1763C1281 1791.72 1257.72 1815 1229 1815H-107C-135.719 1815 -159 1791.72 -159 1763V115C-159 86.2812 -135.719 63 -107 63H612.785C625.794 63 635.776 42.9735 638.233 30.1992L638.426 29.1992C641.686 12.2501 656.517 5.08549e-05 673.777 0H916.224Z" fill="white"/>
<path d="M951.576 29.2012L949.612 29.5789L949.612 29.5794L951.576 29.2012ZM951.769 30.2002L953.733 29.8225L953.732 29.822L951.769 30.2002ZM638.233 30.1992L636.269 29.8214V29.8214L638.233 30.1992ZM638.426 29.1992L640.39 29.5771V29.577L638.426 29.1992ZM673.777 0V-2V-2V0ZM916.224 0V2C932.525 2 946.533 13.5707 949.612 29.5789L951.576 29.2012L953.54 28.8234C950.099 10.9319 934.443 -2 916.224 -2V0ZM951.576 29.2012L949.612 29.5794L949.805 30.5784L951.769 30.2002L953.732 29.822L953.54 28.823L951.576 29.2012ZM977.215 63V65H1229V63V61H977.215V63ZM1281 115H1279V1763H1281H1283V115H1281ZM1229 1815V1813H-107V1815V1817H1229V1815ZM-159 1763H-157V115H-159H-161V1763H-159ZM-107 63V65H612.786V63V61H-107V63ZM638.233 30.1992L640.197 30.5771L640.39 29.5771L638.426 29.1992L636.462 28.8214L636.269 29.8214L638.233 30.1992ZM638.426 29.1992L640.39 29.577C643.469 13.5695 657.476 2.00005 673.777 2V0V-2C655.559 -1.99995 639.904 10.9307 636.462 28.8214L638.426 29.1992ZM673.777 0V2H916.224V0V-2H673.777V0ZM612.786 63V65C620.339 65 626.609 59.2407 631.127 52.504C635.715 45.6638 638.921 37.2101 640.197 30.577L638.233 30.1992L636.269 29.8214C635.088 35.9626 632.075 43.9093 627.805 50.2759C623.466 56.746 618.24 61 612.786 61V63ZM-159 115H-157C-157 87.3858 -134.614 65 -107 65V63V61C-136.823 61 -161 85.1766 -161 115H-159ZM-107 1815V1813C-134.614 1813 -157 1790.61 -157 1763H-159H-161C-161 1792.82 -136.823 1817 -107 1817V1815ZM1281 1763H1279C1279 1790.61 1256.61 1813 1229 1813V1815V1817C1258.82 1817 1283 1792.82 1283 1763H1281ZM1229 63V65C1256.61 65 1279 87.3858 1279 115H1281H1283C1283 85.1766 1258.82 61 1229 61V63ZM951.769 30.2002L949.805 30.5779C951.08 37.2109 954.287 45.6644 958.874 52.5044C963.392 59.2409 969.662 65 977.215 65V63V61C971.761 61 966.535 56.7462 962.196 50.2764C957.927 43.91 954.914 35.9635 953.733 29.8225L951.769 30.2002Z" fill="#150A3C" mask="url(#path-7-inside-3_1212_4940)"/>
<path d="M686.84 38.304L685.232 42H683L690.008 26.064H692.36L699.344 42H697.04L695.432 38.304H686.84ZM694.568 36.312L691.136 28.416L687.704 36.312H694.568ZM701.256 35.4V26.064H703.416V35.4C703.416 37 703.832 38.216 704.664 39.048C705.496 39.88 706.664 40.296 708.168 40.296C709.672 40.296 710.84 39.88 711.672 39.048C712.504 38.216 712.92 37 712.92 35.4V26.064H715.08V35.4C715.08 37.592 714.456 39.296 713.208 40.512C711.976 41.712 710.296 42.312 708.168 42.312C706.04 42.312 704.352 41.712 703.104 40.512C701.872 39.296 701.256 37.592 701.256 35.4ZM719.048 26.064H724.4C727.088 26.064 729.216 26.832 730.784 28.368C732.352 29.888 733.136 31.776 733.136 34.032C733.136 36.288 732.352 38.184 730.784 39.72C729.216 41.24 727.088 42 724.4 42H719.048V26.064ZM729.248 38.352C730.4 37.264 730.976 35.824 730.976 34.032C730.976 32.24 730.4 30.8 729.248 29.712C728.096 28.624 726.528 28.08 724.544 28.08H721.208V39.984H724.544C726.528 39.984 728.096 39.44 729.248 38.352ZM738.411 26.064V42H736.251V26.064H738.411ZM741.045 26.064H754.245V28.08H748.725V42H746.565V28.08H741.045V26.064Z" fill="#150A3C"/>
<mask id="path-10-inside-4_1212_4940" fill="white">
<path d="M1088.23 0C1105.49 0 1120.32 12.2491 1123.58 29.1973L1123.76 30.1572C1126.22 42.9323 1136.21 62.9648 1149.22 62.9648H1369C1397.72 62.9648 1421 86.246 1421 114.965V1762C1421 1790.72 1397.72 1814 1369 1814H50C21.2812 1814 -2 1790.72 -2 1762V114.965C-2 86.246 21.2812 62.9648 50 62.9648H784.783C797.794 62.9648 807.779 42.931 810.238 30.1553L810.423 29.1963C813.685 12.2486 828.516 0 845.774 0H1088.23Z"/>
</mask>
<path d="M1088.23 0C1105.49 0 1120.32 12.2491 1123.58 29.1973L1123.76 30.1572C1126.22 42.9323 1136.21 62.9648 1149.22 62.9648H1369C1397.72 62.9648 1421 86.246 1421 114.965V1762C1421 1790.72 1397.72 1814 1369 1814H50C21.2812 1814 -2 1790.72 -2 1762V114.965C-2 86.246 21.2812 62.9648 50 62.9648H784.783C797.794 62.9648 807.779 42.931 810.238 30.1553L810.423 29.1963C813.685 12.2486 828.516 0 845.774 0H1088.23Z" fill="white"/>
<path d="M1123.58 29.1973L1125.54 28.8196V28.8193L1123.58 29.1973ZM1123.76 30.1572L1121.8 30.5348V30.5352L1123.76 30.1572ZM810.238 30.1553L812.202 30.5333V30.5333L810.238 30.1553ZM810.423 29.1963L808.459 28.8183V28.8183L810.423 29.1963ZM1088.23 0V2C1104.53 2 1118.53 13.5686 1121.61 29.5752L1123.58 29.1973L1125.54 28.8193C1122.1 10.9296 1106.44 -2 1088.23 -2V0ZM1123.58 29.1973L1121.61 29.5749L1121.8 30.5348L1123.76 30.1572L1125.73 29.7796L1125.54 28.8196L1123.58 29.1973ZM1149.22 62.9648V64.9648H1369V62.9648V60.9648H1149.22V62.9648ZM1421 114.965H1419V1762H1421H1423V114.965H1421ZM1369 1814V1812H50V1814V1816H1369V1814ZM-2 1762H0V114.965H-2H-4V1762H-2ZM50 62.9648V64.9648H784.783V62.9648V60.9648H50V62.9648ZM810.238 30.1553L812.202 30.5333L812.387 29.5743L810.423 29.1963L808.459 28.8183L808.274 29.7773L810.238 30.1553ZM810.423 29.1963L812.387 29.5743C815.467 13.5682 829.474 2 845.774 2V0V-2C827.557 -2 811.902 10.9291 808.459 28.8183L810.423 29.1963ZM845.774 0V2H1088.23V0V-2H845.774V0ZM784.783 62.9648V64.9648C792.338 64.9648 798.609 59.2035 803.129 52.465C807.717 45.6228 810.925 37.167 812.202 30.5333L810.238 30.1553L808.274 29.7773C807.092 35.9193 804.078 43.8682 799.807 50.237C795.466 56.7092 790.239 60.9648 784.783 60.9648V62.9648ZM-2 114.965H0C0 87.3506 22.3858 64.9648 50 64.9648V62.9648V60.9648C20.1766 60.9648 -4 85.1414 -4 114.965H-2ZM50 1814V1812C22.3858 1812 0 1789.61 0 1762H-2H-4C-4 1791.82 20.1767 1816 50 1816V1814ZM1421 1762H1419C1419 1789.61 1396.61 1812 1369 1812V1814V1816C1398.82 1816 1423 1791.82 1423 1762H1421ZM1369 62.9648V64.9648C1396.61 64.9648 1419 87.3506 1419 114.965H1421H1423C1423 85.1415 1398.82 60.9648 1369 60.9648V62.9648ZM1123.76 30.1572L1121.8 30.5352C1123.08 37.1686 1126.28 45.6239 1130.87 52.4657C1135.39 59.2039 1141.66 64.9648 1149.22 64.9648V62.9648V60.9648C1143.76 60.9648 1138.53 56.7095 1134.19 50.2377C1129.92 43.8694 1126.91 35.9209 1125.73 29.7793L1123.76 30.1572Z" fill="#150A3C" mask="url(#path-10-inside-4_1212_4940)"/>
<path d="M855.6 38.04H857.952C858.336 38.728 858.928 39.28 859.728 39.696C860.544 40.096 861.472 40.296 862.512 40.296C863.712 40.296 864.704 40.048 865.488 39.552C866.272 39.04 866.664 38.4 866.664 37.632C866.664 36.88 866.392 36.304 865.848 35.904C865.304 35.504 864.448 35.24 863.28 35.112L860.496 34.824C858.976 34.68 857.848 34.224 857.112 33.456C856.392 32.688 856.032 31.712 856.032 30.528C856.032 29.104 856.584 27.952 857.688 27.072C858.808 26.192 860.304 25.752 862.176 25.752C863.968 25.752 865.424 26.176 866.544 27.024C867.68 27.872 868.464 28.872 868.896 30.024H866.544C866.224 29.352 865.664 28.808 864.864 28.392C864.064 27.976 863.144 27.768 862.104 27.768C860.904 27.768 859.952 28.024 859.248 28.536C858.544 29.048 858.192 29.68 858.192 30.432C858.192 31.856 859.176 32.664 861.144 32.856L864.144 33.168C865.616 33.328 866.76 33.792 867.576 34.56C868.408 35.328 868.824 36.312 868.824 37.512C868.824 38.792 868.264 39.912 867.144 40.872C866.024 41.832 864.48 42.312 862.512 42.312C860.592 42.312 859.064 41.904 857.928 41.088C856.792 40.256 856.016 39.24 855.6 38.04ZM870.342 26.064H883.542V28.08H878.022V42H875.862V28.08H870.342V26.064ZM899.013 30.744C899.013 32.136 898.597 33.24 897.765 34.056C896.933 34.872 895.821 35.328 894.429 35.424L899.445 42H896.757L891.741 35.424H888.333V42H886.173V26.064H893.925C895.461 26.064 896.693 26.48 897.621 27.312C898.549 28.128 899.013 29.272 899.013 30.744ZM896.037 32.712C896.581 32.248 896.853 31.592 896.853 30.744C896.853 29.896 896.581 29.24 896.037 28.776C895.509 28.312 894.805 28.08 893.925 28.08H888.333V33.408H893.925C894.805 33.408 895.509 33.176 896.037 32.712ZM903.887 38.304L902.279 42H900.047L907.055 26.064H909.407L916.391 42H914.087L912.479 38.304H903.887ZM911.615 36.312L908.183 28.416L904.751 36.312H911.615ZM915.788 26.064H928.988V28.08H923.468V42H921.308V28.08H915.788V26.064ZM942.418 28.08H933.778V33.024H942.25V35.04H933.778V39.984H942.418V42H931.618V26.064H942.418V28.08ZM953.116 27.768C951.404 27.768 949.972 28.368 948.82 29.568C947.668 30.752 947.092 32.24 947.092 34.032C947.092 35.84 947.66 37.336 948.796 38.52C949.948 39.704 951.396 40.296 953.14 40.296C954.548 40.296 955.724 39.88 956.668 39.048C957.628 38.216 958.252 37.112 958.54 35.736H952.804V33.72H960.844C960.844 36.264 960.108 38.336 958.636 39.936C957.164 41.52 955.356 42.312 953.212 42.312C950.876 42.312 948.908 41.52 947.308 39.936C945.724 38.352 944.932 36.384 944.932 34.032C944.932 31.68 945.716 29.712 947.284 28.128C948.852 26.544 950.796 25.752 953.116 25.752C954.668 25.752 956.06 26.144 957.292 26.928C958.54 27.696 959.5 28.728 960.172 30.024H957.7C957.204 29.336 956.556 28.792 955.756 28.392C954.972 27.976 954.092 27.768 953.116 27.768ZM968.299 34.056L973.051 26.064H975.355L969.355 36.072V42H967.195V36.072L961.195 26.064H963.571L968.299 34.056Z" fill="#150A3C"/>
<path d="M1061.05 0C1047.01 0.000120957 1034.78 9.57057 1031.4 23.1982C1029.2 32.0422 1014.99 59.0625 1005.88 59.0625H-22C-22.5523 59.0625 -23 59.5102 -23 60.0625V1804C-23 1820.57 -9.56854 1834 7 1834H1394C1410.57 1834 1424 1820.57 1424 1804V60.0625C1424 59.5102 1423.55 59.0625 1423 59.0625H1394.12C1385.01 59.0625 1370.8 32.0433 1368.6 23.1992C1365.23 9.57091 1352.99 0 1338.95 0H1061.05Z" fill="url(#paint0_linear_1212_4940)"/>
<path d="M1097.86 29.264C1095.46 29.264 1093.47 30.104 1091.88 31.784C1090.3 33.44 1089.51 35.528 1089.51 38.048C1089.51 40.568 1090.3 42.668 1091.88 44.348C1093.47 46.004 1095.46 46.832 1097.86 46.832C1100.48 46.832 1102.56 45.8 1104.12 43.736H1108.48C1107.5 45.824 1106.09 47.468 1104.27 48.668C1102.44 49.868 1100.31 50.468 1097.86 50.468C1094.36 50.468 1091.43 49.292 1089.08 46.94C1086.72 44.564 1085.55 41.6 1085.55 38.048C1085.55 34.496 1086.72 31.544 1089.08 29.192C1091.43 26.816 1094.36 25.628 1097.86 25.628C1100.28 25.628 1102.41 26.24 1104.23 27.464C1106.08 28.664 1107.5 30.308 1108.48 32.396H1104.12C1102.56 30.308 1100.48 29.264 1097.86 29.264ZM1114.88 29.228C1117.23 26.828 1120.18 25.628 1123.74 25.628C1127.29 25.628 1130.23 26.828 1132.56 29.228C1134.91 31.628 1136.08 34.568 1136.08 38.048C1136.08 41.528 1134.91 44.468 1132.56 46.868C1130.23 49.268 1127.29 50.468 1123.74 50.468C1120.18 50.468 1117.23 49.268 1114.88 46.868C1112.55 44.468 1111.39 41.528 1111.39 38.048C1111.39 34.568 1112.55 31.628 1114.88 29.228ZM1117.72 44.312C1119.33 45.992 1121.34 46.832 1123.74 46.832C1126.14 46.832 1128.13 45.992 1129.71 44.312C1131.32 42.632 1132.12 40.544 1132.12 38.048C1132.12 35.552 1131.32 33.464 1129.71 31.784C1128.13 30.104 1126.14 29.264 1123.74 29.264C1121.34 29.264 1119.33 30.104 1117.72 31.784C1116.14 33.464 1115.35 35.552 1115.35 38.048C1115.35 40.544 1116.14 42.632 1117.72 44.312ZM1158.17 26.096H1162.13V50H1157.77L1144.52 31.964V50H1140.56V26.096H1144.92L1158.17 44.132V26.096ZM1165.9 43.736H1170.04C1171.19 45.8 1173.34 46.832 1176.48 46.832C1178.16 46.832 1179.52 46.508 1180.55 45.86C1181.61 45.212 1182.14 44.36 1182.14 43.304C1182.14 42.296 1181.76 41.54 1181.02 41.036C1180.3 40.508 1179.15 40.16 1177.56 39.992L1173.42 39.56C1171.1 39.344 1169.37 38.648 1168.24 37.472C1167.11 36.296 1166.55 34.796 1166.55 32.972C1166.55 30.788 1167.39 29.024 1169.07 27.68C1170.77 26.312 1173.05 25.628 1175.91 25.628C1178.62 25.628 1180.88 26.3 1182.68 27.644C1184.48 28.964 1185.66 30.548 1186.24 32.396H1182.06C1181.63 31.46 1180.84 30.704 1179.69 30.128C1178.54 29.552 1177.25 29.264 1175.84 29.264C1174.18 29.264 1172.87 29.612 1171.91 30.308C1170.98 30.98 1170.51 31.82 1170.51 32.828C1170.51 34.676 1171.83 35.732 1174.47 35.996L1178.9 36.464C1181.13 36.704 1182.88 37.424 1184.15 38.624C1185.45 39.8 1186.1 41.3 1186.1 43.124C1186.1 45.14 1185.24 46.868 1183.54 48.308C1181.86 49.748 1179.51 50.468 1176.48 50.468C1173.56 50.468 1171.22 49.844 1169.46 48.596C1167.74 47.324 1166.55 45.704 1165.9 43.736ZM1190.17 40.064V26.096H1194.13V40.028C1194.13 42.236 1194.69 43.928 1195.82 45.104C1196.97 46.256 1198.57 46.832 1200.61 46.832C1202.65 46.832 1204.23 46.256 1205.36 45.104C1206.51 43.928 1207.09 42.236 1207.09 40.028V26.096H1211.05V40.064C1211.05 43.352 1210.11 45.908 1208.24 47.732C1206.37 49.556 1203.82 50.468 1200.61 50.468C1197.39 50.468 1194.85 49.556 1192.97 47.732C1191.1 45.908 1190.17 43.352 1190.17 40.064ZM1220.67 26.096V46.364H1233.2V50H1216.71V26.096H1220.67ZM1230.97 26.096H1250.99V29.732H1242.96V50H1239V29.732H1230.97V26.096ZM1258.71 26.096V50H1254.75V26.096H1258.71ZM1282.16 26.096H1286.12V50H1281.77L1268.52 31.964V50H1264.56V26.096H1268.92L1282.16 44.132V26.096ZM1302.89 29.264C1300.49 29.264 1298.5 30.104 1296.92 31.784C1295.33 33.44 1294.54 35.528 1294.54 38.048C1294.54 40.568 1295.33 42.668 1296.92 44.348C1298.5 46.004 1300.49 46.832 1302.89 46.832C1304.81 46.832 1306.4 46.304 1307.64 45.248C1308.92 44.192 1309.77 42.752 1310.2 40.928H1301.99V37.292H1314.45C1314.45 41.204 1313.36 44.384 1311.17 46.832C1308.99 49.256 1306.25 50.468 1302.96 50.468C1299.44 50.468 1296.48 49.292 1294.11 46.94C1291.76 44.564 1290.58 41.6 1290.58 38.048C1290.58 34.496 1291.76 31.544 1294.11 29.192C1296.46 26.816 1299.39 25.628 1302.89 25.628C1305.34 25.628 1307.49 26.24 1309.34 27.464C1311.21 28.688 1312.64 30.332 1313.62 32.396H1309.23C1307.67 30.308 1305.56 29.264 1302.89 29.264Z" fill="white"/>
</g>
<defs>
<linearGradient id="paint0_linear_1212_4940" x1="700.5" y1="0" x2="700.5" y2="1834" gradientUnits="userSpaceOnUse">
<stop stop-color="#130839"/>
<stop offset="0.360577" stop-color="#282251"/>
<stop offset="0.764423" stop-color="#793971"/>
<stop offset="1" stop-color="#CC7897"/>
</linearGradient>
<clipPath id="clip0_1212_4940">
<rect width="1424" height="59" fill="white"/>
</clipPath>
</defs>
</svg>
