<svg width="1424" height="58" viewBox="0 0 1424 58" fill="none" xmlns="http://www.w3.org/2000/svg">
<g clip-path="url(#clip0_1286_3627)">
<mask id="path-1-inside-1_1286_3627" fill="white">
<path d="M1338.22 0C1355.48 0 1370.32 12.2513 1373.58 29.2012L1373.77 30.2012C1376.23 42.9749 1386.21 63 1399.21 63H2193C2221.72 63 2245 86.2812 2245 115V1762.77C2245 1791.49 2221.72 1814.77 2193 1814.77H850C821.281 1814.77 798 1791.49 798 1762.77V115C798 86.2811 821.281 63 850 63H1034.79C1047.79 63 1057.78 42.9734 1060.23 30.1992L1060.43 29.1992C1063.69 12.2501 1078.52 4.94698e-05 1095.78 0H1338.22Z"/>
</mask>
<path d="M1338.22 0C1355.48 0 1370.32 12.2513 1373.58 29.2012L1373.77 30.2012C1376.23 42.9749 1386.21 63 1399.21 63H2193C2221.72 63 2245 86.2812 2245 115V1762.77C2245 1791.49 2221.72 1814.77 2193 1814.77H850C821.281 1814.77 798 1791.49 798 1762.77V115C798 86.2811 821.281 63 850 63H1034.79C1047.79 63 1057.78 42.9734 1060.23 30.1992L1060.43 29.1992C1063.69 12.2501 1078.52 4.94698e-05 1095.78 0H1338.22Z" fill="white"/>
<path d="M1373.58 29.2012L1371.61 29.5789V29.579L1373.58 29.2012ZM1373.77 30.2012L1375.73 29.8235V29.8233L1373.77 30.2012ZM1060.23 30.1992L1058.27 29.8214V29.8214L1060.23 30.1992ZM1060.43 29.1992L1062.39 29.5771V29.577L1060.43 29.1992ZM1095.78 0V-2V-2V0ZM1338.22 0V2C1354.53 2 1368.53 13.5707 1371.61 29.5789L1373.58 29.2012L1375.54 28.8234C1372.1 10.9319 1356.44 -2 1338.22 -2V0ZM1373.58 29.2012L1371.61 29.579L1371.8 30.579L1373.77 30.2012L1375.73 29.8233L1375.54 28.8233L1373.58 29.2012ZM1399.21 63V65H2193V63V61H1399.21V63ZM2245 115H2243V1762.77H2245H2247V115H2245ZM2193 1814.77V1812.77H850V1814.77V1816.77H2193V1814.77ZM798 1762.77H800V115H798H796V1762.77H798ZM850 63V65H1034.79V63V61H850V63ZM1060.23 30.1992L1062.2 30.5771L1062.39 29.5771L1060.43 29.1992L1058.46 28.8214L1058.27 29.8214L1060.23 30.1992ZM1060.43 29.1992L1062.39 29.577C1065.47 13.5695 1079.48 2.00005 1095.78 2V0V-2C1077.56 -1.99995 1061.9 10.9307 1058.46 28.8214L1060.43 29.1992ZM1095.78 0V2H1338.22V0V-2H1095.78V0ZM1034.79 63V65C1042.34 65 1048.61 59.2407 1053.13 52.504C1057.71 45.6638 1060.92 37.2101 1062.2 30.577L1060.23 30.1992L1058.27 29.8214C1057.09 35.9626 1054.08 43.9093 1049.81 50.2759C1045.47 56.746 1040.24 61 1034.79 61V63ZM798 115H800C800 87.3857 822.386 65 850 65V63V61C820.177 61 796 85.1766 796 115H798ZM850 1814.77V1812.77C822.386 1812.77 800 1790.38 800 1762.77H798H796C796 1792.59 820.177 1816.77 850 1816.77V1814.77ZM2245 1762.77H2243C2243 1790.38 2220.61 1812.77 2193 1812.77V1814.77V1816.77C2222.82 1816.77 2247 1792.59 2247 1762.77H2245ZM2193 63V65C2220.61 65 2243 87.3858 2243 115H2245H2247C2247 85.1766 2222.82 61 2193 61V63ZM1373.77 30.2012L1371.8 30.5789C1373.08 37.2117 1376.29 45.665 1380.87 52.5047C1385.39 59.2411 1391.66 65 1399.21 65V63V61C1393.76 61 1388.53 56.7464 1384.2 50.2767C1379.93 43.9105 1376.91 35.9643 1375.73 29.8235L1373.77 30.2012Z" fill="#150A3C" mask="url(#path-1-inside-1_1286_3627)"/>
<mask id="path-3-inside-2_1286_3627" fill="white">
<path d="M1083.22 0C1100.48 0 1115.32 12.2513 1118.58 29.2012L1118.77 30.2002C1121.23 42.9742 1131.21 63 1144.22 63H1735C1763.72 63 1787 86.2812 1787 115V1762.77C1787 1791.49 1763.72 1814.77 1735 1814.77H392C363.281 1814.77 340 1791.49 340 1762.77V115C340 86.2811 363.281 63 392 63H779.785C792.794 63 802.776 42.9735 805.233 30.1992L805.426 29.1992C808.686 12.2501 823.517 5.08549e-05 840.777 0H1083.22Z"/>
</mask>
<path d="M1083.22 0C1100.48 0 1115.32 12.2513 1118.58 29.2012L1118.77 30.2002C1121.23 42.9742 1131.21 63 1144.22 63H1735C1763.72 63 1787 86.2812 1787 115V1762.77C1787 1791.49 1763.72 1814.77 1735 1814.77H392C363.281 1814.77 340 1791.49 340 1762.77V115C340 86.2811 363.281 63 392 63H779.785C792.794 63 802.776 42.9735 805.233 30.1992L805.426 29.1992C808.686 12.2501 823.517 5.08549e-05 840.777 0H1083.22Z" fill="white"/>
<path d="M1118.58 29.2012L1116.61 29.5789L1116.61 29.5794L1118.58 29.2012ZM1118.77 30.2002L1120.73 29.8225L1120.73 29.822L1118.77 30.2002ZM805.233 30.1992L803.269 29.8214V29.8214L805.233 30.1992ZM805.426 29.1992L807.39 29.5771V29.577L805.426 29.1992ZM840.777 0V-2V-2V0ZM1083.22 0V2C1099.53 2 1113.53 13.5707 1116.61 29.5789L1118.58 29.2012L1120.54 28.8234C1117.1 10.9319 1101.44 -2 1083.22 -2V0ZM1118.58 29.2012L1116.61 29.5794L1116.8 30.5784L1118.77 30.2002L1120.73 29.822L1120.54 28.823L1118.58 29.2012ZM1144.22 63V65H1735V63V61H1144.22V63ZM1787 115H1785V1762.77H1787H1789V115H1787ZM1735 1814.77V1812.77H392V1814.77V1816.77H1735V1814.77ZM340 1762.77H342V115H340H338V1762.77H340ZM392 63V65H779.785V63V61H392V63ZM805.233 30.1992L807.197 30.5771L807.39 29.5771L805.426 29.1992L803.462 28.8214L803.269 29.8214L805.233 30.1992ZM805.426 29.1992L807.39 29.577C810.469 13.5695 824.476 2.00005 840.777 2V0V-2C822.559 -1.99995 806.904 10.9307 803.462 28.8214L805.426 29.1992ZM840.777 0V2H1083.22V0V-2H840.777V0ZM779.785 63V65C787.339 65 793.609 59.2407 798.127 52.504C802.715 45.6638 805.921 37.2101 807.197 30.577L805.233 30.1992L803.269 29.8214C802.088 35.9626 799.075 43.9093 794.805 50.2759C790.466 56.746 785.24 61 779.785 61V63ZM340 115H342C342 87.3857 364.386 65 392 65V63V61C362.177 61 338 85.1766 338 115H340ZM392 1814.77V1812.77C364.386 1812.77 342 1790.38 342 1762.77H340H338C338 1792.59 362.177 1816.77 392 1816.77V1814.77ZM1787 1762.77H1785C1785 1790.38 1762.61 1812.77 1735 1812.77V1814.77V1816.77C1764.82 1816.77 1789 1792.59 1789 1762.77H1787ZM1735 63V65C1762.61 65 1785 87.3858 1785 115H1787H1789C1789 85.1766 1764.82 61 1735 61V63ZM1118.77 30.2002L1116.8 30.5779C1118.08 37.2109 1121.29 45.6644 1125.87 52.5044C1130.39 59.2409 1136.66 65 1144.22 65V63V61C1138.76 61 1133.54 56.7462 1129.2 50.2764C1124.93 43.91 1121.91 35.9635 1120.73 29.8225L1118.77 30.2002Z" fill="#150A3C" mask="url(#path-3-inside-2_1286_3627)"/>
<mask id="path-5-inside-3_1286_3627" fill="white">
<path d="M845.224 0C862.484 0 877.316 12.2513 880.576 29.2012L880.769 30.2002C883.225 42.9742 893.207 63 906.215 63H915.732C925.821 63 934 71.1788 934 81.2678V1763C934 1791.72 910.719 1815 882 1815H-438C-466.719 1815 -490 1791.72 -490 1763V115C-490 86.2812 -466.719 63 -438 63H541.785C554.794 63 564.776 42.9735 567.233 30.1992L567.426 29.1992C570.686 12.2501 585.517 5.08549e-05 602.777 0H845.224Z"/>
</mask>
<path d="M845.224 0C862.484 0 877.316 12.2513 880.576 29.2012L880.769 30.2002C883.225 42.9742 893.207 63 906.215 63H915.732C925.821 63 934 71.1788 934 81.2678V1763C934 1791.72 910.719 1815 882 1815H-438C-466.719 1815 -490 1791.72 -490 1763V115C-490 86.2812 -466.719 63 -438 63H541.785C554.794 63 564.776 42.9735 567.233 30.1992L567.426 29.1992C570.686 12.2501 585.517 5.08549e-05 602.777 0H845.224Z" fill="white"/>
<path d="M880.576 29.2012L878.612 29.5789L878.612 29.5794L880.576 29.2012ZM880.769 30.2002L882.733 29.8225L882.732 29.822L880.769 30.2002ZM567.233 30.1992L565.269 29.8214V29.8214L567.233 30.1992ZM567.426 29.1992L569.39 29.5771V29.577L567.426 29.1992ZM602.777 0V-2V-2V0ZM845.224 0V2C861.525 2 875.533 13.5707 878.612 29.5789L880.576 29.2012L882.54 28.8234C879.099 10.9319 863.443 -2 845.224 -2V0ZM880.576 29.2012L878.612 29.5794L878.805 30.5784L880.769 30.2002L882.732 29.822L882.54 28.823L880.576 29.2012ZM906.215 63V65H915.732V63V61H906.215V63ZM934 81.2679H932V1763H934H936V81.2679H934ZM882 1815V1813H-438V1815V1817H882V1815ZM-490 1763H-488V115H-490H-492V1763H-490ZM-438 63V65H541.785V63V61H-438V63ZM567.233 30.1992L569.197 30.5771L569.39 29.5771L567.426 29.1992L565.462 28.8214L565.269 29.8214L567.233 30.1992ZM567.426 29.1992L569.39 29.577C572.469 13.5695 586.476 2.00005 602.777 2V0V-2C584.558 -1.99995 568.904 10.9307 565.462 28.8214L567.426 29.1992ZM602.777 0V2H845.224V0V-2H602.777V0ZM541.785 63V65C549.339 65 555.609 59.2407 560.127 52.504C564.715 45.6638 567.921 37.2101 569.197 30.577L567.233 30.1992L565.269 29.8214C564.088 35.9626 561.075 43.9093 556.805 50.2759C552.466 56.746 547.24 61 541.785 61V63ZM-490 115H-488C-488 87.3858 -465.614 65 -438 65V63V61C-467.823 61 -492 85.1766 -492 115H-490ZM-438 1815V1813C-465.614 1813 -488 1790.61 -488 1763H-490H-492C-492 1792.82 -467.823 1817 -438 1817V1815ZM934 1763H932C932 1790.61 909.614 1813 882 1813V1815V1817C911.823 1817 936 1792.82 936 1763H934ZM915.732 63V65C924.717 65 932 72.2834 932 81.2679H934H936C936 70.0742 926.926 61 915.732 61V63ZM880.769 30.2002L878.805 30.5779C880.08 37.2109 883.287 45.6644 887.874 52.5044C892.392 59.2409 898.662 65 906.215 65V63V61C900.761 61 895.535 56.7462 891.196 50.2764C886.927 43.91 883.914 35.9635 882.733 29.8225L880.769 30.2002Z" fill="#150A3C" mask="url(#path-5-inside-3_1286_3627)"/>
<mask id="path-7-inside-4_1286_3627" fill="white">
<path d="M668.308 0C684.204 0 698.218 10.4255 702.788 25.6504L703.088 26.6504C707.212 40.3894 718.726 63 733.071 63H867C895.719 63 919 86.2812 919 115V1762.77C919 1791.49 895.719 1814.77 867 1814.77H-476C-504.719 1814.77 -528 1791.49 -528 1762.77V115C-528 86.2811 -504.719 63 -476 63H185.931C200.276 63 211.791 40.3885 215.915 26.6494L216.215 25.6494C220.785 10.4253 234.799 0.000162953 250.694 0H668.308Z"/>
</mask>
<path d="M668.308 0C684.204 0 698.218 10.4255 702.788 25.6504L703.088 26.6504C707.212 40.3894 718.726 63 733.071 63H867C895.719 63 919 86.2812 919 115V1762.77C919 1791.49 895.719 1814.77 867 1814.77H-476C-504.719 1814.77 -528 1791.49 -528 1762.77V115C-528 86.2811 -504.719 63 -476 63H185.931C200.276 63 211.791 40.3885 215.915 26.6494L216.215 25.6494C220.785 10.4253 234.799 0.000162953 250.694 0H668.308Z" fill="white"/>
<path d="M702.788 25.6504L704.704 25.076L704.704 25.0754L702.788 25.6504ZM703.088 26.6504L701.172 27.2247L701.172 27.2254L703.088 26.6504ZM215.915 26.6494L217.831 27.2245L217.831 27.2238L215.915 26.6494ZM216.215 25.6494L214.299 25.0744L214.299 25.0751L216.215 25.6494ZM250.694 0V-2V-2V0ZM668.308 0V2C683.32 2 696.557 11.8463 700.873 26.2254L702.788 25.6504L704.704 25.0754C699.88 9.00467 685.087 -2 668.308 -2V0ZM702.788 25.6504L700.872 26.2247L701.172 27.2247L703.088 26.6504L705.004 26.076L704.704 25.076L702.788 25.6504ZM733.071 63V65H867V63V61H733.071V63ZM919 115H917V1762.77H919H921V115H919ZM867 1814.77V1812.77H-476V1814.77V1816.77H867V1814.77ZM-528 1762.77H-526V115H-528H-530V1762.77H-528ZM-476 63V65H185.931V63V61H-476V63ZM215.915 26.6494L217.831 27.2238L218.131 26.2238L216.215 25.6494L214.299 25.0751L213.999 26.0751L215.915 26.6494ZM216.215 25.6494L218.13 26.2245C222.447 11.8461 235.682 2.00015 250.694 2V0V-2C233.916 -1.99983 219.124 9.00452 214.299 25.0744L216.215 25.6494ZM250.694 0V2H668.308V0V-2H250.694V0ZM185.931 63V65C194.154 65 201.141 58.587 206.391 51.128C211.728 43.5458 215.721 34.2527 217.831 27.2245L215.915 26.6494L214 26.0744C211.985 32.7852 208.158 41.6674 203.12 48.8257C197.995 56.1072 192.053 61 185.931 61V63ZM-528 115H-526C-526 87.3857 -503.614 65 -476 65V63V61C-505.823 61 -530 85.1766 -530 115H-528ZM-476 1814.77V1812.77C-503.614 1812.77 -526 1790.38 -526 1762.77H-528H-530C-530 1792.59 -505.823 1816.77 -476 1816.77V1814.77ZM919 1762.77H917C917 1790.38 894.614 1812.77 867 1812.77V1814.77V1816.77C896.823 1816.77 921 1792.59 921 1762.77H919ZM867 63V65C894.614 65 917 87.3858 917 115H919H921C921 85.1766 896.823 61 867 61V63ZM703.088 26.6504L701.172 27.2254C703.282 34.2535 707.275 43.5465 712.611 51.1284C717.861 58.5872 724.848 65 733.071 65V63V61C726.948 61 721.007 56.1074 715.882 48.8262C710.844 41.6681 707.018 32.7862 705.003 26.0754L703.088 26.6504Z" fill="#150A3C" mask="url(#path-7-inside-4_1286_3627)"/>
<path d="M97.7158 0C83.0483 0 70.5188 10.5782 68.0596 25.0381C66.6016 33.6109 54.3598 58 45.6638 58H1C0.447715 58 0 58.4477 0 59V1771C0 1787.57 13.4315 1801 30 1801H1396C1412.57 1801 1426 1787.57 1426 1771V59C1426 58.4477 1425.55 58 1425 58H318.966C310.27 58 298.029 33.612 296.571 25.0391C294.112 10.579 281.584 0.000166476 266.916 0H97.7158Z" fill="url(#paint0_linear_1286_3627)"/>
</g>
<defs>
<linearGradient id="paint0_linear_1286_3627" x1="713" y1="0" x2="713" y2="1801" gradientUnits="userSpaceOnUse">
<stop stop-color="#130839"/>
<stop offset="0.360577" stop-color="#282251"/>
<stop offset="0.764423" stop-color="#793971"/>
<stop offset="1" stop-color="#CC7897"/>
</linearGradient>
<clipPath id="clip0_1286_3627">
<rect width="1424" height="58" fill="white"/>
</clipPath>
</defs>
</svg>
