<svg width="1424" height="59" viewBox="0 0 1424 59" fill="none" xmlns="http://www.w3.org/2000/svg">
<g clip-path="url(#clip0_1286_3653)">
<mask id="path-1-inside-1_1286_3653" fill="white">
<path d="M1347.22 0C1364.48 0 1379.32 12.2513 1382.58 29.2012L1382.77 30.2012C1385.23 42.9749 1395.21 63 1408.21 63H1414.88C1424.33 63 1432 70.6651 1432 80.1205V1763C1432 1791.72 1408.72 1815 1380 1815H61C32.2812 1815 9 1791.72 9 1763V115C9 86.2812 32.2812 63 61 63H1043.79C1056.79 63 1066.78 42.9734 1069.23 30.1992L1069.43 29.1992C1072.69 12.2501 1087.52 4.94698e-05 1104.78 0H1347.22Z"/>
</mask>
<path d="M1347.22 0C1364.48 0 1379.32 12.2513 1382.58 29.2012L1382.77 30.2012C1385.23 42.9749 1395.21 63 1408.21 63H1414.88C1424.33 63 1432 70.6651 1432 80.1205V1763C1432 1791.72 1408.72 1815 1380 1815H61C32.2812 1815 9 1791.72 9 1763V115C9 86.2812 32.2812 63 61 63H1043.79C1056.79 63 1066.78 42.9734 1069.23 30.1992L1069.43 29.1992C1072.69 12.2501 1087.52 4.94698e-05 1104.78 0H1347.22Z" fill="white"/>
<path d="M1382.58 29.2012L1380.61 29.5789V29.579L1382.58 29.2012ZM1382.77 30.2012L1384.73 29.8235V29.8233L1382.77 30.2012ZM1069.23 30.1992L1067.27 29.8214V29.8214L1069.23 30.1992ZM1069.43 29.1992L1071.39 29.5771V29.577L1069.43 29.1992ZM1104.78 0V-2V-2V0ZM1347.22 0V2C1363.53 2 1377.53 13.5707 1380.61 29.5789L1382.58 29.2012L1384.54 28.8234C1381.1 10.9319 1365.44 -2 1347.22 -2V0ZM1382.58 29.2012L1380.61 29.579L1380.8 30.579L1382.77 30.2012L1384.73 29.8233L1384.54 28.8233L1382.58 29.2012ZM1408.21 63V65H1414.88V63V61H1408.21V63ZM1432 80.1205H1430V1763H1432H1434V80.1205H1432ZM1380 1815V1813H61V1815V1817H1380V1815ZM9 1763H11V115H9H7V1763H9ZM61 63V65H1043.79V63V61H61V63ZM1069.23 30.1992L1071.2 30.5771L1071.39 29.5771L1069.43 29.1992L1067.46 28.8214L1067.27 29.8214L1069.23 30.1992ZM1069.43 29.1992L1071.39 29.577C1074.47 13.5695 1088.48 2.00005 1104.78 2V0V-2C1086.56 -1.99995 1070.9 10.9307 1067.46 28.8214L1069.43 29.1992ZM1104.78 0V2H1347.22V0V-2H1104.78V0ZM1043.79 63V65C1051.34 65 1057.61 59.2407 1062.13 52.504C1066.71 45.6638 1069.92 37.2101 1071.2 30.577L1069.23 30.1992L1067.27 29.8214C1066.09 35.9626 1063.08 43.9093 1058.81 50.2759C1054.47 56.746 1049.24 61 1043.79 61V63ZM9 115H11C11 87.3858 33.3858 65 61 65V63V61C31.1766 61 7 85.1766 7 115H9ZM61 1815V1813C33.3858 1813 11 1790.61 11 1763H9H7C7 1792.82 31.1767 1817 61 1817V1815ZM1432 1763H1430C1430 1790.61 1407.61 1813 1380 1813V1815V1817C1409.82 1817 1434 1792.82 1434 1763H1432ZM1414.88 63V65C1423.23 65 1430 71.7697 1430 80.1205H1432H1434C1434 69.5605 1425.44 61 1414.88 61V63ZM1382.77 30.2012L1380.8 30.5789C1382.08 37.2117 1385.29 45.665 1389.87 52.5047C1394.39 59.2411 1400.66 65 1408.21 65V63V61C1402.76 61 1397.53 56.7464 1393.2 50.2767C1388.93 43.9105 1385.91 35.9643 1384.73 29.8235L1382.77 30.2012Z" fill="#150A3C" mask="url(#path-1-inside-1_1286_3653)"/>
<mask id="path-3-inside-2_1286_3653" fill="white">
<path d="M1092.22 0C1109.48 0 1124.32 12.2513 1127.58 29.2012L1127.77 30.2002C1130.23 42.9742 1140.21 63 1153.22 63H1380C1408.72 63 1432 86.2812 1432 115V1763C1432 1791.72 1408.72 1815 1380 1815H44C15.2812 1815 -8 1791.72 -8 1763V115C-8 86.2812 15.2812 63 44 63H788.786C801.794 63 811.776 42.9735 814.233 30.1992L814.426 29.1992C817.686 12.2501 832.517 5.08549e-05 849.777 0H1092.22Z"/>
</mask>
<path d="M1092.22 0C1109.48 0 1124.32 12.2513 1127.58 29.2012L1127.77 30.2002C1130.23 42.9742 1140.21 63 1153.22 63H1380C1408.72 63 1432 86.2812 1432 115V1763C1432 1791.72 1408.72 1815 1380 1815H44C15.2812 1815 -8 1791.72 -8 1763V115C-8 86.2812 15.2812 63 44 63H788.786C801.794 63 811.776 42.9735 814.233 30.1992L814.426 29.1992C817.686 12.2501 832.517 5.08549e-05 849.777 0H1092.22Z" fill="white"/>
<path d="M1127.58 29.2012L1125.61 29.5789L1125.61 29.5794L1127.58 29.2012ZM1127.77 30.2002L1129.73 29.8225L1129.73 29.822L1127.77 30.2002ZM814.233 30.1992L812.269 29.8214V29.8214L814.233 30.1992ZM814.426 29.1992L816.39 29.5771V29.577L814.426 29.1992ZM849.777 0V-2V-2V0ZM1092.22 0V2C1108.53 2 1122.53 13.5707 1125.61 29.5789L1127.58 29.2012L1129.54 28.8234C1126.1 10.9319 1110.44 -2 1092.22 -2V0ZM1127.58 29.2012L1125.61 29.5794L1125.8 30.5784L1127.77 30.2002L1129.73 29.822L1129.54 28.823L1127.58 29.2012ZM1153.22 63V65H1380V63V61H1153.22V63ZM1432 115H1430V1763H1432H1434V115H1432ZM1380 1815V1813H44V1815V1817H1380V1815ZM-8 1763H-6V115H-8H-10V1763H-8ZM44 63V65H788.786V63V61H44V63ZM814.233 30.1992L816.197 30.5771L816.39 29.5771L814.426 29.1992L812.462 28.8214L812.269 29.8214L814.233 30.1992ZM814.426 29.1992L816.39 29.577C819.469 13.5695 833.476 2.00005 849.777 2V0V-2C831.559 -1.99995 815.904 10.9307 812.462 28.8214L814.426 29.1992ZM849.777 0V2H1092.22V0V-2H849.777V0ZM788.786 63V65C796.339 65 802.609 59.2407 807.127 52.504C811.715 45.6638 814.921 37.2101 816.197 30.577L814.233 30.1992L812.269 29.8214C811.088 35.9626 808.075 43.9093 803.805 50.2759C799.466 56.746 794.24 61 788.786 61V63ZM-8 115H-6C-6 87.3858 16.3858 65 44 65V63V61C14.1766 61 -10 85.1766 -10 115H-8ZM44 1815V1813C16.3858 1813 -6 1790.61 -6 1763H-8H-10C-10 1792.82 14.1766 1817 44 1817V1815ZM1432 1763H1430C1430 1790.61 1407.61 1813 1380 1813V1815V1817C1409.82 1817 1434 1792.82 1434 1763H1432ZM1380 63V65C1407.61 65 1430 87.3858 1430 115H1432H1434C1434 85.1766 1409.82 61 1380 61V63ZM1127.77 30.2002L1125.8 30.5779C1127.08 37.2109 1130.29 45.6644 1134.87 52.5044C1139.39 59.2409 1145.66 65 1153.22 65V63V61C1147.76 61 1142.54 56.7462 1138.2 50.2764C1133.93 43.91 1130.91 35.9635 1129.73 29.8225L1127.77 30.2002Z" fill="#150A3C" mask="url(#path-3-inside-2_1286_3653)"/>
<mask id="path-5-inside-3_1286_3653" fill="white">
<path d="M854.224 0C871.484 0 886.316 12.2513 889.576 29.2012L889.769 30.2002C892.225 42.9742 902.207 63 915.215 63H1380C1408.72 63 1432 86.2812 1432 115V1763C1432 1791.72 1408.72 1815 1380 1815H61C32.2812 1815 9 1791.72 9 1763V115C9 86.2812 32.2812 63 61 63H550.786C563.794 63 573.776 42.9735 576.233 30.1992L576.426 29.1992C579.686 12.2501 594.517 5.08549e-05 611.777 0H854.224Z"/>
</mask>
<path d="M854.224 0C871.484 0 886.316 12.2513 889.576 29.2012L889.769 30.2002C892.225 42.9742 902.207 63 915.215 63H1380C1408.72 63 1432 86.2812 1432 115V1763C1432 1791.72 1408.72 1815 1380 1815H61C32.2812 1815 9 1791.72 9 1763V115C9 86.2812 32.2812 63 61 63H550.786C563.794 63 573.776 42.9735 576.233 30.1992L576.426 29.1992C579.686 12.2501 594.517 5.08549e-05 611.777 0H854.224Z" fill="white"/>
<path d="M889.576 29.2012L887.612 29.5789L887.612 29.5794L889.576 29.2012ZM889.769 30.2002L891.733 29.8225L891.732 29.822L889.769 30.2002ZM576.233 30.1992L574.269 29.8214V29.8214L576.233 30.1992ZM576.426 29.1992L578.39 29.5771V29.577L576.426 29.1992ZM611.777 0V-2V-2V0ZM854.224 0V2C870.525 2 884.533 13.5707 887.612 29.5789L889.576 29.2012L891.54 28.8234C888.099 10.9319 872.443 -2 854.224 -2V0ZM889.576 29.2012L887.612 29.5794L887.805 30.5784L889.769 30.2002L891.732 29.822L891.54 28.823L889.576 29.2012ZM915.215 63V65H1380V63V61H915.215V63ZM1432 115H1430V1763H1432H1434V115H1432ZM1380 1815V1813H61V1815V1817H1380V1815ZM9 1763H11V115H9H7V1763H9ZM61 63V65H550.786V63V61H61V63ZM576.233 30.1992L578.197 30.5771L578.39 29.5771L576.426 29.1992L574.462 28.8214L574.269 29.8214L576.233 30.1992ZM576.426 29.1992L578.39 29.577C581.469 13.5695 595.476 2.00005 611.777 2V0V-2C593.559 -1.99995 577.904 10.9307 574.462 28.8214L576.426 29.1992ZM611.777 0V2H854.224V0V-2H611.777V0ZM550.786 63V65C558.339 65 564.609 59.2407 569.127 52.504C573.715 45.6638 576.921 37.2101 578.197 30.577L576.233 30.1992L574.269 29.8214C573.088 35.9626 570.075 43.9093 565.805 50.2759C561.466 56.746 556.24 61 550.786 61V63ZM9 115H11C11 87.3858 33.3858 65 61 65V63V61C31.1766 61 7 85.1766 7 115H9ZM61 1815V1813C33.3858 1813 11 1790.61 11 1763H9H7C7 1792.82 31.1767 1817 61 1817V1815ZM1432 1763H1430C1430 1790.61 1407.61 1813 1380 1813V1815V1817C1409.82 1817 1434 1792.82 1434 1763H1432ZM1380 63V65C1407.61 65 1430 87.3858 1430 115H1432H1434C1434 85.1766 1409.82 61 1380 61V63ZM889.769 30.2002L887.805 30.5779C889.08 37.2109 892.287 45.6644 896.874 52.5044C901.392 59.2409 907.662 65 915.215 65V63V61C909.761 61 904.535 56.7462 900.196 50.2764C895.926 43.91 892.914 35.9635 891.733 29.8225L889.769 30.2002Z" fill="#150A3C" mask="url(#path-5-inside-3_1286_3653)"/>
<mask id="path-7-inside-4_1286_3653" fill="white">
<path d="M517.308 0C533.204 0 547.218 10.4255 551.788 25.6504L552.088 26.6504C556.212 40.3894 567.726 63 582.071 63H1421C1449.72 63 1473 86.2812 1473 115V1763C1473 1791.72 1449.72 1815 1421 1815H23C-5.71878 1815 -29 1791.72 -29 1763V92.7124C-29 76.3027 -15.6973 63 0.712428 63H34.9311C49.2759 63 60.7906 40.3885 64.915 26.6494L65.2148 25.6494C69.7852 10.4253 83.7991 0.000162953 99.6943 0H517.308Z"/>
</mask>
<path d="M517.308 0C533.204 0 547.218 10.4255 551.788 25.6504L552.088 26.6504C556.212 40.3894 567.726 63 582.071 63H1421C1449.72 63 1473 86.2812 1473 115V1763C1473 1791.72 1449.72 1815 1421 1815H23C-5.71878 1815 -29 1791.72 -29 1763V92.7124C-29 76.3027 -15.6973 63 0.712428 63H34.9311C49.2759 63 60.7906 40.3885 64.915 26.6494L65.2148 25.6494C69.7852 10.4253 83.7991 0.000162953 99.6943 0H517.308Z" fill="white"/>
<path d="M551.788 25.6504L553.704 25.076L553.704 25.0754L551.788 25.6504ZM552.088 26.6504L550.172 27.2247L550.172 27.2254L552.088 26.6504ZM64.915 26.6494L66.8306 27.2245L66.8308 27.2238L64.915 26.6494ZM65.2148 25.6494L63.2993 25.0744L63.2991 25.0751L65.2148 25.6494ZM99.6943 0V-2H99.6943L99.6943 0ZM517.308 0V2C532.32 2 545.557 11.8463 549.872 26.2254L551.788 25.6504L553.704 25.0754C548.88 9.00467 534.087 -2 517.308 -2V0ZM551.788 25.6504L549.872 26.2247L550.172 27.2247L552.088 26.6504L554.004 26.076L553.704 25.076L551.788 25.6504ZM582.071 63V65H1421V63V61H582.071V63ZM1473 115H1471V1763H1473H1475V115H1473ZM1421 1815V1813H23V1815V1817H1421V1815ZM-29 1763H-27V92.7124H-29H-31V1763H-29ZM0.712427 63V65H34.9311V63V61H0.712427V63ZM64.915 26.6494L66.8308 27.2238L67.1306 26.2238L65.2148 25.6494L63.2991 25.0751L62.9993 26.0751L64.915 26.6494ZM65.2148 25.6494L67.1304 26.2245C71.4468 11.8461 84.6822 2.00015 99.6944 2L99.6943 0L99.6943 -2C82.9159 -1.99983 68.1235 9.00452 63.2993 25.0744L65.2148 25.6494ZM99.6943 0V2H517.308V0V-2H99.6943V0ZM34.9311 63V65C43.1536 65 50.1414 58.587 55.3912 51.128C60.7277 43.5458 64.7207 34.2527 66.8306 27.2245L64.915 26.6494L62.9995 26.0744C60.9849 32.7852 57.1584 41.6674 52.1202 48.8257C46.9953 56.1072 41.0534 61 34.9311 61V63ZM-29 92.7124H-27C-27 77.4072 -14.5927 65 0.712427 65V63V61C-16.8019 61 -31 75.1981 -31 92.7124H-29ZM23 1815V1813C-4.61421 1813 -27 1790.61 -27 1763H-29H-31C-31 1792.82 -6.82335 1817 23 1817V1815ZM1473 1763H1471C1471 1790.61 1448.61 1813 1421 1813V1815V1817C1450.82 1817 1475 1792.82 1475 1763H1473ZM1421 63V65C1448.61 65 1471 87.3858 1471 115H1473H1475C1475 85.1766 1450.82 61 1421 61V63ZM552.088 26.6504L550.172 27.2254C552.282 34.2535 556.275 43.5465 561.611 51.1284C566.861 58.5872 573.848 65 582.071 65V63V61C575.948 61 570.007 56.1074 564.882 48.8262C559.844 41.6681 556.018 32.7862 554.003 26.0754L552.088 26.6504Z" fill="#150A3C" mask="url(#path-7-inside-4_1286_3653)"/>
<path d="M219.293 0C207.001 3.1817e-06 195.924 7.41805 191.244 18.7842C187.449 28.0015 169.991 58.6445 160.023 58.6445H-11C-11.5523 58.6445 -12 59.0922 -12 59.6445V1791C-12 1807.57 1.43146 1821 18 1821H1405C1421.57 1821 1435 1807.57 1435 1791V59.6445C1435 59.0922 1434.55 58.6445 1434 58.6445H774.978C765.011 58.6445 747.553 28.0028 743.759 18.7861C739.079 7.41914 728.002 5.86723e-05 715.71 0H219.293Z" fill="url(#paint0_linear_1286_3653)"/>
</g>
<defs>
<linearGradient id="paint0_linear_1286_3653" x1="711.5" y1="0" x2="711.5" y2="1821" gradientUnits="userSpaceOnUse">
<stop stop-color="#130839"/>
<stop offset="0.360577" stop-color="#282251"/>
<stop offset="0.764423" stop-color="#793971"/>
<stop offset="1" stop-color="#CC7897"/>
</linearGradient>
<clipPath id="clip0_1286_3653">
<rect width="1424" height="59" fill="white"/>
</clipPath>
</defs>
</svg>
