<svg width="1424" height="59" viewBox="0 0 1424 59" fill="none" xmlns="http://www.w3.org/2000/svg">
<g clip-path="url(#clip0_1286_3707)">
<mask id="path-1-inside-1_1286_3707" fill="white">
<path d="M1338.22 0C1355.48 0 1370.32 12.2513 1373.58 29.2012L1373.77 30.2012C1376.23 42.9749 1386.21 63 1399.21 63H1405.88C1415.33 63 1423 70.6651 1423 80.1205V1763C1423 1791.72 1399.72 1815 1371 1815H52C23.2812 1815 0 1791.72 0 1763V115C0 86.2812 23.2812 63 52 63H1034.79C1047.79 63 1057.78 42.9734 1060.23 30.1992L1060.43 29.1992C1063.69 12.2501 1078.52 4.94698e-05 1095.78 0H1338.22Z"/>
</mask>
<path d="M1338.22 0C1355.48 0 1370.32 12.2513 1373.58 29.2012L1373.77 30.2012C1376.23 42.9749 1386.21 63 1399.21 63H1405.88C1415.33 63 1423 70.6651 1423 80.1205V1763C1423 1791.72 1399.72 1815 1371 1815H52C23.2812 1815 0 1791.72 0 1763V115C0 86.2812 23.2812 63 52 63H1034.79C1047.79 63 1057.78 42.9734 1060.23 30.1992L1060.43 29.1992C1063.69 12.2501 1078.52 4.94698e-05 1095.78 0H1338.22Z" fill="white"/>
<path d="M1373.58 29.2012L1371.61 29.5789V29.579L1373.58 29.2012ZM1373.77 30.2012L1375.73 29.8235V29.8233L1373.77 30.2012ZM1060.23 30.1992L1058.27 29.8214V29.8214L1060.23 30.1992ZM1060.43 29.1992L1062.39 29.5771V29.577L1060.43 29.1992ZM1095.78 0V-2V-2V0ZM1338.22 0V2C1354.53 2 1368.53 13.5707 1371.61 29.5789L1373.58 29.2012L1375.54 28.8234C1372.1 10.9319 1356.44 -2 1338.22 -2V0ZM1373.58 29.2012L1371.61 29.579L1371.8 30.579L1373.77 30.2012L1375.73 29.8233L1375.54 28.8233L1373.58 29.2012ZM1399.21 63V65H1405.88V63V61H1399.21V63ZM1423 80.1205H1421V1763H1423H1425V80.1205H1423ZM1371 1815V1813H52V1815V1817H1371V1815ZM0 1763H2V115H0H-2V1763H0ZM52 63V65H1034.79V63V61H52V63ZM1060.23 30.1992L1062.2 30.5771L1062.39 29.5771L1060.43 29.1992L1058.46 28.8214L1058.27 29.8214L1060.23 30.1992ZM1060.43 29.1992L1062.39 29.577C1065.47 13.5695 1079.48 2.00005 1095.78 2V0V-2C1077.56 -1.99995 1061.9 10.9307 1058.46 28.8214L1060.43 29.1992ZM1095.78 0V2H1338.22V0V-2H1095.78V0ZM1034.79 63V65C1042.34 65 1048.61 59.2407 1053.13 52.504C1057.71 45.6638 1060.92 37.2101 1062.2 30.577L1060.23 30.1992L1058.27 29.8214C1057.09 35.9626 1054.08 43.9093 1049.81 50.2759C1045.47 56.746 1040.24 61 1034.79 61V63ZM0 115H2C2 87.3858 24.3858 65 52 65V63V61C22.1766 61 -2 85.1766 -2 115H0ZM52 1815V1813C24.3858 1813 2 1790.61 2 1763H0H-2C-2 1792.82 22.1767 1817 52 1817V1815ZM1423 1763H1421C1421 1790.61 1398.61 1813 1371 1813V1815V1817C1400.82 1817 1425 1792.82 1425 1763H1423ZM1405.88 63V65C1414.23 65 1421 71.7697 1421 80.1205H1423H1425C1425 69.5605 1416.44 61 1405.88 61V63ZM1373.77 30.2012L1371.8 30.5789C1373.08 37.2117 1376.29 45.665 1380.87 52.5047C1385.39 59.2411 1391.66 65 1399.21 65V63V61C1393.76 61 1388.53 56.7464 1384.2 50.2767C1379.93 43.9105 1376.91 35.9643 1375.73 29.8235L1373.77 30.2012Z" fill="#150A3C" mask="url(#path-1-inside-1_1286_3707)"/>
<mask id="path-3-inside-2_1286_3707" fill="white">
<path d="M276.561 0C294.228 9.96399e-06 309.285 12.821 312.101 30.2627L312.262 31.2627C314.272 43.7164 323.827 63 336.442 63H1412C1440.72 63 1464 86.2812 1464 115V1763C1464 1791.72 1440.72 1815 1412 1815H14C-14.7188 1815 -38 1791.72 -38 1763V90.9283C-38 75.5039 -25.4961 63 -10.0718 63H24.558C37.1733 63 46.7284 43.7157 48.7393 31.2617L48.9014 30.2617C51.7176 12.8205 66.7733 6.78387e-05 84.4404 0H276.561Z"/>
</mask>
<path d="M276.561 0C294.228 9.96399e-06 309.285 12.821 312.101 30.2627L312.262 31.2627C314.272 43.7164 323.827 63 336.442 63H1412C1440.72 63 1464 86.2812 1464 115V1763C1464 1791.72 1440.72 1815 1412 1815H14C-14.7188 1815 -38 1791.72 -38 1763V90.9283C-38 75.5039 -25.4961 63 -10.0718 63H24.558C37.1733 63 46.7284 43.7157 48.7393 31.2617L48.9014 30.2617C51.7176 12.8205 66.7733 6.78387e-05 84.4404 0H276.561Z" fill="white"/>
<path d="M276.561 0V-2V-2V0ZM312.101 30.2627L314.075 29.9445L314.075 29.9439L312.101 30.2627ZM312.262 31.2627L310.287 31.5809L310.287 31.5814L312.262 31.2627ZM48.7393 31.2617L46.765 30.9417L46.7648 30.9429L48.7393 31.2617ZM48.9014 30.2617L50.8756 30.5818L50.8758 30.5805L48.9014 30.2617ZM84.4404 0V-2H84.4404L84.4404 0ZM276.561 0V2C293.246 2.00001 307.467 14.1088 310.126 30.5815L312.101 30.2627L314.075 29.9439C311.103 11.5333 295.21 -1.99999 276.561 -2V0ZM312.101 30.2627L310.126 30.5809L310.287 31.5809L312.262 31.2627L314.236 30.9445L314.075 29.9445L312.101 30.2627ZM336.442 63V65H1412V63V61H336.442V63ZM1464 115H1462V1763H1464H1466V115H1464ZM1412 1815V1813H14V1815V1817H1412V1815ZM-38 1763H-36V90.9283H-38H-40V1763H-38ZM-10.0718 63V65H24.558V63V61H-10.0718V63ZM48.7393 31.2617L50.7135 31.5818L50.8756 30.5818L48.9014 30.2617L46.9271 29.9417L46.765 30.9417L48.7393 31.2617ZM48.9014 30.2617L50.8758 30.5805C53.5355 14.1082 67.7549 2.00006 84.4404 2L84.4404 0L84.4404 -2C65.7918 -1.99993 49.8996 11.5328 46.9269 29.9429L48.9014 30.2617ZM84.4404 0V2H276.561V0V-2H84.4404V0ZM24.558 63V65C31.9146 65 37.9793 59.429 42.2936 52.9042C46.6721 46.2821 49.6645 38.0787 50.7137 31.5805L48.7393 31.2617L46.7648 30.9429C45.8032 36.8988 43.0126 44.5644 38.957 50.698C34.8371 56.9288 29.8167 61 24.558 61V63ZM-38 90.9283H-36C-36 76.6085 -24.3915 65 -10.0718 65V63V61C-26.6007 61 -40 74.3993 -40 90.9283H-38ZM14 1815V1813C-13.6142 1813 -36 1790.61 -36 1763H-38H-40C-40 1792.82 -15.8233 1817 14 1817V1815ZM1464 1763H1462C1462 1790.61 1439.61 1813 1412 1813V1815V1817C1441.82 1817 1466 1792.82 1466 1763H1464ZM1412 63V65C1439.61 65 1462 87.3858 1462 115H1464H1466C1466 85.1766 1441.82 61 1412 61V63ZM312.262 31.2627L310.287 31.5814C311.336 38.0795 314.328 46.2827 318.707 52.9045C323.021 59.4292 329.086 65 336.442 65V63V61C331.183 61 326.163 56.929 322.043 50.6984C317.988 44.565 315.198 36.8996 314.236 30.944L312.262 31.2627Z" fill="#150A3C" mask="url(#path-3-inside-2_1286_3707)"/>
<mask id="path-5-inside-3_1286_3707" fill="white">
<path d="M647.857 0C663.896 1.35843e-05 678 10.611 682.446 26.0215L682.735 27.0215C686.672 40.6677 698.017 63 712.22 63H1371C1399.72 63 1423 86.2812 1423 115V1763C1423 1791.72 1399.72 1815 1371 1815H52C23.2812 1815 0 1791.72 0 1763V115C0 86.2812 23.2812 63 52 63H184.78C198.984 63 210.33 40.6662 214.268 27.0195L214.556 26.0195C219.002 10.6099 233.106 0.000129354 249.145 0H647.857Z"/>
</mask>
<path d="M647.857 0C663.896 1.35843e-05 678 10.611 682.446 26.0215L682.735 27.0215C686.672 40.6677 698.017 63 712.22 63H1371C1399.72 63 1423 86.2812 1423 115V1763C1423 1791.72 1399.72 1815 1371 1815H52C23.2812 1815 0 1791.72 0 1763V115C0 86.2812 23.2812 63 52 63H184.78C198.984 63 210.33 40.6662 214.268 27.0195L214.556 26.0195C219.002 10.6099 233.106 0.000129354 249.145 0H647.857Z" fill="white"/>
<path d="M647.857 0V-2V-2V0ZM682.446 26.0215L680.525 26.5759L680.525 26.5769L682.446 26.0215ZM682.735 27.0215L684.657 26.4671L684.657 26.4661L682.735 27.0215ZM214.268 27.0195L216.189 27.574L216.189 27.5732L214.268 27.0195ZM214.556 26.0195L212.634 25.4651L212.634 25.4659L214.556 26.0195ZM249.145 0V-2H249.145L249.145 0ZM647.857 0V2C663.005 2.00001 676.326 12.0215 680.525 26.5759L682.446 26.0215L684.368 25.4671C679.675 9.20054 664.788 -1.99999 647.857 -2V0ZM682.446 26.0215L680.525 26.5769L680.814 27.5769L682.735 27.0215L684.657 26.4661L684.368 25.4661L682.446 26.0215ZM712.22 63V65H1371V63V61H712.22V63ZM1423 115H1421V1763H1423H1425V115H1423ZM1371 1815V1813H52V1815V1817H1371V1815ZM0 1763H2V115H0H-2V1763H0ZM52 63V65H184.78V63V61H52V63ZM214.268 27.0195L216.189 27.5732L216.478 26.5732L214.556 26.0195L212.634 25.4659L212.346 26.4659L214.268 27.0195ZM214.556 26.0195L216.477 26.574C220.677 12.0205 233.997 2.00012 249.145 2L249.145 0L249.145 -2C232.215 -1.99986 217.327 9.1993 212.634 25.4651L214.556 26.0195ZM249.145 0V2H647.857V0V-2H249.145V0ZM184.78 63V65C192.932 65 199.842 58.6571 205.012 51.2745C210.266 43.7706 214.172 34.5653 216.189 27.574L214.268 27.0195L212.346 26.4651C210.426 33.1204 206.689 41.9054 201.735 48.9801C196.696 56.176 190.832 61 184.78 61V63ZM0 115H2C2 87.3858 24.3858 65 52 65V63V61C22.1766 61 -2 85.1766 -2 115H0ZM52 1815V1813C24.3858 1813 2 1790.61 2 1763H0H-2C-2 1792.82 22.1767 1817 52 1817V1815ZM1423 1763H1421C1421 1790.61 1398.61 1813 1371 1813V1815V1817C1400.82 1817 1425 1792.82 1425 1763H1423ZM1371 63V65C1398.61 65 1421 87.3858 1421 115H1423H1425C1425 85.1766 1400.82 61 1371 61V63ZM682.735 27.0215L680.814 27.5758C682.831 34.567 686.736 43.7718 691.99 51.2752C697.159 58.6574 704.068 65 712.22 65V63V61C706.169 61 700.305 56.1764 695.266 48.9809C690.313 41.9066 686.577 33.1222 684.657 26.4671L682.735 27.0215Z" fill="#150A3C" mask="url(#path-5-inside-3_1286_3707)"/>
<mask id="path-7-inside-4_1286_3707" fill="white">
<path d="M918.224 0C935.484 0 950.316 12.2513 953.576 29.2012L953.769 30.2002C956.225 42.9742 966.207 63 979.215 63H1231C1259.72 63 1283 86.2812 1283 115V1763C1283 1791.72 1259.72 1815 1231 1815H-105C-133.719 1815 -157 1791.72 -157 1763V115C-157 86.2812 -133.719 63 -105 63H614.785C627.794 63 637.776 42.9735 640.233 30.1992L640.426 29.1992C643.686 12.2501 658.517 5.08549e-05 675.777 0H918.224Z"/>
</mask>
<path d="M918.224 0C935.484 0 950.316 12.2513 953.576 29.2012L953.769 30.2002C956.225 42.9742 966.207 63 979.215 63H1231C1259.72 63 1283 86.2812 1283 115V1763C1283 1791.72 1259.72 1815 1231 1815H-105C-133.719 1815 -157 1791.72 -157 1763V115C-157 86.2812 -133.719 63 -105 63H614.785C627.794 63 637.776 42.9735 640.233 30.1992L640.426 29.1992C643.686 12.2501 658.517 5.08549e-05 675.777 0H918.224Z" fill="white"/>
<path d="M953.576 29.2012L951.612 29.5789L951.612 29.5794L953.576 29.2012ZM953.769 30.2002L955.733 29.8225L955.732 29.822L953.769 30.2002ZM640.233 30.1992L638.269 29.8214V29.8214L640.233 30.1992ZM640.426 29.1992L642.39 29.5771V29.577L640.426 29.1992ZM675.777 0V-2V-2V0ZM918.224 0V2C934.525 2 948.533 13.5707 951.612 29.5789L953.576 29.2012L955.54 28.8234C952.099 10.9319 936.443 -2 918.224 -2V0ZM953.576 29.2012L951.612 29.5794L951.805 30.5784L953.769 30.2002L955.732 29.822L955.54 28.823L953.576 29.2012ZM979.215 63V65H1231V63V61H979.215V63ZM1283 115H1281V1763H1283H1285V115H1283ZM1231 1815V1813H-105V1815V1817H1231V1815ZM-157 1763H-155V115H-157H-159V1763H-157ZM-105 63V65H614.786V63V61H-105V63ZM640.233 30.1992L642.197 30.5771L642.39 29.5771L640.426 29.1992L638.462 28.8214L638.269 29.8214L640.233 30.1992ZM640.426 29.1992L642.39 29.577C645.469 13.5695 659.476 2.00005 675.777 2V0V-2C657.559 -1.99995 641.904 10.9307 638.462 28.8214L640.426 29.1992ZM675.777 0V2H918.224V0V-2H675.777V0ZM614.786 63V65C622.339 65 628.609 59.2407 633.127 52.504C637.715 45.6638 640.921 37.2101 642.197 30.577L640.233 30.1992L638.269 29.8214C637.088 35.9626 634.075 43.9093 629.805 50.2759C625.466 56.746 620.24 61 614.786 61V63ZM-157 115H-155C-155 87.3858 -132.614 65 -105 65V63V61C-134.823 61 -159 85.1766 -159 115H-157ZM-105 1815V1813C-132.614 1813 -155 1790.61 -155 1763H-157H-159C-159 1792.82 -134.823 1817 -105 1817V1815ZM1283 1763H1281C1281 1790.61 1258.61 1813 1231 1813V1815V1817C1260.82 1817 1285 1792.82 1285 1763H1283ZM1231 63V65C1258.61 65 1281 87.3858 1281 115H1283H1285C1285 85.1766 1260.82 61 1231 61V63ZM953.769 30.2002L951.805 30.5779C953.08 37.2109 956.287 45.6644 960.874 52.5044C965.392 59.2409 971.662 65 979.215 65V63V61C973.761 61 968.535 56.7462 964.196 50.2764C959.927 43.91 956.914 35.9635 955.733 29.8225L953.769 30.2002Z" fill="#150A3C" mask="url(#path-7-inside-4_1286_3707)"/>
<path d="M850.945 0C836.703 0 824.37 9.8877 821.272 23.7891C819.333 32.4941 805.685 58.7734 796.767 58.7734H1C0.447715 58.7734 0 59.2212 0 59.7734V1795C0 1811.57 13.4315 1825 30 1825H1396C1412.57 1825 1426 1811.57 1426 1795V59.7734C1426 59.2212 1425.55 58.7734 1425 58.7734H1147.6C1138.68 58.7734 1125.03 32.4947 1123.1 23.79C1120 9.88837 1107.67 0.000124869 1093.42 0H850.945Z" fill="url(#paint0_linear_1286_3707)"/>
</g>
<defs>
<linearGradient id="paint0_linear_1286_3707" x1="713" y1="0" x2="713" y2="1825" gradientUnits="userSpaceOnUse">
<stop stop-color="#130839"/>
<stop offset="0.360577" stop-color="#282251"/>
<stop offset="0.764423" stop-color="#793971"/>
<stop offset="1" stop-color="#CC7897"/>
</linearGradient>
<clipPath id="clip0_1286_3707">
<rect width="1424" height="59" fill="white"/>
</clipPath>
</defs>
</svg>
