<svg width="1424" height="59" viewBox="0 0 1424 59" fill="none" xmlns="http://www.w3.org/2000/svg">
<g clip-path="url(#clip0_1212_4342)">
<mask id="path-1-inside-1_1212_4342" fill="white">
<path d="M1338.22 1C1355.48 1 1370.32 13.2513 1373.58 30.2012L1373.77 31.2012C1376.23 43.9749 1386.21 64 1399.21 64H2193C2221.72 64 2245 87.2812 2245 116V1763.77C2245 1792.49 2221.72 1815.77 2193 1815.77H850C821.281 1815.77 798 1792.49 798 1763.77V116C798 87.2811 821.281 64 850 64H1034.79C1047.79 64 1057.78 43.9734 1060.23 31.1992L1060.43 30.1992C1063.69 13.2501 1078.52 1.00005 1095.78 1H1338.22Z"/>
</mask>
<path d="M1338.22 1C1355.48 1 1370.32 13.2513 1373.58 30.2012L1373.77 31.2012C1376.23 43.9749 1386.21 64 1399.21 64H2193C2221.72 64 2245 87.2812 2245 116V1763.77C2245 1792.49 2221.72 1815.77 2193 1815.77H850C821.281 1815.77 798 1792.49 798 1763.77V116C798 87.2811 821.281 64 850 64H1034.79C1047.79 64 1057.78 43.9734 1060.23 31.1992L1060.43 30.1992C1063.69 13.2501 1078.52 1.00005 1095.78 1H1338.22Z" fill="white"/>
<path d="M1373.58 30.2012L1371.61 30.5789V30.579L1373.58 30.2012ZM1373.77 31.2012L1375.73 30.8235V30.8233L1373.77 31.2012ZM1060.23 31.1992L1058.27 30.8214V30.8214L1060.23 31.1992ZM1060.43 30.1992L1062.39 30.5771V30.577L1060.43 30.1992ZM1095.78 1V-1V-1V1ZM1338.22 1V3C1354.53 3 1368.53 14.5707 1371.61 30.5789L1373.58 30.2012L1375.54 29.8234C1372.1 11.9319 1356.44 -1 1338.22 -1V1ZM1373.58 30.2012L1371.61 30.579L1371.8 31.579L1373.77 31.2012L1375.73 30.8233L1375.54 29.8233L1373.58 30.2012ZM1399.21 64V66H2193V64V62H1399.21V64ZM2245 116H2243V1763.77H2245H2247V116H2245ZM2193 1815.77V1813.77H850V1815.77V1817.77H2193V1815.77ZM798 1763.77H800V116H798H796V1763.77H798ZM850 64V66H1034.79V64V62H850V64ZM1060.23 31.1992L1062.2 31.5771L1062.39 30.5771L1060.43 30.1992L1058.46 29.8214L1058.27 30.8214L1060.23 31.1992ZM1060.43 30.1992L1062.39 30.577C1065.47 14.5695 1079.48 3.00005 1095.78 3V1V-1C1077.56 -0.999948 1061.9 11.9307 1058.46 29.8214L1060.43 30.1992ZM1095.78 1V3H1338.22V1V-1H1095.78V1ZM1034.79 64V66C1042.34 66 1048.61 60.2407 1053.13 53.504C1057.71 46.6638 1060.92 38.2101 1062.2 31.577L1060.23 31.1992L1058.27 30.8214C1057.09 36.9626 1054.08 44.9093 1049.81 51.2759C1045.47 57.746 1040.24 62 1034.79 62V64ZM798 116H800C800 88.3857 822.386 66 850 66V64V62C820.177 62 796 86.1766 796 116H798ZM850 1815.77V1813.77C822.386 1813.77 800 1791.38 800 1763.77H798H796C796 1793.59 820.177 1817.77 850 1817.77V1815.77ZM2245 1763.77H2243C2243 1791.38 2220.61 1813.77 2193 1813.77V1815.77V1817.77C2222.82 1817.77 2247 1793.59 2247 1763.77H2245ZM2193 64V66C2220.61 66 2243 88.3858 2243 116H2245H2247C2247 86.1766 2222.82 62 2193 62V64ZM1373.77 31.2012L1371.8 31.5789C1373.08 38.2117 1376.29 46.665 1380.87 53.5047C1385.39 60.2411 1391.66 66 1399.21 66V64V62C1393.76 62 1388.53 57.7464 1384.2 51.2767C1379.93 44.9105 1376.91 36.9643 1375.73 30.8235L1373.77 31.2012Z" fill="#150A3C" mask="url(#path-1-inside-1_1212_4342)"/>
<mask id="path-3-inside-2_1212_4342" fill="white">
<path d="M1083.22 1C1100.48 1 1115.32 13.2513 1118.58 30.2012L1118.77 31.2002C1121.23 43.9742 1131.21 64 1144.22 64H1735C1763.72 64 1787 87.2812 1787 116V1763.77C1787 1792.49 1763.72 1815.77 1735 1815.77H392C363.281 1815.77 340 1792.49 340 1763.77V116C340 87.2811 363.281 64 392 64H779.785C792.794 64 802.776 43.9735 805.233 31.1992L805.426 30.1992C808.686 13.2501 823.517 1.00005 840.777 1H1083.22Z"/>
</mask>
<path d="M1083.22 1C1100.48 1 1115.32 13.2513 1118.58 30.2012L1118.77 31.2002C1121.23 43.9742 1131.21 64 1144.22 64H1735C1763.72 64 1787 87.2812 1787 116V1763.77C1787 1792.49 1763.72 1815.77 1735 1815.77H392C363.281 1815.77 340 1792.49 340 1763.77V116C340 87.2811 363.281 64 392 64H779.785C792.794 64 802.776 43.9735 805.233 31.1992L805.426 30.1992C808.686 13.2501 823.517 1.00005 840.777 1H1083.22Z" fill="white"/>
<path d="M1118.58 30.2012L1116.61 30.5789L1116.61 30.5794L1118.58 30.2012ZM1118.77 31.2002L1120.73 30.8225L1120.73 30.822L1118.77 31.2002ZM805.233 31.1992L803.269 30.8214V30.8214L805.233 31.1992ZM805.426 30.1992L807.39 30.5771V30.577L805.426 30.1992ZM840.777 1V-1V-1V1ZM1083.22 1V3C1099.53 3 1113.53 14.5707 1116.61 30.5789L1118.58 30.2012L1120.54 29.8234C1117.1 11.9319 1101.44 -1 1083.22 -1V1ZM1118.58 30.2012L1116.61 30.5794L1116.8 31.5784L1118.77 31.2002L1120.73 30.822L1120.54 29.823L1118.58 30.2012ZM1144.22 64V66H1735V64V62H1144.22V64ZM1787 116H1785V1763.77H1787H1789V116H1787ZM1735 1815.77V1813.77H392V1815.77V1817.77H1735V1815.77ZM340 1763.77H342V116H340H338V1763.77H340ZM392 64V66H779.785V64V62H392V64ZM805.233 31.1992L807.197 31.5771L807.39 30.5771L805.426 30.1992L803.462 29.8214L803.269 30.8214L805.233 31.1992ZM805.426 30.1992L807.39 30.577C810.469 14.5695 824.476 3.00005 840.777 3V1V-1C822.559 -0.999946 806.904 11.9307 803.462 29.8214L805.426 30.1992ZM840.777 1V3H1083.22V1V-1H840.777V1ZM779.785 64V66C787.339 66 793.609 60.2407 798.127 53.504C802.715 46.6638 805.921 38.2101 807.197 31.577L805.233 31.1992L803.269 30.8214C802.088 36.9626 799.075 44.9093 794.805 51.2759C790.466 57.746 785.24 62 779.785 62V64ZM340 116H342C342 88.3857 364.386 66 392 66V64V62C362.177 62 338 86.1766 338 116H340ZM392 1815.77V1813.77C364.386 1813.77 342 1791.38 342 1763.77H340H338C338 1793.59 362.177 1817.77 392 1817.77V1815.77ZM1787 1763.77H1785C1785 1791.38 1762.61 1813.77 1735 1813.77V1815.77V1817.77C1764.82 1817.77 1789 1793.59 1789 1763.77H1787ZM1735 64V66C1762.61 66 1785 88.3858 1785 116H1787H1789C1789 86.1766 1764.82 62 1735 62V64ZM1118.77 31.2002L1116.8 31.5779C1118.08 38.2109 1121.29 46.6644 1125.87 53.5044C1130.39 60.2409 1136.66 66 1144.22 66V64V62C1138.76 62 1133.54 57.7462 1129.2 51.2764C1124.93 44.91 1121.91 36.9635 1120.73 30.8225L1118.77 31.2002Z" fill="#150A3C" mask="url(#path-3-inside-2_1212_4342)"/>
<mask id="path-5-inside-3_1212_4342" fill="white">
<path d="M845.224 1C862.484 1 877.316 13.2513 880.576 30.2012L880.769 31.2002C883.225 43.9742 893.207 64 906.215 64H915.732C925.821 64 934 72.1788 934 82.2678V1764C934 1792.72 910.719 1816 882 1816H-438C-466.719 1816 -490 1792.72 -490 1764V116C-490 87.2812 -466.719 64 -438 64H541.785C554.794 64 564.776 43.9735 567.233 31.1992L567.426 30.1992C570.686 13.2501 585.517 1.00005 602.777 1H845.224Z"/>
</mask>
<path d="M845.224 1C862.484 1 877.316 13.2513 880.576 30.2012L880.769 31.2002C883.225 43.9742 893.207 64 906.215 64H915.732C925.821 64 934 72.1788 934 82.2678V1764C934 1792.72 910.719 1816 882 1816H-438C-466.719 1816 -490 1792.72 -490 1764V116C-490 87.2812 -466.719 64 -438 64H541.785C554.794 64 564.776 43.9735 567.233 31.1992L567.426 30.1992C570.686 13.2501 585.517 1.00005 602.777 1H845.224Z" fill="white"/>
<path d="M880.576 30.2012L878.612 30.5789L878.612 30.5794L880.576 30.2012ZM880.769 31.2002L882.733 30.8225L882.732 30.822L880.769 31.2002ZM567.233 31.1992L565.269 30.8214V30.8214L567.233 31.1992ZM567.426 30.1992L569.39 30.5771V30.577L567.426 30.1992ZM602.777 1V-1V-1V1ZM845.224 1V3C861.525 3 875.533 14.5707 878.612 30.5789L880.576 30.2012L882.54 29.8234C879.099 11.9319 863.443 -1 845.224 -1V1ZM880.576 30.2012L878.612 30.5794L878.805 31.5784L880.769 31.2002L882.732 30.822L882.54 29.823L880.576 30.2012ZM906.215 64V66H915.732V64V62H906.215V64ZM934 82.2679H932V1764H934H936V82.2679H934ZM882 1816V1814H-438V1816V1818H882V1816ZM-490 1764H-488V116H-490H-492V1764H-490ZM-438 64V66H541.785V64V62H-438V64ZM567.233 31.1992L569.197 31.5771L569.39 30.5771L567.426 30.1992L565.462 29.8214L565.269 30.8214L567.233 31.1992ZM567.426 30.1992L569.39 30.577C572.469 14.5695 586.476 3.00005 602.777 3V1V-1C584.558 -0.999946 568.904 11.9307 565.462 29.8214L567.426 30.1992ZM602.777 1V3H845.224V1V-1H602.777V1ZM541.785 64V66C549.339 66 555.609 60.2407 560.127 53.504C564.715 46.6638 567.921 38.2101 569.197 31.577L567.233 31.1992L565.269 30.8214C564.088 36.9626 561.075 44.9093 556.805 51.2759C552.466 57.746 547.24 62 541.785 62V64ZM-490 116H-488C-488 88.3858 -465.614 66 -438 66V64V62C-467.823 62 -492 86.1766 -492 116H-490ZM-438 1816V1814C-465.614 1814 -488 1791.61 -488 1764H-490H-492C-492 1793.82 -467.823 1818 -438 1818V1816ZM934 1764H932C932 1791.61 909.614 1814 882 1814V1816V1818C911.823 1818 936 1793.82 936 1764H934ZM915.732 64V66C924.717 66 932 73.2834 932 82.2679H934H936C936 71.0742 926.926 62 915.732 62V64ZM880.769 31.2002L878.805 31.5779C880.08 38.2109 883.287 46.6644 887.874 53.5044C892.392 60.2409 898.662 66 906.215 66V64V62C900.761 62 895.535 57.7462 891.196 51.2764C886.927 44.91 883.914 36.9635 882.733 30.8225L880.769 31.2002Z" fill="#150A3C" mask="url(#path-5-inside-3_1212_4342)"/>
<mask id="path-7-inside-4_1212_4342" fill="white">
<path d="M668.308 1C684.204 1 698.218 11.4255 702.788 26.6504L703.088 27.6504C707.212 41.3894 718.726 64 733.071 64H867C895.719 64 919 87.2812 919 116V1763.77C919 1792.49 895.719 1815.77 867 1815.77H-476C-504.719 1815.77 -528 1792.49 -528 1763.77V116C-528 87.2811 -504.719 64 -476 64H185.931C200.276 64 211.791 41.3885 215.915 27.6494L216.215 26.6494C220.785 11.4253 234.799 1.00016 250.694 1H668.308Z"/>
</mask>
<path d="M668.308 1C684.204 1 698.218 11.4255 702.788 26.6504L703.088 27.6504C707.212 41.3894 718.726 64 733.071 64H867C895.719 64 919 87.2812 919 116V1763.77C919 1792.49 895.719 1815.77 867 1815.77H-476C-504.719 1815.77 -528 1792.49 -528 1763.77V116C-528 87.2811 -504.719 64 -476 64H185.931C200.276 64 211.791 41.3885 215.915 27.6494L216.215 26.6494C220.785 11.4253 234.799 1.00016 250.694 1H668.308Z" fill="white"/>
<path d="M702.788 26.6504L704.704 26.076L704.704 26.0754L702.788 26.6504ZM703.088 27.6504L701.172 28.2247L701.172 28.2254L703.088 27.6504ZM215.915 27.6494L217.831 28.2245L217.831 28.2238L215.915 27.6494ZM216.215 26.6494L214.299 26.0744L214.299 26.0751L216.215 26.6494ZM250.694 1V-1V-1V1ZM668.308 1V3C683.32 3 696.557 12.8463 700.873 27.2254L702.788 26.6504L704.704 26.0754C699.88 10.0047 685.087 -1 668.308 -1V1ZM702.788 26.6504L700.872 27.2247L701.172 28.2247L703.088 27.6504L705.004 27.076L704.704 26.076L702.788 26.6504ZM733.071 64V66H867V64V62H733.071V64ZM919 116H917V1763.77H919H921V116H919ZM867 1815.77V1813.77H-476V1815.77V1817.77H867V1815.77ZM-528 1763.77H-526V116H-528H-530V1763.77H-528ZM-476 64V66H185.931V64V62H-476V64ZM215.915 27.6494L217.831 28.2238L218.131 27.2238L216.215 26.6494L214.299 26.0751L213.999 27.0751L215.915 27.6494ZM216.215 26.6494L218.13 27.2245C222.447 12.8461 235.682 3.00015 250.694 3V1V-1C233.916 -0.999828 219.124 10.0045 214.299 26.0744L216.215 26.6494ZM250.694 1V3H668.308V1V-1H250.694V1ZM185.931 64V66C194.154 66 201.141 59.587 206.391 52.128C211.728 44.5458 215.721 35.2527 217.831 28.2245L215.915 27.6494L214 27.0744C211.985 33.7852 208.158 42.6674 203.12 49.8257C197.995 57.1072 192.053 62 185.931 62V64ZM-528 116H-526C-526 88.3857 -503.614 66 -476 66V64V62C-505.823 62 -530 86.1766 -530 116H-528ZM-476 1815.77V1813.77C-503.614 1813.77 -526 1791.38 -526 1763.77H-528H-530C-530 1793.59 -505.823 1817.77 -476 1817.77V1815.77ZM919 1763.77H917C917 1791.38 894.614 1813.77 867 1813.77V1815.77V1817.77C896.823 1817.77 921 1793.59 921 1763.77H919ZM867 64V66C894.614 66 917 88.3858 917 116H919H921C921 86.1766 896.823 62 867 62V64ZM703.088 27.6504L701.172 28.2254C703.282 35.2535 707.275 44.5465 712.611 52.1284C717.861 59.5872 724.848 66 733.071 66V64V62C726.948 62 721.007 57.1074 715.882 49.8262C710.844 42.6681 707.018 33.7862 705.003 27.0754L703.088 27.6504Z" fill="#150A3C" mask="url(#path-7-inside-4_1212_4342)"/>
<path d="M97.7158 1C83.0483 1 70.5188 11.5782 68.0596 26.0381C66.6016 34.6109 54.3598 59 45.6638 59H1C0.447715 59 0 59.4477 0 60V1772C0 1788.57 13.4315 1802 30 1802H1396C1412.57 1802 1426 1788.57 1426 1772V60C1426 59.4477 1425.55 59 1425 59H318.966C310.27 59 298.029 34.612 296.571 26.0391C294.112 11.579 281.584 1.00017 266.916 1H97.7158Z" fill="url(#paint0_linear_1212_4342)"/>
</g>
<defs>
<linearGradient id="paint0_linear_1212_4342" x1="713" y1="1" x2="713" y2="1802" gradientUnits="userSpaceOnUse">
<stop stop-color="#130839"/>
<stop offset="0.360577" stop-color="#282251"/>
<stop offset="0.764423" stop-color="#793971"/>
<stop offset="1" stop-color="#CC7897"/>
</linearGradient>
<clipPath id="clip0_1212_4342">
<rect width="1424" height="59" fill="white"/>
</clipPath>
</defs>
</svg>
