<svg width="1424" height="58" viewBox="0 0 1424 58" fill="none" xmlns="http://www.w3.org/2000/svg">
<g clip-path="url(#clip0_1212_4344)">
<mask id="path-1-inside-1_1212_4344" fill="white">
<path d="M1338.22 0C1355.48 0 1370.32 12.2513 1373.58 29.2012L1373.77 30.2012C1376.23 42.9749 1386.21 63 1399.21 63H2193C2221.72 63 2245 86.2812 2245 115V1762.77C2245 1791.49 2221.72 1814.77 2193 1814.77H850C821.281 1814.77 798 1791.49 798 1762.77V115C798 86.2811 821.281 63 850 63H1034.79C1047.79 63 1057.78 42.9734 1060.23 30.1992L1060.43 29.1992C1063.69 12.2501 1078.52 4.94698e-05 1095.78 0H1338.22Z"/>
</mask>
<path d="M1338.22 0C1355.48 0 1370.32 12.2513 1373.58 29.2012L1373.77 30.2012C1376.23 42.9749 1386.21 63 1399.21 63H2193C2221.72 63 2245 86.2812 2245 115V1762.77C2245 1791.49 2221.72 1814.77 2193 1814.77H850C821.281 1814.77 798 1791.49 798 1762.77V115C798 86.2811 821.281 63 850 63H1034.79C1047.79 63 1057.78 42.9734 1060.23 30.1992L1060.43 29.1992C1063.69 12.2501 1078.52 4.94698e-05 1095.78 0H1338.22Z" fill="white"/>
<path d="M1373.58 29.2012L1371.61 29.5789V29.579L1373.58 29.2012ZM1373.77 30.2012L1375.73 29.8235V29.8233L1373.77 30.2012ZM1060.23 30.1992L1058.27 29.8214V29.8214L1060.23 30.1992ZM1060.43 29.1992L1062.39 29.5771V29.577L1060.43 29.1992ZM1095.78 0V-2V-2V0ZM1338.22 0V2C1354.53 2 1368.53 13.5707 1371.61 29.5789L1373.58 29.2012L1375.54 28.8234C1372.1 10.9319 1356.44 -2 1338.22 -2V0ZM1373.58 29.2012L1371.61 29.579L1371.8 30.579L1373.77 30.2012L1375.73 29.8233L1375.54 28.8233L1373.58 29.2012ZM1399.21 63V65H2193V63V61H1399.21V63ZM2245 115H2243V1762.77H2245H2247V115H2245ZM2193 1814.77V1812.77H850V1814.77V1816.77H2193V1814.77ZM798 1762.77H800V115H798H796V1762.77H798ZM850 63V65H1034.79V63V61H850V63ZM1060.23 30.1992L1062.2 30.5771L1062.39 29.5771L1060.43 29.1992L1058.46 28.8214L1058.27 29.8214L1060.23 30.1992ZM1060.43 29.1992L1062.39 29.577C1065.47 13.5695 1079.48 2.00005 1095.78 2V0V-2C1077.56 -1.99995 1061.9 10.9307 1058.46 28.8214L1060.43 29.1992ZM1095.78 0V2H1338.22V0V-2H1095.78V0ZM1034.79 63V65C1042.34 65 1048.61 59.2407 1053.13 52.504C1057.71 45.6638 1060.92 37.2101 1062.2 30.577L1060.23 30.1992L1058.27 29.8214C1057.09 35.9626 1054.08 43.9093 1049.81 50.2759C1045.47 56.746 1040.24 61 1034.79 61V63ZM798 115H800C800 87.3857 822.386 65 850 65V63V61C820.177 61 796 85.1766 796 115H798ZM850 1814.77V1812.77C822.386 1812.77 800 1790.38 800 1762.77H798H796C796 1792.59 820.177 1816.77 850 1816.77V1814.77ZM2245 1762.77H2243C2243 1790.38 2220.61 1812.77 2193 1812.77V1814.77V1816.77C2222.82 1816.77 2247 1792.59 2247 1762.77H2245ZM2193 63V65C2220.61 65 2243 87.3858 2243 115H2245H2247C2247 85.1766 2222.82 61 2193 61V63ZM1373.77 30.2012L1371.8 30.5789C1373.08 37.2117 1376.29 45.665 1380.87 52.5047C1385.39 59.2411 1391.66 65 1399.21 65V63V61C1393.76 61 1388.53 56.7464 1384.2 50.2767C1379.93 43.9105 1376.91 35.9643 1375.73 29.8235L1373.77 30.2012Z" fill="#150A3C" mask="url(#path-1-inside-1_1212_4344)"/>
<path d="M1183.26 27.768C1181.55 27.768 1180.12 28.368 1178.97 29.568C1177.82 30.752 1177.24 32.24 1177.24 34.032C1177.24 35.824 1177.82 37.32 1178.97 38.52C1180.12 39.704 1181.55 40.296 1183.26 40.296C1185.17 40.296 1186.66 39.544 1187.75 38.04H1190.2C1189.54 39.368 1188.62 40.416 1187.42 41.184C1186.23 41.936 1184.85 42.312 1183.26 42.312C1180.94 42.312 1179 41.52 1177.43 39.936C1175.86 38.352 1175.08 36.384 1175.08 34.032C1175.08 31.68 1175.86 29.712 1177.43 28.128C1179 26.544 1180.94 25.752 1183.26 25.752C1184.85 25.752 1186.23 26.136 1187.42 26.904C1188.62 27.656 1189.54 28.696 1190.2 30.024H1187.75C1186.66 28.52 1185.17 27.768 1183.26 27.768ZM1194.59 28.128C1196.16 26.544 1198.1 25.752 1200.42 25.752C1202.74 25.752 1204.68 26.544 1206.25 28.128C1207.82 29.712 1208.6 31.68 1208.6 34.032C1208.6 36.384 1207.82 38.352 1206.25 39.936C1204.68 41.52 1202.74 42.312 1200.42 42.312C1198.1 42.312 1196.16 41.52 1194.59 39.936C1193.02 38.352 1192.24 36.384 1192.24 34.032C1192.24 31.68 1193.02 29.712 1194.59 28.128ZM1204.72 29.568C1203.56 28.368 1202.13 27.768 1200.42 27.768C1198.71 27.768 1197.28 28.368 1196.12 29.568C1194.97 30.752 1194.4 32.24 1194.4 34.032C1194.4 35.824 1194.97 37.32 1196.12 38.52C1197.28 39.704 1198.71 40.296 1200.42 40.296C1202.13 40.296 1203.56 39.704 1204.72 38.52C1205.87 37.32 1206.44 35.824 1206.44 34.032C1206.44 32.24 1205.87 30.752 1204.72 29.568ZM1223.88 26.064H1226.04V42H1223.62L1213.9 29.136V42H1211.74V26.064H1214.16L1223.88 38.928V26.064ZM1228.67 38.04H1231.02C1231.41 38.728 1232 39.28 1232.8 39.696C1233.61 40.096 1234.54 40.296 1235.58 40.296C1236.78 40.296 1237.77 40.048 1238.56 39.552C1239.34 39.04 1239.73 38.4 1239.73 37.632C1239.73 36.88 1239.46 36.304 1238.92 35.904C1238.37 35.504 1237.52 35.24 1236.35 35.112L1233.57 34.824C1232.05 34.68 1230.92 34.224 1230.18 33.456C1229.46 32.688 1229.1 31.712 1229.1 30.528C1229.1 29.104 1229.65 27.952 1230.76 27.072C1231.88 26.192 1233.37 25.752 1235.25 25.752C1237.04 25.752 1238.49 26.176 1239.61 27.024C1240.75 27.872 1241.53 28.872 1241.97 30.024H1239.61C1239.29 29.352 1238.73 28.808 1237.93 28.392C1237.13 27.976 1236.21 27.768 1235.17 27.768C1233.97 27.768 1233.02 28.024 1232.32 28.536C1231.61 29.048 1231.26 29.68 1231.26 30.432C1231.26 31.856 1232.25 32.664 1234.21 32.856L1237.21 33.168C1238.69 33.328 1239.83 33.792 1240.65 34.56C1241.48 35.328 1241.89 36.312 1241.89 37.512C1241.89 38.792 1241.33 39.912 1240.21 40.872C1239.09 41.832 1237.55 42.312 1235.58 42.312C1233.66 42.312 1232.13 41.904 1231 41.088C1229.86 40.256 1229.09 39.24 1228.67 38.04ZM1244.73 35.4V26.064H1246.89V35.4C1246.89 37 1247.31 38.216 1248.14 39.048C1248.97 39.88 1250.14 40.296 1251.64 40.296C1253.15 40.296 1254.32 39.88 1255.15 39.048C1255.98 38.216 1256.4 37 1256.4 35.4V26.064H1258.56V35.4C1258.56 37.592 1257.93 39.296 1256.68 40.512C1255.45 41.712 1253.77 42.312 1251.64 42.312C1249.52 42.312 1247.83 41.712 1246.58 40.512C1245.35 39.296 1244.73 37.592 1244.73 35.4ZM1264.68 26.064V39.984H1273.32V42H1262.52V26.064H1264.68ZM1271.77 26.064H1284.97V28.08H1279.45V42H1277.29V28.08H1271.77V26.064ZM1289.76 26.064V42H1287.6V26.064H1289.76ZM1305.98 26.064H1308.14V42H1305.72L1296 29.136V42H1293.84V26.064H1296.26L1305.98 38.928V26.064ZM1319.44 27.768C1317.72 27.768 1316.29 28.368 1315.14 29.568C1313.99 30.752 1313.41 32.24 1313.41 34.032C1313.41 35.84 1313.98 37.336 1315.12 38.52C1316.27 39.704 1317.72 40.296 1319.46 40.296C1320.87 40.296 1322.04 39.88 1322.99 39.048C1323.95 38.216 1324.57 37.112 1324.86 35.736H1319.12V33.72H1327.16C1327.16 36.264 1326.43 38.336 1324.96 39.936C1323.48 41.52 1321.68 42.312 1319.53 42.312C1317.2 42.312 1315.23 41.52 1313.63 39.936C1312.04 38.352 1311.25 36.384 1311.25 34.032C1311.25 31.68 1312.04 29.712 1313.6 28.128C1315.17 26.544 1317.12 25.752 1319.44 25.752C1320.99 25.752 1322.38 26.144 1323.61 26.928C1324.86 27.696 1325.82 28.728 1326.49 30.024H1324.02C1323.52 29.336 1322.88 28.792 1322.08 28.392C1321.29 27.976 1320.41 27.768 1319.44 27.768Z" fill="#150A3C"/>
<mask id="path-4-inside-2_1212_4344" fill="white">
<path d="M1083.22 0C1100.48 0 1115.32 12.2513 1118.58 29.2012L1118.77 30.2002C1121.23 42.9742 1131.21 63 1144.22 63H1735C1763.72 63 1787 86.2812 1787 115V1762.77C1787 1791.49 1763.72 1814.77 1735 1814.77H392C363.281 1814.77 340 1791.49 340 1762.77V115C340 86.2811 363.281 63 392 63H779.785C792.794 63 802.776 42.9735 805.233 30.1992L805.426 29.1992C808.686 12.2501 823.517 5.08549e-05 840.777 0H1083.22Z"/>
</mask>
<path d="M1083.22 0C1100.48 0 1115.32 12.2513 1118.58 29.2012L1118.77 30.2002C1121.23 42.9742 1131.21 63 1144.22 63H1735C1763.72 63 1787 86.2812 1787 115V1762.77C1787 1791.49 1763.72 1814.77 1735 1814.77H392C363.281 1814.77 340 1791.49 340 1762.77V115C340 86.2811 363.281 63 392 63H779.785C792.794 63 802.776 42.9735 805.233 30.1992L805.426 29.1992C808.686 12.2501 823.517 5.08549e-05 840.777 0H1083.22Z" fill="white"/>
<path d="M1118.58 29.2012L1116.61 29.5789L1116.61 29.5794L1118.58 29.2012ZM1118.77 30.2002L1120.73 29.8225L1120.73 29.822L1118.77 30.2002ZM805.233 30.1992L803.269 29.8214V29.8214L805.233 30.1992ZM805.426 29.1992L807.39 29.5771V29.577L805.426 29.1992ZM840.777 0V-2V-2V0ZM1083.22 0V2C1099.53 2 1113.53 13.5707 1116.61 29.5789L1118.58 29.2012L1120.54 28.8234C1117.1 10.9319 1101.44 -2 1083.22 -2V0ZM1118.58 29.2012L1116.61 29.5794L1116.8 30.5784L1118.77 30.2002L1120.73 29.822L1120.54 28.823L1118.58 29.2012ZM1144.22 63V65H1735V63V61H1144.22V63ZM1787 115H1785V1762.77H1787H1789V115H1787ZM1735 1814.77V1812.77H392V1814.77V1816.77H1735V1814.77ZM340 1762.77H342V115H340H338V1762.77H340ZM392 63V65H779.785V63V61H392V63ZM805.233 30.1992L807.197 30.5771L807.39 29.5771L805.426 29.1992L803.462 28.8214L803.269 29.8214L805.233 30.1992ZM805.426 29.1992L807.39 29.577C810.469 13.5695 824.476 2.00005 840.777 2V0V-2C822.559 -1.99995 806.904 10.9307 803.462 28.8214L805.426 29.1992ZM840.777 0V2H1083.22V0V-2H840.777V0ZM779.785 63V65C787.339 65 793.609 59.2407 798.127 52.504C802.715 45.6638 805.921 37.2101 807.197 30.577L805.233 30.1992L803.269 29.8214C802.088 35.9626 799.075 43.9093 794.805 50.2759C790.466 56.746 785.24 61 779.785 61V63ZM340 115H342C342 87.3857 364.386 65 392 65V63V61C362.177 61 338 85.1766 338 115H340ZM392 1814.77V1812.77C364.386 1812.77 342 1790.38 342 1762.77H340H338C338 1792.59 362.177 1816.77 392 1816.77V1814.77ZM1787 1762.77H1785C1785 1790.38 1762.61 1812.77 1735 1812.77V1814.77V1816.77C1764.82 1816.77 1789 1792.59 1789 1762.77H1787ZM1735 63V65C1762.61 65 1785 87.3858 1785 115H1787H1789C1789 85.1766 1764.82 61 1735 61V63ZM1118.77 30.2002L1116.8 30.5779C1118.08 37.2109 1121.29 45.6644 1125.87 52.5044C1130.39 59.2409 1136.66 65 1144.22 65V63V61C1138.76 61 1133.54 56.7462 1129.2 50.2764C1124.93 43.91 1121.91 35.9635 1120.73 29.8225L1118.77 30.2002Z" fill="#150A3C" mask="url(#path-4-inside-2_1212_4344)"/>
<path d="M954.6 38.04H956.952C957.336 38.728 957.928 39.28 958.728 39.696C959.544 40.096 960.472 40.296 961.512 40.296C962.712 40.296 963.704 40.048 964.488 39.552C965.272 39.04 965.664 38.4 965.664 37.632C965.664 36.88 965.392 36.304 964.848 35.904C964.304 35.504 963.448 35.24 962.28 35.112L959.496 34.824C957.976 34.68 956.848 34.224 956.112 33.456C955.392 32.688 955.032 31.712 955.032 30.528C955.032 29.104 955.584 27.952 956.688 27.072C957.808 26.192 959.304 25.752 961.176 25.752C962.968 25.752 964.424 26.176 965.544 27.024C966.68 27.872 967.464 28.872 967.896 30.024H965.544C965.224 29.352 964.664 28.808 963.864 28.392C963.064 27.976 962.144 27.768 961.104 27.768C959.904 27.768 958.952 28.024 958.248 28.536C957.544 29.048 957.192 29.68 957.192 30.432C957.192 31.856 958.176 32.664 960.144 32.856L963.144 33.168C964.616 33.328 965.76 33.792 966.576 34.56C967.408 35.328 967.824 36.312 967.824 37.512C967.824 38.792 967.264 39.912 966.144 40.872C965.024 41.832 963.48 42.312 961.512 42.312C959.592 42.312 958.064 41.904 956.928 41.088C955.792 40.256 955.016 39.24 954.6 38.04ZM969.342 26.064H982.542V28.08H977.022V42H974.862V28.08H969.342V26.064ZM998.013 30.744C998.013 32.136 997.597 33.24 996.765 34.056C995.933 34.872 994.821 35.328 993.429 35.424L998.445 42H995.757L990.741 35.424H987.333V42H985.173V26.064H992.925C994.461 26.064 995.693 26.48 996.621 27.312C997.549 28.128 998.013 29.272 998.013 30.744ZM995.037 32.712C995.581 32.248 995.853 31.592 995.853 30.744C995.853 29.896 995.581 29.24 995.037 28.776C994.509 28.312 993.805 28.08 992.925 28.08H987.333V33.408H992.925C993.805 33.408 994.509 33.176 995.037 32.712ZM1002.89 38.304L1001.28 42H999.047L1006.05 26.064H1008.41L1015.39 42H1013.09L1011.48 38.304H1002.89ZM1010.61 36.312L1007.18 28.416L1003.75 36.312H1010.61ZM1014.79 26.064H1027.99V28.08H1022.47V42H1020.31V28.08H1014.79V26.064ZM1041.42 28.08H1032.78V33.024H1041.25V35.04H1032.78V39.984H1041.42V42H1030.62V26.064H1041.42V28.08ZM1052.12 27.768C1050.4 27.768 1048.97 28.368 1047.82 29.568C1046.67 30.752 1046.09 32.24 1046.09 34.032C1046.09 35.84 1046.66 37.336 1047.8 38.52C1048.95 39.704 1050.4 40.296 1052.14 40.296C1053.55 40.296 1054.72 39.88 1055.67 39.048C1056.63 38.216 1057.25 37.112 1057.54 35.736H1051.8V33.72H1059.84C1059.84 36.264 1059.11 38.336 1057.64 39.936C1056.16 41.52 1054.36 42.312 1052.21 42.312C1049.88 42.312 1047.91 41.52 1046.31 39.936C1044.72 38.352 1043.93 36.384 1043.93 34.032C1043.93 31.68 1044.72 29.712 1046.28 28.128C1047.85 26.544 1049.8 25.752 1052.12 25.752C1053.67 25.752 1055.06 26.144 1056.29 26.928C1057.54 27.696 1058.5 28.728 1059.17 30.024H1056.7C1056.2 29.336 1055.56 28.792 1054.76 28.392C1053.97 27.976 1053.09 27.768 1052.12 27.768ZM1067.3 34.056L1072.05 26.064H1074.36L1068.36 36.072V42H1066.2V36.072L1060.2 26.064H1062.57L1067.3 34.056Z" fill="#150A3C"/>
<mask id="path-7-inside-3_1212_4344" fill="white">
<path d="M845.224 0C862.484 0 877.316 12.2513 880.576 29.2012L880.769 30.2002C883.225 42.9742 893.207 63 906.215 63H915.732C925.821 63 934 71.1788 934 81.2678V1763C934 1791.72 910.719 1815 882 1815H-438C-466.719 1815 -490 1791.72 -490 1763V115C-490 86.2812 -466.719 63 -438 63H541.785C554.794 63 564.776 42.9735 567.233 30.1992L567.426 29.1992C570.686 12.2501 585.517 5.08549e-05 602.777 0H845.224Z"/>
</mask>
<path d="M845.224 0C862.484 0 877.316 12.2513 880.576 29.2012L880.769 30.2002C883.225 42.9742 893.207 63 906.215 63H915.732C925.821 63 934 71.1788 934 81.2678V1763C934 1791.72 910.719 1815 882 1815H-438C-466.719 1815 -490 1791.72 -490 1763V115C-490 86.2812 -466.719 63 -438 63H541.785C554.794 63 564.776 42.9735 567.233 30.1992L567.426 29.1992C570.686 12.2501 585.517 5.08549e-05 602.777 0H845.224Z" fill="white"/>
<path d="M880.576 29.2012L878.612 29.5789L878.612 29.5794L880.576 29.2012ZM880.769 30.2002L882.733 29.8225L882.732 29.822L880.769 30.2002ZM567.233 30.1992L565.269 29.8214V29.8214L567.233 30.1992ZM567.426 29.1992L569.39 29.5771V29.577L567.426 29.1992ZM602.777 0V-2V-2V0ZM845.224 0V2C861.525 2 875.533 13.5707 878.612 29.5789L880.576 29.2012L882.54 28.8234C879.099 10.9319 863.443 -2 845.224 -2V0ZM880.576 29.2012L878.612 29.5794L878.805 30.5784L880.769 30.2002L882.732 29.822L882.54 28.823L880.576 29.2012ZM906.215 63V65H915.732V63V61H906.215V63ZM934 81.2679H932V1763H934H936V81.2679H934ZM882 1815V1813H-438V1815V1817H882V1815ZM-490 1763H-488V115H-490H-492V1763H-490ZM-438 63V65H541.785V63V61H-438V63ZM567.233 30.1992L569.197 30.5771L569.39 29.5771L567.426 29.1992L565.462 28.8214L565.269 29.8214L567.233 30.1992ZM567.426 29.1992L569.39 29.577C572.469 13.5695 586.476 2.00005 602.777 2V0V-2C584.558 -1.99995 568.904 10.9307 565.462 28.8214L567.426 29.1992ZM602.777 0V2H845.224V0V-2H602.777V0ZM541.785 63V65C549.339 65 555.609 59.2407 560.127 52.504C564.715 45.6638 567.921 37.2101 569.197 30.577L567.233 30.1992L565.269 29.8214C564.088 35.9626 561.075 43.9093 556.805 50.2759C552.466 56.746 547.24 61 541.785 61V63ZM-490 115H-488C-488 87.3858 -465.614 65 -438 65V63V61C-467.823 61 -492 85.1766 -492 115H-490ZM-438 1815V1813C-465.614 1813 -488 1790.61 -488 1763H-490H-492C-492 1792.82 -467.823 1817 -438 1817V1815ZM934 1763H932C932 1790.61 909.614 1813 882 1813V1815V1817C911.823 1817 936 1792.82 936 1763H934ZM915.732 63V65C924.717 65 932 72.2834 932 81.2679H934H936C936 70.0742 926.926 61 915.732 61V63ZM880.769 30.2002L878.805 30.5779C880.08 37.2109 883.287 45.6644 887.874 52.5044C892.392 59.2409 898.662 65 906.215 65V63V61C900.761 61 895.535 56.7462 891.196 50.2764C886.927 43.91 883.914 35.9635 882.733 29.8225L880.769 30.2002Z" fill="#150A3C" mask="url(#path-7-inside-3_1212_4344)"/>
<path d="M767.84 38.304L766.232 42H764L771.008 26.064H773.36L780.344 42H778.04L776.432 38.304H767.84ZM775.568 36.312L772.136 28.416L768.704 36.312H775.568ZM782.256 35.4V26.064H784.416V35.4C784.416 37 784.832 38.216 785.664 39.048C786.496 39.88 787.664 40.296 789.168 40.296C790.672 40.296 791.84 39.88 792.672 39.048C793.504 38.216 793.92 37 793.92 35.4V26.064H796.08V35.4C796.08 37.592 795.456 39.296 794.208 40.512C792.976 41.712 791.296 42.312 789.168 42.312C787.04 42.312 785.352 41.712 784.104 40.512C782.872 39.296 782.256 37.592 782.256 35.4ZM800.048 26.064H805.4C808.088 26.064 810.216 26.832 811.784 28.368C813.352 29.888 814.136 31.776 814.136 34.032C814.136 36.288 813.352 38.184 811.784 39.72C810.216 41.24 808.088 42 805.4 42H800.048V26.064ZM810.248 38.352C811.4 37.264 811.976 35.824 811.976 34.032C811.976 32.24 811.4 30.8 810.248 29.712C809.096 28.624 807.528 28.08 805.544 28.08H802.208V39.984H805.544C807.528 39.984 809.096 39.44 810.248 38.352ZM819.411 26.064V42H817.251V26.064H819.411ZM822.045 26.064H835.245V28.08H829.725V42H827.565V28.08H822.045V26.064Z" fill="#150A3C"/>
<mask id="path-10-inside-4_1212_4344" fill="white">
<path d="M668.308 0C684.204 0 698.218 10.4255 702.788 25.6504L703.088 26.6504C707.212 40.3894 718.726 63 733.071 63H867C895.719 63 919 86.2812 919 115V1762.77C919 1791.49 895.719 1814.77 867 1814.77H-476C-504.719 1814.77 -528 1791.49 -528 1762.77V115C-528 86.2811 -504.719 63 -476 63H185.931C200.276 63 211.791 40.3885 215.915 26.6494L216.215 25.6494C220.785 10.4253 234.799 0.000162953 250.694 0H668.308Z"/>
</mask>
<path d="M668.308 0C684.204 0 698.218 10.4255 702.788 25.6504L703.088 26.6504C707.212 40.3894 718.726 63 733.071 63H867C895.719 63 919 86.2812 919 115V1762.77C919 1791.49 895.719 1814.77 867 1814.77H-476C-504.719 1814.77 -528 1791.49 -528 1762.77V115C-528 86.2811 -504.719 63 -476 63H185.931C200.276 63 211.791 40.3885 215.915 26.6494L216.215 25.6494C220.785 10.4253 234.799 0.000162953 250.694 0H668.308Z" fill="white"/>
<path d="M702.788 25.6504L704.704 25.076L704.704 25.0754L702.788 25.6504ZM703.088 26.6504L701.172 27.2247L701.172 27.2254L703.088 26.6504ZM215.915 26.6494L217.831 27.2245L217.831 27.2238L215.915 26.6494ZM216.215 25.6494L214.299 25.0744L214.299 25.0751L216.215 25.6494ZM250.694 0V-2V-2V0ZM668.308 0V2C683.32 2 696.557 11.8463 700.873 26.2254L702.788 25.6504L704.704 25.0754C699.88 9.00467 685.087 -2 668.308 -2V0ZM702.788 25.6504L700.872 26.2247L701.172 27.2247L703.088 26.6504L705.004 26.076L704.704 25.076L702.788 25.6504ZM733.071 63V65H867V63V61H733.071V63ZM919 115H917V1762.77H919H921V115H919ZM867 1814.77V1812.77H-476V1814.77V1816.77H867V1814.77ZM-528 1762.77H-526V115H-528H-530V1762.77H-528ZM-476 63V65H185.931V63V61H-476V63ZM215.915 26.6494L217.831 27.2238L218.131 26.2238L216.215 25.6494L214.299 25.0751L213.999 26.0751L215.915 26.6494ZM216.215 25.6494L218.13 26.2245C222.447 11.8461 235.682 2.00015 250.694 2V0V-2C233.916 -1.99983 219.124 9.00452 214.299 25.0744L216.215 25.6494ZM250.694 0V2H668.308V0V-2H250.694V0ZM185.931 63V65C194.154 65 201.141 58.587 206.391 51.128C211.728 43.5458 215.721 34.2527 217.831 27.2245L215.915 26.6494L214 26.0744C211.985 32.7852 208.158 41.6674 203.12 48.8257C197.995 56.1072 192.053 61 185.931 61V63ZM-528 115H-526C-526 87.3857 -503.614 65 -476 65V63V61C-505.823 61 -530 85.1766 -530 115H-528ZM-476 1814.77V1812.77C-503.614 1812.77 -526 1790.38 -526 1762.77H-528H-530C-530 1792.59 -505.823 1816.77 -476 1816.77V1814.77ZM919 1762.77H917C917 1790.38 894.614 1812.77 867 1812.77V1814.77V1816.77C896.823 1816.77 921 1792.59 921 1762.77H919ZM867 63V65C894.614 65 917 87.3858 917 115H919H921C921 85.1766 896.823 61 867 61V63ZM703.088 26.6504L701.172 27.2254C703.282 34.2535 707.275 43.5465 712.611 51.1284C717.861 58.5872 724.848 65 733.071 65V63V61C726.948 61 721.007 56.1074 715.882 48.8262C710.844 41.6681 707.018 32.7862 705.003 26.0754L703.088 26.6504Z" fill="#150A3C" mask="url(#path-10-inside-4_1212_4344)"/>
<path d="M346.488 27.312C347.416 28.128 347.88 29.272 347.88 30.744C347.88 32.216 347.416 33.368 346.488 34.2C345.56 35.016 344.328 35.424 342.792 35.424H337.2V42H335.04V26.064H342.792C344.328 26.064 345.56 26.48 346.488 27.312ZM344.904 32.712C345.448 32.248 345.72 31.592 345.72 30.744C345.72 29.896 345.448 29.24 344.904 28.776C344.376 28.312 343.672 28.08 342.792 28.08H337.2V33.408H342.792C343.672 33.408 344.376 33.176 344.904 32.712ZM361.684 28.08H353.044V33.024H361.516V35.04H353.044V39.984H361.684V42H350.884V26.064H361.684V28.08ZM378.114 30.744C378.114 32.136 377.698 33.24 376.866 34.056C376.034 34.872 374.922 35.328 373.53 35.424L378.546 42H375.858L370.842 35.424H367.434V42H365.274V26.064H373.026C374.562 26.064 375.794 26.48 376.722 27.312C377.65 28.128 378.114 29.272 378.114 30.744ZM375.138 32.712C375.682 32.248 375.954 31.592 375.954 30.744C375.954 29.896 375.682 29.24 375.138 28.776C374.61 28.312 373.906 28.08 373.026 28.08H367.434V33.408H373.026C373.906 33.408 374.61 33.176 375.138 32.712ZM391.988 28.08H383.348V33.024H391.82V35.04H383.348V42H381.188V26.064H391.988V28.08ZM396.502 28.128C398.07 26.544 400.014 25.752 402.334 25.752C404.654 25.752 406.598 26.544 408.166 28.128C409.734 29.712 410.518 31.68 410.518 34.032C410.518 36.384 409.734 38.352 408.166 39.936C406.598 41.52 404.654 42.312 402.334 42.312C400.014 42.312 398.07 41.52 396.502 39.936C394.934 38.352 394.15 36.384 394.15 34.032C394.15 31.68 394.934 29.712 396.502 28.128ZM406.63 29.568C405.478 28.368 404.046 27.768 402.334 27.768C400.622 27.768 399.19 28.368 398.038 29.568C396.886 30.752 396.31 32.24 396.31 34.032C396.31 35.824 396.886 37.32 398.038 38.52C399.19 39.704 400.622 40.296 402.334 40.296C404.046 40.296 405.478 39.704 406.63 38.52C407.782 37.32 408.358 35.824 408.358 34.032C408.358 32.24 407.782 30.752 406.63 29.568ZM426.489 30.744C426.489 32.136 426.073 33.24 425.241 34.056C424.409 34.872 423.297 35.328 421.905 35.424L426.921 42H424.233L419.217 35.424H415.809V42H413.649V26.064H421.401C422.937 26.064 424.169 26.48 425.097 27.312C426.025 28.128 426.489 29.272 426.489 30.744ZM423.513 32.712C424.057 32.248 424.329 31.592 424.329 30.744C424.329 29.896 424.057 29.24 423.513 28.776C422.985 28.312 422.281 28.08 421.401 28.08H415.809V33.408H421.401C422.281 33.408 422.985 33.176 423.513 32.712ZM445.739 26.064H448.427V42H446.267V29.616L440.219 42H437.771L431.723 29.616V42H429.563V26.064H432.299L439.019 39.84L445.739 26.064ZM454.309 38.304L452.701 42H450.469L457.477 26.064H459.829L466.813 42H464.509L462.901 38.304H454.309ZM462.037 36.312L458.605 28.416L455.173 36.312H462.037ZM480.989 26.064H483.149V42H480.725L471.005 29.136V42H468.845V26.064H471.269L480.989 38.928V26.064ZM494.444 27.768C492.732 27.768 491.3 28.368 490.148 29.568C488.996 30.752 488.42 32.24 488.42 34.032C488.42 35.824 488.996 37.32 490.148 38.52C491.3 39.704 492.732 40.296 494.444 40.296C496.348 40.296 497.844 39.544 498.932 38.04H501.38C500.724 39.368 499.796 40.416 498.596 41.184C497.412 41.936 496.028 42.312 494.444 42.312C492.124 42.312 490.18 41.52 488.612 39.936C487.044 38.352 486.26 36.384 486.26 34.032C486.26 31.68 487.044 29.712 488.612 28.128C490.18 26.544 492.124 25.752 494.444 25.752C496.028 25.752 497.412 26.136 498.596 26.904C499.796 27.656 500.724 28.696 501.38 30.024H498.932C497.844 28.52 496.348 27.768 494.444 27.768ZM515.176 28.08H506.536V33.024H515.008V35.04H506.536V39.984H515.176V42H504.376V26.064H515.176V28.08ZM540.474 26.064H543.162V42H541.002V29.616L534.954 42H532.506L526.458 29.616V42H524.298V26.064H527.034L533.754 39.84L540.474 26.064ZM549.043 38.304L547.435 42H545.203L552.211 26.064H554.563L561.547 42H559.243L557.635 38.304H549.043ZM556.771 36.312L553.339 28.416L549.907 36.312H556.771ZM576.419 30.744C576.419 32.136 576.003 33.24 575.171 34.056C574.339 34.872 573.227 35.328 571.835 35.424L576.851 42H574.163L569.147 35.424H565.739V42H563.579V26.064H571.331C572.867 26.064 574.099 26.48 575.027 27.312C575.955 28.128 576.419 29.272 576.419 30.744ZM573.443 32.712C573.987 32.248 574.259 31.592 574.259 30.744C574.259 29.896 573.987 29.24 573.443 28.776C572.915 28.312 572.211 28.08 571.331 28.08H565.739V33.408H571.331C572.211 33.408 572.915 33.176 573.443 32.712ZM583.501 34.032L592.021 42H589.141L581.653 35.112V42H579.493V26.064H581.653V32.952L589.141 26.064H592.021L583.501 34.032ZM604.988 28.08H596.348V33.024H604.82V35.04H596.348V39.984H604.988V42H594.188V26.064H604.988V28.08ZM607.139 26.064H620.339V28.08H614.819V42H612.659V28.08H607.139V26.064ZM625.13 26.064V42H622.97V26.064H625.13ZM641.348 26.064H643.508V42H641.084L631.364 29.136V42H629.204V26.064H631.628L641.348 38.928V26.064ZM654.803 27.768C653.091 27.768 651.659 28.368 650.507 29.568C649.355 30.752 648.779 32.24 648.779 34.032C648.779 35.84 649.347 37.336 650.483 38.52C651.635 39.704 653.083 40.296 654.827 40.296C656.235 40.296 657.411 39.88 658.355 39.048C659.315 38.216 659.939 37.112 660.227 35.736H654.491V33.72H662.531C662.531 36.264 661.795 38.336 660.323 39.936C658.851 41.52 657.043 42.312 654.899 42.312C652.563 42.312 650.595 41.52 648.995 39.936C647.411 38.352 646.619 36.384 646.619 34.032C646.619 31.68 647.403 29.712 648.971 28.128C650.539 26.544 652.483 25.752 654.803 25.752C656.355 25.752 657.747 26.144 658.979 26.928C660.227 27.696 661.187 28.728 661.859 30.024H659.387C658.891 29.336 658.243 28.792 657.443 28.392C656.659 27.976 655.779 27.768 654.803 27.768Z" fill="#150A3C"/>
<path d="M97.7158 0C83.0483 0 70.5188 10.5782 68.0596 25.0381C66.6016 33.6109 54.3598 58 45.6638 58H1C0.447715 58 0 58.4477 0 59V1771C0 1787.57 13.4315 1801 30 1801H1396C1412.57 1801 1426 1787.57 1426 1771V59C1426 58.4477 1425.55 58 1425 58H318.966C310.27 58 298.029 33.612 296.571 25.0391C294.112 10.579 281.584 0.000166476 266.916 0H97.7158Z" fill="url(#paint0_linear_1212_4344)"/>
<path d="M143.404 29.732H130.876V36.212H143.152V39.848H130.876V50H126.916V26.096H143.404V29.732ZM147.689 40.064V26.096H151.649V40.028C151.649 42.236 152.213 43.928 153.341 45.104C154.493 46.256 156.089 46.832 158.129 46.832C160.169 46.832 161.753 46.256 162.881 45.104C164.033 43.928 164.609 42.236 164.609 40.028V26.096H168.569V40.064C168.569 43.352 167.633 45.908 165.761 47.732C163.889 49.556 161.345 50.468 158.129 50.468C154.913 50.468 152.369 49.556 150.497 47.732C148.625 45.908 147.689 43.352 147.689 40.064ZM178.196 26.096V46.364H190.724V50H174.236V26.096H178.196ZM198.622 26.096V46.364H211.15V50H194.662V26.096H198.622Z" fill="white"/>
</g>
<defs>
<linearGradient id="paint0_linear_1212_4344" x1="713" y1="0" x2="713" y2="1801" gradientUnits="userSpaceOnUse">
<stop stop-color="#130839"/>
<stop offset="0.360577" stop-color="#282251"/>
<stop offset="0.764423" stop-color="#793971"/>
<stop offset="1" stop-color="#CC7897"/>
</linearGradient>
<clipPath id="clip0_1212_4344">
<rect width="1424" height="58" fill="white"/>
</clipPath>
</defs>
</svg>
