<svg width="188" height="125" viewBox="0 0 188 125" fill="none" xmlns="http://www.w3.org/2000/svg">
<path d="M74.6289 88.4863C76.8657 85.7529 80.1797 84.2622 83.6592 84.4277C87.3045 84.4277 90.0395 85.9182 91.7793 88.8173H91.8613V85.0898H96.1699L96.0869 110.023C96.0868 119.963 91.3645 124.934 81.8369 124.934C78.7715 125.016 75.7887 124.354 73.0547 123.028L74.2148 119.218C76.5346 120.543 79.1028 121.206 81.7539 121.123C88.4646 121.123 91.7792 117.561 91.7793 110.52V107.621H91.6963C89.8736 111.017 86.228 113.005 82.417 112.84C78.1917 112.923 74.2976 110.437 72.6406 106.544C71.6465 104.307 71.1496 101.905 71.2324 99.5029C71.2325 94.8644 72.3921 91.2197 74.6289 88.4863ZM164.106 112.177H161.538V107.289H161.455C160.544 109.028 159.135 110.437 157.479 111.431C155.739 112.425 153.667 113.005 151.596 112.922C148.365 113.005 145.382 111.679 143.311 109.194C141.239 106.709 140.163 103.313 140.163 99.0888C140.08 96.4381 140.66 93.8699 141.737 91.4677C142.649 89.3142 144.223 87.4922 146.211 86.1669C148.116 84.9244 150.436 84.2617 152.756 84.2617C156.815 84.2617 159.798 85.9182 161.538 89.3144H161.621V71.7538H164.106V112.177ZM125.084 84.3447C127.901 84.3447 130.055 85.1729 131.629 86.912C133.203 88.6515 133.949 91.2198 133.949 94.5331V112.26H131.464V106.793H131.381C130.552 108.615 129.226 110.189 127.569 111.266C125.912 112.342 124.007 112.923 122.102 112.923C119.865 113.006 117.628 112.259 115.971 110.768C114.397 109.36 113.569 107.289 113.651 105.219C113.651 100.414 116.799 97.5156 123.096 96.6044L131.464 95.3613C131.464 89.4803 129.227 86.5811 124.836 86.581C121.853 86.581 118.871 87.8234 116.054 90.2255V87.2441C117.296 86.3329 118.705 85.6698 120.196 85.1728C121.77 84.6758 123.427 84.3447 125.084 84.3447ZM180.345 84.1786C182.416 84.0958 184.487 84.5929 186.31 85.5869V88.4033C184.487 87.1609 182.25 86.4979 180.014 86.415C178.44 86.3321 176.865 86.8292 175.705 87.8232C174.628 88.7343 174.048 90.0597 174.048 91.4677C173.965 92.296 174.131 93.2076 174.545 93.9531C174.959 94.6157 175.539 95.1952 176.202 95.6093C177.279 96.3548 178.522 96.9356 179.682 97.4326C182.581 98.7579 184.57 99.9172 185.647 100.994C186.724 102.154 187.222 103.728 187.139 105.302C187.221 107.372 186.31 109.443 184.653 110.768C182.748 112.259 180.345 112.922 177.942 112.839C175.623 113.004 173.302 112.342 171.396 111.017V108.035C172.391 108.863 173.468 109.443 174.628 109.857C175.788 110.354 176.948 110.602 178.19 110.602C182.499 110.602 184.653 108.863 184.653 105.384C184.653 104.224 184.156 103.148 183.327 102.402C181.919 101.243 180.344 100.332 178.604 99.6689C176.616 98.9234 174.794 97.7633 173.22 96.2724C172.06 95.0299 171.48 93.3732 171.562 91.6337C171.48 89.563 172.391 87.5753 174.048 86.2499C175.871 84.8418 178.108 84.0958 180.345 84.1786ZM13.0723 73.9902C16.386 73.9902 19.0369 74.8188 20.9424 76.3925C22.8479 77.9664 23.9256 80.2862 23.8428 82.6884C23.9255 84.6762 23.2622 86.6638 22.1025 88.3203C20.8598 89.9769 19.2024 91.1369 17.2969 91.7167V91.8828C19.6167 92.0484 21.8536 93.1255 23.4277 94.7822C25.0019 96.5217 25.8309 98.8408 25.748 101.16C25.8308 104.225 24.5882 107.124 22.2686 109.029C19.7831 111.1 16.6344 112.177 13.4033 112.094H2.21875V73.9902H13.0723ZM35.7725 112.094H31.4648V85.0898H35.7725V112.094ZM56.3193 84.4277C59.3019 84.4277 61.5391 85.3391 63.1133 87.3271C64.6872 89.3151 65.4326 92.0487 65.4326 95.6103V112.094H61.125V96.6865C61.1249 90.9712 59.0533 88.0722 54.8281 88.0722C52.7569 87.9894 50.768 88.9007 49.4424 90.4745C47.9514 92.2139 47.2063 94.4502 47.2891 96.6865V112.094H42.9805V85.0078H47.3721V89.5634H47.4541C49.1939 86.3329 52.5911 84.3448 56.3193 84.4277ZM152.59 86.498C149.856 86.4152 147.205 87.658 145.465 89.8945C143.642 92.1309 142.648 95.1127 142.648 98.9228C142.648 102.567 143.477 105.384 145.051 107.538C146.625 109.609 149.111 110.851 151.679 110.768C154.33 110.851 156.898 109.857 158.804 108.035C160.626 106.13 161.621 103.479 161.455 100.828L161.538 95.6093C161.621 93.2072 160.71 90.8048 159.053 89.0654C157.396 87.3259 155.075 86.4152 152.59 86.498ZM123.842 98.5097C120.777 99.0067 118.705 99.6689 117.711 100.58C116.717 101.657 116.137 103.148 116.137 105.136C116.054 106.71 116.634 108.118 117.794 109.195C119.037 110.272 120.611 110.768 122.268 110.685C124.753 110.768 127.238 109.692 128.812 107.704C130.552 105.633 131.547 102.899 131.381 100.166V97.4326L123.842 98.5097ZM84.1562 88.0722C81.6709 87.9895 79.3515 89.0667 77.8604 91.0546C76.3692 93.0426 75.623 95.6931 75.623 99.2548C75.5402 101.823 76.2861 104.308 77.7773 106.379C79.1858 108.201 81.3403 109.195 83.5771 109.112C85.8139 109.195 87.9678 108.2 89.459 106.544C91.1159 104.722 91.8621 102.319 91.7793 99.9169V95.8583C91.8621 93.7876 91.0332 91.7995 89.542 90.3085C88.1336 88.8176 86.2275 87.9894 84.1562 88.0722ZM6.69238 108.118H12.7402C15.3912 108.118 17.3798 107.455 18.8711 106.296C20.3623 105.053 21.1082 103.148 21.0254 101.16C21.0254 96.6871 17.96 94.3671 11.8291 94.3671H6.69238V108.118ZM6.69238 90.3915H11.249C13.3202 90.4744 15.3919 89.8947 17.0488 88.6523C18.4573 87.4098 19.2858 85.5868 19.1201 83.6816C19.12 79.9543 16.717 78.1318 11.8291 78.1318L6.69238 78.0497V90.3915ZM33.6182 73.162C34.4465 73.162 35.1924 73.4106 35.6895 73.9902C36.1865 74.4872 36.5186 75.2329 36.5186 75.9785C36.5185 76.7239 36.1874 77.4699 35.6074 78.0497C34.5304 79.1265 32.7898 79.1265 31.6299 78.0497C31.0499 77.4699 30.8018 76.7239 30.8018 75.9785C30.8018 75.233 31.1328 74.4872 31.6299 73.9902C32.1269 73.4105 32.8727 73.1622 33.6182 73.162ZM85.252 5.95209V50.6826L103.146 40.3281L94.3652 36.2695L88.8145 22.4365L117.065 32.3769V46.79L85.252 65.0956L72.4932 57.9726V1.47943L85.252 5.95209Z" fill="white"/>
</svg>
