<svg width="141" height="90" viewBox="0 0 141 90" fill="none" xmlns="http://www.w3.org/2000/svg">
<path d="M62.1992 68.4337C63.9379 68.4337 65.2846 69.216 66.0137 70.1095H66.126V68.9366H69.1543V82.004C69.1542 87.3645 66.0135 89.5976 62.2559 89.5977C58.7224 89.5977 56.5909 87.2524 55.8057 85.2979L58.6104 84.1261C59.1152 85.2987 60.2931 86.6944 62.2559 86.6944C64.6674 86.6943 66.126 85.1866 66.126 82.3946V81.3331H66.0137C65.2846 82.2266 63.9379 83.0089 62.1992 83.0089C58.5537 83.0087 55.2451 79.8255 55.2451 75.7491C55.2452 71.617 58.5538 68.4339 62.1992 68.4337ZM30.623 68.4337C34.605 68.4337 37.9138 71.561 37.9141 75.8048C37.9141 80.0488 34.6612 83.1768 30.623 83.1768C26.5848 83.1768 23.332 80.0488 23.332 75.8048C23.3323 71.5051 26.6411 68.4337 30.623 68.4337ZM46.4395 68.4337C50.4775 68.4337 53.7303 71.561 53.7305 75.8048C53.7305 80.0487 50.4215 83.1768 46.4395 83.1768C42.4012 83.1768 39.1484 80.0488 39.1484 75.8048C39.1487 71.5051 42.4014 68.4337 46.4395 68.4337ZM83.2881 68.4337C87.1018 68.4338 89.009 71.5057 89.626 73.1251L89.9619 73.962L80.0352 78.0391C80.7642 79.5465 81.9418 80.2724 83.624 80.2725C85.2505 80.2725 86.4292 79.4903 87.2705 78.2618L89.7939 79.9376C89.0087 81.1103 87.0452 83.1768 83.624 83.1768C79.4178 83.1766 76.2773 79.937 76.2773 75.8048C76.2775 71.3935 79.4743 68.4337 83.2881 68.4337ZM11.6094 60.337C15.0867 60.337 17.5554 61.7327 19.4062 63.5196L17.2188 65.6973C15.9288 64.413 14.0771 63.4639 11.6094 63.4639C7.01052 63.4642 3.4209 67.1499 3.4209 71.6729C3.42093 76.196 7.01054 79.8817 11.6094 79.8819C14.5819 79.8819 16.3211 78.6529 17.3867 77.5919C18.284 76.6984 18.845 75.4137 19.0693 73.6827H11.6094V70.6114H22.0977C22.2098 71.1698 22.2666 71.8405 22.2666 72.5665C22.2666 74.8559 21.6491 77.7035 19.5742 79.7696C17.5551 81.8358 15.0306 82.9532 11.6094 82.9532C5.27185 82.953 3.20072e-05 77.9271 0 71.6729C0 65.4188 5.27183 60.3372 11.6094 60.337ZM74.707 82.7852H71.5098V61.2305H74.707V82.7852ZM127.6 82.293H125.143V80.4434H125.028C124.571 81.1158 123.943 81.6758 123.086 82.1241C122.229 82.5724 121.314 82.7413 120.343 82.7413C118.515 82.7412 116.972 82.0688 115.715 80.668C114.458 79.2672 113.83 77.5857 113.83 75.5684C113.83 73.6072 114.458 71.9258 115.715 70.4688C117.029 69.068 118.515 68.3957 120.343 68.3956C121.371 68.3956 122.286 68.6195 123.086 69.0118C123.943 69.4601 124.571 69.965 125.028 70.6934H125.143L125.028 68.8438V62.6241H127.6V82.293ZM135.08 68.5655C136.242 68.5656 137.293 68.843 138.289 69.3966C139.23 69.9502 139.894 70.7249 140.281 71.6661L138.067 72.6075C137.791 72.0539 137.404 71.6106 136.851 71.2784C136.297 70.9463 135.633 70.7804 134.914 70.7804C134.25 70.7804 133.696 70.9462 133.143 71.2784C132.645 71.6105 132.368 71.9981 132.368 72.4962C132.368 73.2713 133.088 73.8258 134.526 74.1026L136.519 74.6007C139.175 75.2651 140.447 76.5939 140.447 78.587C140.503 79.7496 139.949 80.7465 138.953 81.5216C137.957 82.2966 136.684 82.7393 135.135 82.7393C133.807 82.7393 132.645 82.4071 131.594 81.6876C130.598 80.9679 129.878 80.0816 129.436 78.919L131.648 77.9776C131.98 78.7527 132.424 79.4175 133.088 79.8604C133.696 80.3031 134.416 80.5245 135.135 80.5245C135.909 80.5245 136.574 80.3586 137.127 80.0264C137.68 79.6944 137.901 79.2515 137.901 78.8087C137.901 77.9782 137.238 77.3134 135.965 76.9259L133.696 76.3722C131.096 75.7078 129.822 74.4898 129.822 72.6075C129.822 71.3895 130.32 70.448 131.316 69.6729C132.312 68.9532 133.586 68.5655 135.08 68.5655ZM113.371 82.2833H110.529L108.598 76.963H100.243L98.3115 82.2833H95.4697L102.972 62.6241H105.869L113.371 82.2833ZM120.743 70.7491C119.486 70.7491 118.458 71.1974 117.658 72.0938C116.801 72.9904 116.4 74.1675 116.4 75.5684C116.4 76.9693 116.801 78.1465 117.658 79.043C118.515 79.9393 119.544 80.3878 120.743 80.3878C122 80.4438 123.028 79.9951 123.828 79.0987C124.685 78.2022 125.085 77.0253 125.085 75.5684C125.085 74.1675 124.685 72.9904 123.828 72.0938C123.028 71.1974 122 70.7491 120.743 70.7491ZM30.623 71.338C28.4358 71.338 26.5285 73.1804 26.5283 75.8048C26.5283 78.4294 28.4357 80.2725 30.623 80.2725C32.8104 80.2725 34.7178 78.4293 34.7178 75.8048C34.7176 73.1246 32.8103 71.338 30.623 71.338ZM46.4395 71.338C44.2522 71.338 42.3449 73.1804 42.3447 75.8048C42.3447 78.4294 44.2521 80.2725 46.4395 80.2725C48.6828 80.2725 50.5332 78.4293 50.5332 75.8048C50.533 73.1246 48.6266 71.338 46.4395 71.338ZM62.4795 71.2823C60.2924 71.2826 58.4415 73.1807 58.4414 75.7491C58.4414 78.3177 60.2923 80.1609 62.4795 80.1612C64.6669 80.1612 66.3496 78.3178 66.3496 75.7491C66.3495 73.1805 64.6668 71.2823 62.4795 71.2823ZM83.3438 71.2823C81.7173 71.2825 79.3615 72.7343 79.4736 75.5821L86.0918 72.8458C85.7553 71.8965 84.6337 71.2823 83.3438 71.2823ZM101.096 74.6104H107.745L104.506 65.7608H104.392L101.096 74.6104ZM64.5254 2.33895C68.4711 -1.45787 74.9944 -0.503208 77.6719 4.26766C79.6849 7.88543 81.8182 11.424 83.8916 15.002C87.3541 20.9456 90.8571 26.8892 94.2793 32.8526C97.158 37.842 94.0383 44.1441 88.3213 44.9991C84.8185 45.5159 81.5364 43.9254 79.7246 40.8243C76.6848 35.5963 73.6247 30.3684 70.585 25.1602C70.5303 25.0523 70.4595 24.9603 70.3867 24.8702C69.1844 26.9278 67.9831 28.9667 66.7607 31.0245C65.0723 33.9026 63.3824 36.7997 61.6738 39.6778C61.679 39.6829 61.6836 39.6876 61.6875 39.6915L61.5264 39.9503L61.5254 39.9493C61.3444 40.2672 61.1846 40.6061 60.9834 40.9239C59.2478 43.7544 56.7181 45.2046 53.4141 45.0938L53.0918 45.0782C49.2501 44.8086 46.2017 42.0391 45.5205 38.3243L45.4619 37.962C45.2002 36.0736 45.583 34.3039 46.5693 32.6739C46.6699 32.4952 46.7804 32.3261 46.8936 32.1573L47.2334 31.6407C47.2405 31.6351 47.2452 31.6275 47.251 31.6212C47.2406 31.4937 47.3178 31.4171 47.3945 31.3223L47.4014 31.3292C48.365 29.6837 49.3087 28.0382 50.2725 26.3927C54.2584 19.5544 58.2449 12.7159 62.251 5.89754C62.2912 5.81806 62.3513 5.75829 62.3916 5.67879C62.8747 4.42646 63.539 3.27323 64.5254 2.33895ZM58.165 36.0421C57.6122 32.9113 53.6534 31.3107 50.9736 33.4014C50.7158 33.6066 50.6199 33.7122 50.1904 34.0977C50.1403 34.1726 50.0995 34.2388 50.0684 34.2852C49.9635 34.4418 49.9234 34.5071 49.9004 34.5479L49.8701 34.6007L49.8389 34.6524C49.2932 35.5542 49.1103 36.4436 49.248 37.4376C49.5439 39.5444 51.1941 41.1053 53.3418 41.2638C55.3249 41.3865 56.642 40.6914 57.7246 38.9259L57.7393 38.9024L57.7539 38.88C57.8617 38.7097 57.8564 38.7034 57.9307 38.5587L57.9648 38.4522C58.2471 37.5653 58.3035 36.8075 58.168 36.0557L58.165 36.0421Z" fill="url(#paint0_linear_1235_3554)"/>
<defs>
<linearGradient id="paint0_linear_1235_3554" x1="70.2255" y1="0" x2="70.2255" y2="89.5977" gradientUnits="userSpaceOnUse">
<stop stop-color="#130839"/>
<stop offset="0.360577" stop-color="#282251"/>
<stop offset="0.764423" stop-color="#793971"/>
<stop offset="1" stop-color="#CC7897"/>
</linearGradient>
</defs>
</svg>
