<svg width="187" height="120" viewBox="0 0 187 120" fill="none" xmlns="http://www.w3.org/2000/svg">
<g clip-path="url(#clip0_1235_3573)">
<path d="M25.082 99.1783H41.462V93.7478H31.0108V73.0317H25.082V99.1783ZM49.7551 99.1783V81.1691H43.8268V99.1783H49.7551ZM46.7915 78.7107C48.8584 78.7107 50.1452 77.3277 50.1452 75.5984C50.1068 73.8315 48.8584 72.4877 46.8308 72.4877C44.8028 72.4877 43.4766 73.832 43.4766 75.5984C43.4766 77.3277 44.7634 78.7107 46.7526 78.7107H46.7915ZM52.5074 99.1783H58.4356V89.1208C58.4356 88.5825 58.474 88.0443 58.6309 87.6609C59.0588 86.5854 60.0343 85.4713 61.6723 85.4713C63.8179 85.4713 64.6763 87.1232 64.6763 89.5429V99.1778H70.6035V88.8519C70.6035 83.3199 67.6788 80.7459 63.778 80.7459C60.5803 80.7459 59.1759 82.551 58.3957 83.7808H58.4356V81.1691H52.5074C52.5856 82.8591 52.5074 99.1783 52.5074 99.1783ZM78.9671 73.0317H73.0388V99.1783H78.9671V93.3393L80.4486 91.4557L85.0901 99.1783H92.3829L84.5835 87.9988L91.408 80.3934H84.2717C84.2717 80.3934 79.3965 87.1974 78.9671 88.0051V73.0317Z" fill="white"/>
<path d="M108.238 91.6663C108.316 91.2039 108.433 90.3168 108.433 89.3135C108.433 84.6582 106.093 79.9318 99.9306 79.9318C93.3392 79.9318 90.2969 85.1954 90.2969 89.9695C90.2969 95.8739 94.0023 99.561 100.476 99.561C103.051 99.561 105.429 99.1781 107.38 98.371L106.6 94.4176C105 94.9533 103.362 95.2216 101.334 95.2216C98.5656 95.2216 96.148 94.0735 95.9527 91.6276L108.238 91.6653V91.6663ZM95.9138 87.6167C96.0698 86.0799 97.0846 83.8124 99.6193 83.8124C102.31 83.8124 102.935 86.2332 102.935 87.6167H95.9138ZM123.066 73.032V82.0832H122.987C122.129 80.8163 120.335 79.971 117.957 79.971C113.394 79.971 109.377 83.6587 109.415 89.9585C109.415 95.798 113.043 99.6012 117.566 99.6012C120.024 99.6012 122.363 98.5248 123.534 96.4503H123.65L123.885 99.1786H129.15C129.072 97.9107 128.993 95.7211 128.993 93.5697V73.0315H123.065L123.066 73.032ZM123.066 90.8425C123.066 91.3028 123.027 91.7646 122.948 92.1475C122.598 93.8004 121.194 94.9517 119.478 94.9517C117.021 94.9517 115.422 92.9546 115.422 89.8047C115.422 86.8473 116.788 84.4652 119.517 84.4652C121.35 84.4652 122.637 85.7326 122.988 87.3071C123.066 87.6538 123.066 88.0383 123.066 88.3835V90.8425Z" fill="white"/>
<path d="M144.12 99.2332V81.56H138.223V99.2332H144.12ZM141.173 79.1475C143.229 79.1475 144.509 77.7903 144.509 76.0943C144.47 74.3598 143.229 73.0406 141.212 73.0406C139.193 73.0406 137.875 74.3598 137.875 76.0943C137.875 77.7903 139.155 79.1475 141.134 79.1475H141.172H141.173ZM147.384 99.2332H153.281V89.3649C153.281 88.8372 153.32 88.3085 153.476 87.9317C153.902 86.8758 154.872 85.783 156.502 85.783C158.635 85.783 159.489 87.4035 159.489 89.7796V99.2332H165.386V89.1C165.386 83.6718 162.477 81.1458 158.597 81.1458C155.416 81.1458 154.019 82.9167 153.243 84.123H153.282V81.5605H147.385C147.462 83.2185 147.384 99.2332 147.384 99.2332Z" fill="white"/>
</g>
<path d="M75.917 24.1052H109.233C110.559 24.1052 111.623 25.1656 111.623 26.4587V60.5857C111.623 61.8792 110.559 62.9392 109.233 62.9392H75.917C74.5916 62.9392 73.5274 61.8795 73.5273 60.5867V26.4587C73.5273 25.1656 74.5918 24.1052 75.917 24.1052Z" stroke="white"/>
<path d="M85.8639 56.7995V38.8815H80.0131V56.7995H85.8639ZM82.9395 36.4355C84.9794 36.4355 86.2494 35.0596 86.2494 33.3401C86.211 31.5816 84.9794 30.2441 82.9784 30.2441C80.9758 30.2441 79.668 31.5816 79.668 33.3401C79.668 35.0596 80.9374 36.4355 82.9012 36.4355H82.939H82.9395ZM89.1022 56.7995H94.9525V46.7944C94.9525 46.2595 94.9909 45.7234 95.1453 45.3414C95.5681 44.2709 96.5308 43.163 98.1474 43.163C100.264 43.163 101.111 44.8059 101.111 47.2149V56.7995H106.961V46.5259C106.961 41.0225 104.075 38.4615 100.226 38.4615C97.0702 38.4615 95.6841 40.257 94.9142 41.4799H94.9531V38.882H89.1027C89.1789 40.563 89.1022 56.7995 89.1022 56.7995Z" fill="white"/>
<defs>
<clipPath id="clip0_1235_3573">
<rect width="149.122" height="40.3422" fill="white" transform="translate(25.082 65.5406)"/>
</clipPath>
</defs>
</svg>
