<svg width="187" height="120" viewBox="0 0 187 120" fill="none" xmlns="http://www.w3.org/2000/svg">
<path d="M93.5638 15.7654C82.3423 15.7654 73.2422 25.0558 73.2422 36.512C73.2422 42.2453 75.5172 47.4345 79.1962 51.18L75.3225 55.1347C74.5642 55.9089 75.0971 57.2585 76.1833 57.2585H93.5638C104.785 57.2585 113.885 47.9681 113.885 36.512C113.875 25.0558 104.785 15.7654 93.5638 15.7654Z" fill="url(#paint0_linear_1235_3581)"/>
<path d="M105.081 40.6547C107.701 40.6547 109.825 38.486 109.825 35.8107C109.825 33.1354 107.701 30.9667 105.081 30.9667C102.46 30.9667 100.336 33.1354 100.336 35.8107C100.336 38.486 102.46 40.6547 105.081 40.6547Z" fill="white"/>
<path d="M82.0338 40.6547C84.6543 40.6547 86.7786 38.486 86.7786 35.8107C86.7786 33.1354 84.6543 30.9667 82.0338 30.9667C79.4134 30.9667 77.2891 33.1354 77.2891 35.8107C77.2891 38.486 79.4134 40.6547 82.0338 40.6547Z" fill="white"/>
<path d="M93.5726 50.3321C101.049 50.3321 107.11 45.6902 107.11 39.9641C107.11 34.2379 101.049 29.596 93.5726 29.596C86.0961 29.596 80.0352 34.2379 80.0352 39.9641C80.0352 45.6902 86.0961 50.3321 93.5726 50.3321Z" fill="white"/>
<path d="M89.5569 38.9602C89.4749 40.7074 88.3374 41.356 87.0052 41.356C85.673 41.356 84.6584 40.4458 84.7301 38.6986C84.8019 36.9514 85.9496 35.7797 87.2819 35.7797C88.6141 35.7797 89.6286 37.2025 89.5569 38.9602Z" fill="white"/>
<path d="M102.386 38.6986C102.468 40.4458 101.454 41.356 100.111 41.356C98.7686 41.356 97.6311 40.7283 97.5593 38.9602C97.4773 37.213 98.4919 35.7797 99.8344 35.7797C101.177 35.7797 102.314 36.9305 102.386 38.6986Z" fill="white"/>
<path d="M97.5818 39.1166C97.6638 40.7487 98.7296 41.3555 99.9594 41.3555C101.189 41.3555 102.152 40.4662 102.091 38.8132C102.009 37.1811 100.943 36.093 99.7134 36.093C98.4837 36.093 97.5101 37.474 97.5818 39.1271V39.1166Z" fill="url(#paint1_linear_1235_3581)"/>
<path d="M89.5559 39.1166C89.474 40.7487 88.4082 41.3555 87.1784 41.3555C85.9487 41.3555 84.9854 40.4662 85.0674 38.8132C85.1494 37.1811 86.2151 36.093 87.4449 36.093C88.6746 36.093 89.6379 37.474 89.5559 39.1271V39.1166Z" fill="url(#paint2_linear_1235_3581)"/>
<path d="M93.5733 42.5281C91.8926 42.5281 90.2837 42.6118 88.7978 42.7583C88.5416 42.7897 88.3879 43.0512 88.4801 43.2814C89.3102 45.2797 91.2778 46.6816 93.5733 46.6816C95.8688 46.6816 97.8262 45.2902 98.6665 43.2814C98.7587 43.0408 98.605 42.7792 98.3488 42.7583C96.8526 42.6118 95.254 42.5281 93.5733 42.5281Z" fill="white"/>
<path d="M93.5748 42.9148C91.8941 42.9148 90.2852 42.9985 88.8095 43.1554C88.5533 43.1868 88.3996 43.4484 88.4918 43.689C89.3219 45.7187 91.2895 47.1415 93.5748 47.1415C95.8601 47.1415 97.8276 45.7187 98.6577 43.689C98.75 43.4484 98.5962 43.1868 98.34 43.1554C96.8438 42.9985 95.2452 42.9148 93.5748 42.9148Z" fill="white"/>
<path d="M93.5748 42.7053C91.9249 42.7053 90.357 42.789 88.8915 42.9354C88.6353 42.9668 88.4816 43.2284 88.5738 43.4585C89.4039 45.4568 91.3203 46.8588 93.5748 46.8588C95.8294 46.8588 97.7457 45.4673 98.5758 43.4585C98.668 43.2179 98.5143 42.9564 98.2581 42.9354C96.7927 42.8099 95.2247 42.7053 93.5748 42.7053Z" fill="url(#paint3_linear_1235_3581)"/>
<path d="M100.994 28.1945C102.851 28.1945 104.355 26.6581 104.355 24.7628C104.355 22.8676 102.851 21.3312 100.994 21.3312C99.1377 21.3312 97.6328 22.8676 97.6328 24.7628C97.6328 26.6581 99.1377 28.1945 100.994 28.1945Z" fill="white"/>
<path d="M93.5323 30.0255C93.1326 30.0255 92.8047 29.8476 92.8047 29.5861C92.8047 26.5102 95.2539 24.0097 98.2668 24.0097C98.6665 24.0097 98.9944 24.355 98.9944 24.7525C98.9944 25.1501 98.6562 25.4953 98.2668 25.4953C96.0635 25.4953 94.2701 27.3262 94.2701 29.5756C94.2701 29.8476 93.932 30.015 93.5425 30.015L93.5323 30.0255Z" fill="white"/>
<path d="M88.6858 39.9328C88.6858 40.5605 88.0197 40.8534 87.2101 40.8534C86.4005 40.8534 85.7344 40.5605 85.7344 39.9328C85.7344 39.305 86.4005 38.7819 87.2101 38.7819C88.0197 38.7819 88.6858 39.2841 88.6858 39.9328Z" fill="url(#paint4_linear_1235_3581)"/>
<path d="M101.412 39.9328C101.412 40.5605 100.746 40.8534 99.9366 40.8534C99.127 40.8534 98.4609 40.5605 98.4609 39.9328C98.4609 39.305 99.127 38.7819 99.9366 38.7819C100.746 38.7819 101.412 39.2841 101.412 39.9328Z" fill="url(#paint5_linear_1235_3581)"/>
<path d="M88.2219 38.1964C88.5105 38.1964 88.7445 37.9341 88.7445 37.6105C88.7445 37.2869 88.5105 37.0246 88.2219 37.0246C87.9332 37.0246 87.6992 37.2869 87.6992 37.6105C87.6992 37.9341 87.9332 38.1964 88.2219 38.1964Z" fill="white"/>
<path d="M100.745 38.1964C101.034 38.1964 101.268 37.9341 101.268 37.6105C101.268 37.2869 101.034 37.0246 100.745 37.0246C100.457 37.0246 100.223 37.2869 100.223 37.6105C100.223 37.9341 100.457 38.1964 100.745 38.1964Z" fill="white"/>
<path d="M38.4897 95.6754H33.212L29.0616 88.2473C28.6619 88.2682 28.3545 88.2786 28.1496 88.2786H26.4074V95.6754H21.7344V74.2593H29.3178C30.7115 74.2593 31.9618 74.5208 33.0685 75.0335C34.1753 75.5566 35.0361 76.3099 35.6613 77.2933C36.2864 78.2768 36.6041 79.459 36.6041 80.8295C36.6041 82.0955 36.3274 83.2568 35.774 84.3135C35.2206 85.3702 34.4213 86.2281 33.3862 86.8976L38.4897 95.6964V95.6754ZM26.4177 84.3972H28.7747C29.41 84.3972 29.9737 84.2716 30.4758 84.031C30.9677 83.7904 31.3571 83.4451 31.6338 82.9952C31.9105 82.5454 32.0438 82.0327 32.0438 81.4364C32.0438 80.84 31.9003 80.3274 31.6236 79.8775C31.3469 79.4276 30.9472 79.0928 30.4246 78.8417C29.9019 78.6011 29.2973 78.4756 28.6107 78.4756H26.4279V84.3762L26.4177 84.3972Z" fill="url(#paint6_linear_1235_3581)"/>
<path d="M52.6922 89.3453H42.3623C42.639 90.2555 43.1207 90.9669 43.8278 91.49C44.5246 92.0131 45.365 92.2642 46.3283 92.2642C47.0046 92.2642 47.6912 92.1491 48.3984 91.9294C49.1055 91.7097 49.6486 91.4482 50.0278 91.1448L51.4215 94.5764C50.8271 94.9844 50.0995 95.3087 49.2079 95.5494C48.3266 95.79 47.3838 95.9155 46.4 95.9155C44.7604 95.9155 43.3359 95.5807 42.1061 94.9007C40.8764 94.2207 39.9336 93.2791 39.2675 92.0654C38.6014 90.8518 38.2734 89.4708 38.2734 87.9119C38.2734 86.3531 38.6116 84.8988 39.2982 83.6747C39.9848 82.4507 40.9071 81.4986 42.0549 80.829C43.2129 80.1594 44.4734 79.8246 45.8364 79.8246C47.1993 79.8246 48.3471 80.1281 49.4231 80.7453C50.4992 81.3626 51.3498 82.231 51.9749 83.34C52.6 84.4594 52.9074 85.7253 52.9074 87.1482C52.9074 87.8806 52.8357 88.6129 52.682 89.3453H52.6922ZM48.7775 86.4682C48.7775 85.537 48.5008 84.8047 47.9577 84.2606C47.4146 83.7166 46.687 83.4446 45.7954 83.4446C44.9038 83.4446 44.1352 83.7166 43.5204 84.2606C42.9055 84.8047 42.5058 85.537 42.3009 86.4577H48.7775V86.4682Z" fill="url(#paint7_linear_1235_3581)"/>
<path d="M66.1577 73.2963H70.6668V95.6854H66.3729V93.8127H66.3012C65.7171 94.4823 65.0407 94.9949 64.2516 95.3715C63.4625 95.7377 62.6017 95.926 61.6487 95.926C60.3984 95.926 59.2199 95.6017 58.1439 94.9635C57.0576 94.3253 56.1865 93.3942 55.5307 92.1806C54.8748 90.9669 54.5469 89.5336 54.5469 87.8806C54.5469 86.2276 54.8851 84.7419 55.5717 83.5283C56.248 82.3147 57.1396 81.394 58.2464 80.7558C59.3531 80.1281 60.5316 79.8142 61.8024 79.8142C62.653 79.8142 63.442 79.9607 64.1594 80.2536C64.8768 80.5466 65.5121 80.9755 66.0655 81.53H66.168V73.3067L66.1577 73.2963ZM64.5078 91.4482C65.0715 91.103 65.5224 90.6112 65.8605 89.9835C66.1885 89.3558 66.3627 88.6443 66.3627 87.8492C66.3627 87.0541 66.1987 86.3636 65.881 85.7463C65.5634 85.129 65.1227 84.6373 64.5591 84.2921C63.9954 83.9468 63.3498 83.7689 62.6427 83.7689C61.9356 83.7689 61.29 83.9363 60.7264 84.2816C60.1627 84.6268 59.7118 85.1081 59.3941 85.7254C59.0662 86.3426 58.9125 87.0436 58.9125 87.8283C58.9125 88.613 59.0764 89.3244 59.3941 89.9521C59.7118 90.5798 60.1525 91.0716 60.7264 91.4377C61.3002 91.7935 61.9356 91.9713 62.6325 91.9713C63.3293 91.9713 63.9544 91.7935 64.5181 91.4482H64.5078Z" fill="url(#paint8_linear_1235_3581)"/>
<path d="M84.103 73.2963H88.6121V95.6854H84.3183V93.8127H84.2465C83.6624 94.4823 82.986 94.9949 82.1969 95.3715C81.4181 95.7377 80.547 95.926 79.594 95.926C78.3437 95.926 77.1652 95.6017 76.0892 94.9635C75.0029 94.3253 74.1318 93.3942 73.476 92.1806C72.8201 90.9669 72.4922 89.5336 72.4922 87.8806C72.4922 86.2276 72.8304 84.7419 73.517 83.5283C74.1933 82.3147 75.0849 81.394 76.1917 80.7558C77.2984 80.1281 78.477 79.8142 79.7374 79.8142C80.588 79.8142 81.3771 79.9607 82.0945 80.2536C82.8118 80.5466 83.4472 80.9755 84.0006 81.53H84.103V73.3067V73.2963ZM82.4531 91.4482C83.0168 91.103 83.4677 90.6112 83.8059 89.9835C84.1338 89.3558 84.308 88.6443 84.308 87.8492C84.308 87.0541 84.1543 86.3636 83.8264 85.7463C83.5087 85.129 83.068 84.6373 82.5044 84.2921C81.9407 83.9468 81.2951 83.7689 80.588 83.7689C79.8809 83.7689 79.2353 83.9363 78.6717 84.2816C78.108 84.6268 77.6571 85.1081 77.3394 85.7254C77.0115 86.3426 76.8578 87.0436 76.8578 87.8283C76.8578 88.613 77.0115 89.3244 77.3394 89.9521C77.6571 90.5798 78.108 91.0716 78.6717 91.4377C79.2455 91.7935 79.8809 91.9713 80.5778 91.9713C81.2746 91.9713 81.8998 91.7935 82.4634 91.4482H82.4531Z" fill="url(#paint9_linear_1235_3581)"/>
<path d="M92.4035 77.8577C91.9833 77.6066 91.6554 77.2718 91.4095 76.8429C91.1635 76.4139 91.0508 75.9431 91.0508 75.4305C91.0508 74.9178 91.1738 74.4366 91.4095 74.0076C91.6554 73.5787 91.9833 73.2439 92.4035 73.0033C92.8237 72.7626 93.2848 72.6371 93.7972 72.6371C94.3096 72.6371 94.7605 72.7626 95.1807 73.0033C95.6008 73.2544 95.9288 73.5891 96.1747 74.0076C96.4207 74.4261 96.5334 74.8969 96.5334 75.42C96.5334 75.9431 96.4104 76.4035 96.1747 76.8324C95.9288 77.2614 95.6008 77.5962 95.1807 77.8473C94.7605 78.0984 94.2994 78.2239 93.7972 78.2239C93.2951 78.2239 92.8134 78.0984 92.4035 77.8473V77.8577ZM96.0415 95.6749H91.5324V80.0339H96.0415V95.6749Z" fill="url(#paint10_linear_1235_3581)"/>
<path d="M105.511 80.0448H108.801V83.9577H105.511V95.6859H101.002V83.9577H97.7227V80.0448H101.002V75.567H105.511V80.0448Z" fill="url(#paint11_linear_1235_3581)"/>
<path d="M135.528 95.6754H130.578L128.948 91.3859H120.781L119.151 95.6754H114.191L122.892 74.2488H126.827L135.528 95.6754ZM124.921 79.8356H124.808L121.97 87.4521H127.77L124.921 79.8356Z" fill="url(#paint12_linear_1235_3581)"/>
<path d="M146.767 73.2963H151.276V95.6854H146.982V93.8127H146.911C146.326 94.4823 145.65 94.9949 144.861 95.3715C144.082 95.7377 143.211 95.926 142.258 95.926C140.998 95.926 139.829 95.6017 138.753 94.9635C137.667 94.3253 136.796 93.3942 136.14 92.1806C135.484 90.9669 135.156 89.5336 135.156 87.8806C135.156 86.2276 135.494 84.7419 136.171 83.5283C136.847 82.3147 137.739 81.394 138.845 80.7558C139.952 80.1281 141.131 79.8142 142.402 79.8142C143.252 79.8142 144.041 79.9607 144.759 80.2536C145.476 80.5466 146.111 80.9755 146.665 81.53H146.767V73.3067V73.2963ZM145.117 91.4482C145.681 91.103 146.132 90.6112 146.47 89.9835C146.798 89.3558 146.972 88.6443 146.972 87.8492C146.972 87.0541 146.808 86.3636 146.49 85.7463C146.173 85.129 145.732 84.6373 145.168 84.2921C144.605 83.9468 143.959 83.7689 143.252 83.7689C142.545 83.7689 141.899 83.9363 141.336 84.2816C140.772 84.6268 140.321 85.1081 140.003 85.7254C139.676 86.3426 139.522 87.0436 139.522 87.8283C139.522 88.613 139.686 89.3244 140.003 89.9521C140.321 90.5798 140.762 91.0716 141.336 91.4377C141.91 91.7935 142.545 91.9713 143.242 91.9713C143.939 91.9713 144.564 91.7935 145.127 91.4482H145.117Z" fill="url(#paint13_linear_1235_3581)"/>
<path d="M156.843 95.4133C155.992 95.089 155.255 94.6286 154.609 94.0323C153.963 93.4464 153.482 92.7664 153.164 92.0131L156.782 90.4751C157.038 90.9669 157.417 91.3958 157.909 91.762C158.401 92.1282 158.954 92.306 159.549 92.306C159.897 92.306 160.204 92.2433 160.461 92.1282C160.717 92.0026 160.911 91.8457 161.034 91.6574C161.168 91.4586 161.229 91.2598 161.229 91.061C161.229 90.6216 160.952 90.2764 160.399 90.0148C159.846 89.7533 159.118 89.5126 158.237 89.2929C158.022 89.2301 157.888 89.1883 157.837 89.1778C156.587 88.8221 155.583 88.2572 154.824 87.5039C154.076 86.7401 153.697 85.7671 153.697 84.5849C153.697 83.6642 153.933 82.8377 154.414 82.1158C154.886 81.3939 155.542 80.829 156.372 80.421C157.202 80.0234 158.134 79.8141 159.169 79.8141C160.061 79.8141 160.901 79.9606 161.69 80.264C162.469 80.5674 163.156 80.9755 163.719 81.4986C164.293 82.0217 164.703 82.6076 164.959 83.2458L161.506 84.7314C161.311 84.4071 161.034 84.1037 160.676 83.8107C160.317 83.5178 159.866 83.3713 159.333 83.3713C158.882 83.3713 158.513 83.4864 158.216 83.727C157.919 83.9676 157.765 84.2606 157.765 84.6058C157.765 84.9302 157.899 85.2022 158.175 85.4219C158.452 85.6416 158.79 85.8299 159.19 85.9764C159.6 86.1229 160.153 86.2903 160.87 86.489C161.547 86.6774 162.182 86.9075 162.777 87.19C163.381 87.4725 163.935 87.9224 164.457 88.5606C164.98 89.1883 165.236 90.0043 165.236 90.9983C165.236 91.9922 164.98 92.8082 164.457 93.5615C163.935 94.3148 163.238 94.9007 162.356 95.3087C161.475 95.7272 160.512 95.9364 159.467 95.9364C158.544 95.9364 157.663 95.769 156.812 95.4447L156.843 95.4133Z" fill="url(#paint14_linear_1235_3581)"/>
<defs>
<linearGradient id="paint0_linear_1235_3581" x1="93.5638" y1="15.7654" x2="93.5638" y2="57.2585" gradientUnits="userSpaceOnUse">
<stop stop-color="#130839"/>
<stop offset="0.360577" stop-color="#282251"/>
<stop offset="0.764423" stop-color="#793971"/>
<stop offset="1" stop-color="#CC7897"/>
</linearGradient>
<linearGradient id="paint1_linear_1235_3581" x1="99.8359" y1="36.093" x2="99.8359" y2="41.3555" gradientUnits="userSpaceOnUse">
<stop stop-color="#130839"/>
<stop offset="0.360577" stop-color="#282251"/>
<stop offset="0.764423" stop-color="#793971"/>
<stop offset="1" stop-color="#CC7897"/>
</linearGradient>
<linearGradient id="paint2_linear_1235_3581" x1="87.3117" y1="36.093" x2="87.3117" y2="41.3555" gradientUnits="userSpaceOnUse">
<stop stop-color="#130839"/>
<stop offset="0.360577" stop-color="#282251"/>
<stop offset="0.764423" stop-color="#793971"/>
<stop offset="1" stop-color="#CC7897"/>
</linearGradient>
<linearGradient id="paint3_linear_1235_3581" x1="93.5748" y1="42.7053" x2="93.5748" y2="46.8588" gradientUnits="userSpaceOnUse">
<stop stop-color="#130839"/>
<stop offset="0.360577" stop-color="#282251"/>
<stop offset="0.764423" stop-color="#793971"/>
<stop offset="1" stop-color="#CC7897"/>
</linearGradient>
<linearGradient id="paint4_linear_1235_3581" x1="87.2101" y1="38.7819" x2="87.2101" y2="40.8534" gradientUnits="userSpaceOnUse">
<stop stop-color="#130839"/>
<stop offset="0.360577" stop-color="#282251"/>
<stop offset="0.764423" stop-color="#793971"/>
<stop offset="1" stop-color="#CC7897"/>
</linearGradient>
<linearGradient id="paint5_linear_1235_3581" x1="99.9366" y1="38.7819" x2="99.9366" y2="40.8534" gradientUnits="userSpaceOnUse">
<stop stop-color="#130839"/>
<stop offset="0.360577" stop-color="#282251"/>
<stop offset="0.764423" stop-color="#793971"/>
<stop offset="1" stop-color="#CC7897"/>
</linearGradient>
<linearGradient id="paint6_linear_1235_3581" x1="30.112" y1="74.2593" x2="30.112" y2="95.6964" gradientUnits="userSpaceOnUse">
<stop stop-color="#130839"/>
<stop offset="0.360577" stop-color="#282251"/>
<stop offset="0.764423" stop-color="#793971"/>
<stop offset="1" stop-color="#CC7897"/>
</linearGradient>
<linearGradient id="paint7_linear_1235_3581" x1="45.5904" y1="79.8246" x2="45.5904" y2="95.9155" gradientUnits="userSpaceOnUse">
<stop stop-color="#130839"/>
<stop offset="0.360577" stop-color="#282251"/>
<stop offset="0.764423" stop-color="#793971"/>
<stop offset="1" stop-color="#CC7897"/>
</linearGradient>
<linearGradient id="paint8_linear_1235_3581" x1="62.6068" y1="73.2963" x2="62.6068" y2="95.926" gradientUnits="userSpaceOnUse">
<stop stop-color="#130839"/>
<stop offset="0.360577" stop-color="#282251"/>
<stop offset="0.764423" stop-color="#793971"/>
<stop offset="1" stop-color="#CC7897"/>
</linearGradient>
<linearGradient id="paint9_linear_1235_3581" x1="80.5522" y1="73.2963" x2="80.5522" y2="95.926" gradientUnits="userSpaceOnUse">
<stop stop-color="#130839"/>
<stop offset="0.360577" stop-color="#282251"/>
<stop offset="0.764423" stop-color="#793971"/>
<stop offset="1" stop-color="#CC7897"/>
</linearGradient>
<linearGradient id="paint10_linear_1235_3581" x1="93.7921" y1="72.6371" x2="93.7921" y2="95.6749" gradientUnits="userSpaceOnUse">
<stop stop-color="#130839"/>
<stop offset="0.360577" stop-color="#282251"/>
<stop offset="0.764423" stop-color="#793971"/>
<stop offset="1" stop-color="#CC7897"/>
</linearGradient>
<linearGradient id="paint11_linear_1235_3581" x1="103.262" y1="75.567" x2="103.262" y2="95.6859" gradientUnits="userSpaceOnUse">
<stop stop-color="#130839"/>
<stop offset="0.360577" stop-color="#282251"/>
<stop offset="0.764423" stop-color="#793971"/>
<stop offset="1" stop-color="#CC7897"/>
</linearGradient>
<linearGradient id="paint12_linear_1235_3581" x1="124.859" y1="74.2488" x2="124.859" y2="95.6754" gradientUnits="userSpaceOnUse">
<stop stop-color="#130839"/>
<stop offset="0.360577" stop-color="#282251"/>
<stop offset="0.764423" stop-color="#793971"/>
<stop offset="1" stop-color="#CC7897"/>
</linearGradient>
<linearGradient id="paint13_linear_1235_3581" x1="143.216" y1="73.2963" x2="143.216" y2="95.926" gradientUnits="userSpaceOnUse">
<stop stop-color="#130839"/>
<stop offset="0.360577" stop-color="#282251"/>
<stop offset="0.764423" stop-color="#793971"/>
<stop offset="1" stop-color="#CC7897"/>
</linearGradient>
<linearGradient id="paint14_linear_1235_3581" x1="159.2" y1="79.8141" x2="159.2" y2="95.9364" gradientUnits="userSpaceOnUse">
<stop stop-color="#130839"/>
<stop offset="0.360577" stop-color="#282251"/>
<stop offset="0.764423" stop-color="#793971"/>
<stop offset="1" stop-color="#CC7897"/>
</linearGradient>
</defs>
</svg>
