<svg width="163" height="201" viewBox="0 0 163 201" fill="none" xmlns="http://www.w3.org/2000/svg">
<g filter="url(#filter0_f_1276_3568)">
<path d="M87.7188 142.125C75.6166 160.935 67.3357 170.896 62.8762 172.008C60.5788 172.582 59.0424 171.314 58.267 168.206C57.4915 165.098 57.5783 160.267 58.5272 153.714C59.4762 147.161 60.6106 141.352 61.9304 136.285L63.9608 128.889C69.7469 108.353 74.2974 93.5087 77.6123 84.3559C79.0667 80.4043 81.2641 76.8415 84.2045 73.6676C87.2463 70.3248 90.3213 68.2657 93.4294 67.4902C94.5105 67.2205 95.1691 67.5586 95.4051 68.5045C95.5736 69.1802 95.421 70.582 94.947 72.71C94.0671 76.0876 91.8507 84.1769 88.2977 96.9779C84.7447 109.779 82.6466 117.48 82.0036 120.08C78.8905 131.193 77.7386 138.37 78.5477 141.614C78.8512 142.83 79.4083 143.337 80.2191 143.135C81.5705 142.797 85.052 138.34 90.6636 129.763C94.9233 122.671 100.384 112.624 107.044 99.6216C107.349 99.1151 107.636 98.8281 107.906 98.7606C108.176 98.6932 108.379 98.9298 108.514 99.4703C109.155 102.038 108.765 104.791 107.345 107.729C100.109 121.305 93.5672 132.77 87.7188 142.125ZM94.6008 54.9245C91.2224 55.7674 89.0274 54.1618 88.016 50.1077C87.0719 46.3239 87.5468 42.186 89.4406 37.6942C91.3008 33.0672 93.92 30.3322 97.2984 29.4893C101.353 28.4779 103.953 30.2695 105.099 34.8641C106.043 38.6479 105.416 42.7519 103.218 47.1761C100.987 51.4651 98.1144 54.0479 94.6008 54.9245Z" fill="white"/>
</g>
<g filter="url(#filter1_f_1276_3568)">
<path d="M87.7188 142.125C75.6166 160.935 67.3357 170.896 62.8762 172.008C60.5788 172.582 59.0424 171.314 58.267 168.206C57.4915 165.098 57.5783 160.267 58.5272 153.714C59.4762 147.161 60.6106 141.352 61.9304 136.285L63.9608 128.889C69.7469 108.353 74.2974 93.5087 77.6123 84.3559C79.0667 80.4043 81.2641 76.8415 84.2045 73.6676C87.2463 70.3248 90.3213 68.2657 93.4294 67.4902C94.5105 67.2205 95.1691 67.5586 95.4051 68.5045C95.5736 69.1802 95.421 70.582 94.947 72.71C94.0671 76.0876 91.8507 84.1769 88.2977 96.9779C84.7447 109.779 82.6466 117.48 82.0036 120.08C78.8905 131.193 77.7386 138.37 78.5477 141.614C78.8512 142.83 79.4083 143.337 80.2191 143.135C81.5705 142.797 85.052 138.34 90.6636 129.763C94.9233 122.671 100.384 112.624 107.044 99.6216C107.349 99.1151 107.636 98.8281 107.906 98.7606C108.176 98.6932 108.379 98.9298 108.514 99.4703C109.155 102.038 108.765 104.791 107.345 107.729C100.109 121.305 93.5672 132.77 87.7188 142.125ZM94.6008 54.9245C91.2224 55.7674 89.0274 54.1618 88.016 50.1077C87.0719 46.3239 87.5468 42.186 89.4406 37.6942C91.3008 33.0672 93.92 30.3322 97.2984 29.4893C101.353 28.4779 103.953 30.2695 105.099 34.8641C106.043 38.6479 105.416 42.7519 103.218 47.1761C100.987 51.4651 98.1144 54.0479 94.6008 54.9245Z" fill="#FF00FE"/>
</g>
<g filter="url(#filter2_f_1276_3568)">
<path d="M87.7188 142.125C75.6166 160.935 67.3357 170.896 62.8762 172.008C60.5788 172.582 59.0424 171.314 58.267 168.206C57.4915 165.098 57.5783 160.267 58.5272 153.714C59.4762 147.161 60.6106 141.352 61.9304 136.285L63.9608 128.889C69.7469 108.353 74.2974 93.5087 77.6123 84.3559C79.0667 80.4043 81.2641 76.8415 84.2045 73.6676C87.2463 70.3248 90.3213 68.2657 93.4294 67.4902C94.5105 67.2205 95.1691 67.5586 95.4051 68.5045C95.5736 69.1802 95.421 70.582 94.947 72.71C94.0671 76.0876 91.8507 84.1769 88.2977 96.9779C84.7447 109.779 82.6466 117.48 82.0036 120.08C78.8905 131.193 77.7386 138.37 78.5477 141.614C78.8512 142.83 79.4083 143.337 80.2191 143.135C81.5705 142.797 85.052 138.34 90.6636 129.763C94.9233 122.671 100.384 112.624 107.044 99.6216C107.349 99.1151 107.636 98.8281 107.906 98.7606C108.176 98.6932 108.379 98.9298 108.514 99.4703C109.155 102.038 108.765 104.791 107.345 107.729C100.109 121.305 93.5672 132.77 87.7188 142.125ZM94.6008 54.9245C91.2224 55.7674 89.0274 54.1618 88.016 50.1077C87.0719 46.3239 87.5468 42.186 89.4406 37.6942C91.3008 33.0672 93.92 30.3322 97.2984 29.4893C101.353 28.4779 103.953 30.2695 105.099 34.8641C106.043 38.6479 105.416 42.7519 103.218 47.1761C100.987 51.4651 98.1144 54.0479 94.6008 54.9245Z" fill="white"/>
</g>
<g filter="url(#filter3_f_1276_3568)">
<path d="M87.7188 142.125C75.6166 160.935 67.3357 170.896 62.8762 172.008C60.5788 172.582 59.0424 171.314 58.267 168.206C57.4915 165.098 57.5783 160.267 58.5272 153.714C59.4762 147.161 60.6106 141.352 61.9304 136.285L63.9608 128.889C69.7469 108.353 74.2974 93.5087 77.6123 84.3559C79.0667 80.4043 81.2641 76.8415 84.2045 73.6676C87.2463 70.3248 90.3213 68.2657 93.4294 67.4902C94.5105 67.2205 95.1691 67.5586 95.4051 68.5045C95.5736 69.1802 95.421 70.582 94.947 72.71C94.0671 76.0876 91.8507 84.1769 88.2977 96.9779C84.7447 109.779 82.6466 117.48 82.0036 120.08C78.8905 131.193 77.7386 138.37 78.5477 141.614C78.8512 142.83 79.4083 143.337 80.2191 143.135C81.5705 142.797 85.052 138.34 90.6636 129.763C94.9233 122.671 100.384 112.624 107.044 99.6216C107.349 99.1151 107.636 98.8281 107.906 98.7606C108.176 98.6932 108.379 98.9298 108.514 99.4703C109.155 102.038 108.765 104.791 107.345 107.729C100.109 121.305 93.5672 132.77 87.7188 142.125ZM94.6008 54.9245C91.2224 55.7674 89.0274 54.1618 88.016 50.1077C87.0719 46.3239 87.5468 42.186 89.4406 37.6942C91.3008 33.0672 93.92 30.3322 97.2984 29.4893C101.353 28.4779 103.953 30.2695 105.099 34.8641C106.043 38.6479 105.416 42.7519 103.218 47.1761C100.987 51.4651 98.1144 54.0479 94.6008 54.9245Z" fill="#F700FF"/>
</g>
<g filter="url(#filter4_f_1276_3568)">
<path d="M87.7188 142.125C75.6166 160.935 67.3357 170.896 62.8762 172.008C60.5788 172.582 59.0424 171.314 58.267 168.206C57.4915 165.098 57.5783 160.267 58.5272 153.714C59.4762 147.161 60.6106 141.352 61.9304 136.285L63.9608 128.889C69.7469 108.353 74.2974 93.5087 77.6123 84.3559C79.0667 80.4043 81.2641 76.8415 84.2045 73.6676C87.2463 70.3248 90.3213 68.2657 93.4294 67.4902C94.5105 67.2205 95.1691 67.5586 95.4051 68.5045C95.5736 69.1802 95.421 70.582 94.947 72.71C94.0671 76.0876 91.8507 84.1769 88.2977 96.9779C84.7447 109.779 82.6466 117.48 82.0036 120.08C78.8905 131.193 77.7386 138.37 78.5477 141.614C78.8512 142.83 79.4083 143.337 80.2191 143.135C81.5705 142.797 85.052 138.34 90.6636 129.763C94.9233 122.671 100.384 112.624 107.044 99.6216C107.349 99.1151 107.636 98.8281 107.906 98.7606C108.176 98.6932 108.379 98.9298 108.514 99.4703C109.155 102.038 108.765 104.791 107.345 107.729C100.109 121.305 93.5672 132.77 87.7188 142.125ZM94.6008 54.9245C91.2224 55.7674 89.0274 54.1618 88.016 50.1077C87.0719 46.3239 87.5468 42.186 89.4406 37.6942C91.3008 33.0672 93.92 30.3322 97.2984 29.4893C101.353 28.4779 103.953 30.2695 105.099 34.8641C106.043 38.6479 105.416 42.7519 103.218 47.1761C100.987 51.4651 98.1144 54.0479 94.6008 54.9245Z" fill="white"/>
</g>
<defs>
<filter id="filter0_f_1276_3568" x="0.000486374" y="-1.90735e-06" width="162.808" height="200.84" filterUnits="userSpaceOnUse" color-interpolation-filters="sRGB">
<feFlood flood-opacity="0" result="BackgroundImageFix"/>
<feBlend mode="normal" in="SourceGraphic" in2="BackgroundImageFix" result="shape"/>
<feGaussianBlur stdDeviation="13.9861" result="effect1_foregroundBlur_1276_3568"/>
</filter>
<filter id="filter1_f_1276_3568" x="1.8477" y="1.84722" width="159.113" height="197.146" filterUnits="userSpaceOnUse" color-interpolation-filters="sRGB">
<feFlood flood-opacity="0" result="BackgroundImageFix"/>
<feBlend mode="normal" in="SourceGraphic" in2="BackgroundImageFix" result="shape"/>
<feGaussianBlur stdDeviation="13.0625" result="effect1_foregroundBlur_1276_3568"/>
</filter>
<filter id="filter2_f_1276_3568" x="20.7817" y="20.7812" width="121.245" height="159.278" filterUnits="userSpaceOnUse" color-interpolation-filters="sRGB">
<feFlood flood-opacity="0" result="BackgroundImageFix"/>
<feBlend mode="normal" in="SourceGraphic" in2="BackgroundImageFix" result="shape"/>
<feGaussianBlur stdDeviation="3.59548" result="effect1_foregroundBlur_1276_3568"/>
</filter>
<filter id="filter3_f_1276_3568" x="22.8928" y="22.8923" width="117.023" height="155.056" filterUnits="userSpaceOnUse" color-interpolation-filters="sRGB">
<feFlood flood-opacity="0" result="BackgroundImageFix"/>
<feBlend mode="normal" in="SourceGraphic" in2="BackgroundImageFix" result="shape"/>
<feGaussianBlur stdDeviation="2.53993" result="effect1_foregroundBlur_1276_3568"/>
</filter>
<filter id="filter4_f_1276_3568" x="27.115" y="27.1145" width="108.579" height="146.611" filterUnits="userSpaceOnUse" color-interpolation-filters="sRGB">
<feFlood flood-opacity="0" result="BackgroundImageFix"/>
<feBlend mode="normal" in="SourceGraphic" in2="BackgroundImageFix" result="shape"/>
<feGaussianBlur stdDeviation="0.428819" result="effect1_foregroundBlur_1276_3568"/>
</filter>
</defs>
</svg>
