<svg width="362" height="81" viewBox="0 0 362 81" fill="none" xmlns="http://www.w3.org/2000/svg">
<g clip-path="url(#clip0_1175_3666)">
<mask id="mask0_1175_3666" style="mask-type:luminance" maskUnits="userSpaceOnUse" x="0" y="0" width="361" height="79">
<path d="M361 0.998047H0V78.998H361V0.998047Z" fill="white"/>
</mask>
<g mask="url(#mask0_1175_3666)">
<path d="M25.25 43.6252C25.25 41.4022 27.0263 39.6082 29.2038 39.6082C31.3813 39.6082 33.1385 41.4217 33.1385 43.6252C33.1385 45.8287 31.3622 47.6422 29.2038 47.6422C27.0454 47.6422 25.25 45.8482 25.25 43.6252ZM47.2347 54.2332C44.5415 56.9827 39.3844 57.1777 37.8754 57.1777C36.3665 57.1777 31.1903 56.9632 28.5162 54.2332C28.1151 53.8237 28.1151 53.1607 28.5162 52.7512C28.9173 52.3417 29.5667 52.3417 29.9678 52.7512C31.6678 54.4867 35.2969 55.0912 37.8945 55.0912C40.4922 55.0912 44.1213 54.4867 45.8213 52.7512C46.2224 52.3417 46.8718 52.3417 47.2729 52.7512C47.674 53.1607 47.674 53.8237 47.2729 54.2332H47.2347ZM46.5471 47.6422C44.3696 47.6422 42.5933 45.8482 42.5933 43.6252C42.5933 41.4022 44.3696 39.6082 46.5471 39.6082C48.7245 39.6082 50.5009 41.4217 50.5009 43.6252C50.5009 45.8287 48.7245 47.6422 46.5471 47.6422Z" fill="white"/>
<path d="M123.944 61.6626H114.107L106.372 47.8176C105.627 47.8566 105.054 47.8761 104.672 47.8761H101.425V61.6626H92.7148V21.7461H106.849C109.447 21.7461 111.777 22.2336 113.84 23.1891C115.903 24.1641 117.507 25.5681 118.672 27.4011C119.838 29.2341 120.43 31.4376 120.43 33.9921C120.43 36.3516 119.914 38.5161 118.883 40.4856C117.851 42.4551 116.361 44.0541 114.432 45.3021L123.944 61.7016V61.6626ZM101.444 40.6416H105.837C107.021 40.6416 108.072 40.4076 109.008 39.9591C109.924 39.5106 110.65 38.8671 111.166 38.0286C111.682 37.1901 111.93 36.2346 111.93 35.1231C111.93 34.0116 111.663 33.0561 111.147 32.2176C110.631 31.3791 109.886 30.7551 108.912 30.2871C107.938 29.8386 106.811 29.6046 105.531 29.6046H101.463V40.6026L101.444 40.6416Z" fill="url(#paint0_linear_1175_3666)"/>
<path d="M150.417 49.8651H131.164C131.68 51.5616 132.578 52.8876 133.895 53.8626C135.194 54.8376 136.761 55.3056 138.556 55.3056C139.817 55.3056 141.096 55.0911 142.414 54.6816C143.732 54.2721 144.745 53.7846 145.451 53.2191L148.049 59.6151C146.941 60.3756 145.585 60.9801 143.923 61.4286C142.281 61.8771 140.523 62.1111 138.69 62.1111C135.634 62.1111 132.979 61.4871 130.687 60.2196C128.394 58.9521 126.637 57.1971 125.396 54.9351C124.154 52.6731 123.543 50.0991 123.543 47.1936C123.543 44.2881 124.173 41.5776 125.453 39.2961C126.733 37.0146 128.452 35.2401 130.591 33.9921C132.749 32.7441 135.099 32.1201 137.639 32.1201C140.18 32.1201 142.319 32.6856 144.324 33.8361C146.33 34.9866 147.915 36.6051 149.08 38.6721C150.246 40.7586 150.819 43.1181 150.819 45.7701C150.819 47.1351 150.685 48.5001 150.398 49.8651H150.417ZM143.121 44.5026C143.121 42.7671 142.605 41.4021 141.593 40.3881C140.581 39.3741 139.224 38.8671 137.563 38.8671C135.901 38.8671 134.468 39.3741 133.322 40.3881C132.176 41.4021 131.431 42.7671 131.049 44.4831H143.121V44.5026Z" fill="url(#paint1_linear_1175_3666)"/>
<path d="M175.516 19.9521H183.92V61.6821H175.917V58.1916H175.783C174.695 59.4396 173.434 60.3951 171.963 61.0971C170.492 61.7796 168.888 62.1306 167.112 62.1306C164.781 62.1306 162.585 61.5261 160.579 60.3366C158.555 59.1471 156.931 57.4116 155.709 55.1496C154.486 52.8876 153.875 50.2161 153.875 47.1351C153.875 44.0541 154.505 41.2851 155.785 39.0231C157.046 36.7611 158.707 35.0451 160.77 33.8556C162.833 32.6856 165.03 32.1006 167.398 32.1006C168.984 32.1006 170.454 32.3736 171.791 32.9196C173.128 33.4656 174.313 34.2651 175.344 35.2986H175.535V19.9716L175.516 19.9521ZM172.441 53.7846C173.491 53.1411 174.332 52.2246 174.962 51.0546C175.573 49.8846 175.898 48.5586 175.898 47.0766C175.898 45.5946 175.592 44.3076 175 43.1571C174.408 42.0066 173.587 41.0901 172.536 40.4466C171.486 39.8031 170.282 39.4716 168.964 39.4716C167.646 39.4716 166.443 39.7836 165.393 40.4271C164.342 41.0706 163.502 41.9676 162.91 43.1181C162.298 44.2686 162.012 45.5751 162.012 47.0376C162.012 48.5001 162.317 49.8261 162.91 50.9961C163.502 52.1661 164.323 53.0826 165.393 53.7651C166.462 54.4281 167.646 54.7596 168.945 54.7596C170.244 54.7596 171.409 54.4281 172.46 53.7846H172.441Z" fill="url(#paint2_linear_1175_3666)"/>
<path d="M208.961 19.9521H217.365V61.6821H209.362V58.1916H209.229C208.14 59.4396 206.879 60.3951 205.409 61.0971C203.957 61.7796 202.333 62.1306 200.557 62.1306C198.227 62.1306 196.03 61.5261 194.025 60.3366C192 59.1471 190.376 57.4116 189.154 55.1496C187.932 52.8876 187.32 50.2161 187.32 47.1351C187.32 44.0541 187.951 41.2851 189.23 39.0231C190.491 36.7611 192.153 35.0451 194.216 33.8556C196.278 32.6856 198.475 32.1006 200.824 32.1006C202.41 32.1006 203.88 32.3736 205.218 32.9196C206.555 33.4656 207.739 34.2651 208.77 35.2986H208.961V19.9716V19.9521ZM205.886 53.7846C206.937 53.1411 207.777 52.2246 208.407 51.0546C209.019 49.8846 209.343 48.5586 209.343 47.0766C209.343 45.5946 209.057 44.3076 208.445 43.1571C207.853 42.0066 207.032 41.0901 205.982 40.4466C204.931 39.8031 203.728 39.4716 202.41 39.4716C201.092 39.4716 199.888 39.7836 198.838 40.4271C197.787 41.0706 196.947 41.9676 196.355 43.1181C195.744 44.2686 195.457 45.5751 195.457 47.0376C195.457 48.5001 195.744 49.8261 196.355 50.9961C196.947 52.1661 197.787 53.0826 198.838 53.7651C199.908 54.4281 201.092 54.7596 202.391 54.7596C203.689 54.7596 204.855 54.4281 205.905 53.7846H205.886Z" fill="url(#paint3_linear_1175_3666)"/>
<path d="M224.431 28.4541C223.648 27.9861 223.037 27.3621 222.579 26.5626C222.12 25.7631 221.91 24.8856 221.91 23.9301C221.91 22.9746 222.139 22.0776 222.579 21.2781C223.037 20.4786 223.648 19.8546 224.431 19.4061C225.215 18.9576 226.074 18.7236 227.029 18.7236C227.984 18.7236 228.825 18.9576 229.608 19.4061C230.391 19.8741 231.002 20.4981 231.46 21.2781C231.919 22.0581 232.129 22.9356 232.129 23.9106C232.129 24.8856 231.9 25.7436 231.46 26.5431C231.002 27.3426 230.391 27.9666 229.608 28.4346C228.825 28.9026 227.965 29.1366 227.029 29.1366C226.093 29.1366 225.195 28.9026 224.431 28.4346V28.4541ZM231.212 61.6626H222.808V32.5101H231.212V61.6626Z" fill="url(#paint4_linear_1175_3666)"/>
<path d="M248.86 32.5296H254.991V39.8226H248.86V61.6821H240.456V39.8226H234.344V32.5296H240.456V24.1836H248.86V32.5296Z" fill="url(#paint5_linear_1175_3666)"/>
<path d="M304.806 61.6626H295.581L292.544 53.6676H277.321L274.284 61.6626H265.039L281.255 21.7266H288.59L304.806 61.6626ZM285.037 32.1396H284.827L279.536 46.3356H290.347L285.037 32.1396Z" fill="url(#paint6_linear_1175_3666)"/>
<path d="M325.762 19.9521H334.166V61.6821H326.163V58.1916H326.029C324.941 59.4396 323.68 60.3951 322.209 61.0971C320.758 61.7796 319.134 62.1306 317.358 62.1306C315.008 62.1306 312.831 61.5261 310.825 60.3366C308.801 59.1471 307.177 57.4116 305.955 55.1496C304.732 52.8876 304.121 50.2161 304.121 47.1351C304.121 44.0541 304.751 41.2851 306.012 39.0231C307.273 36.7611 308.934 35.0451 310.997 33.8556C313.06 32.6856 315.257 32.1006 317.625 32.1006C319.21 32.1006 320.681 32.3736 322.018 32.9196C323.355 33.4656 324.54 34.2651 325.571 35.2986H325.762V19.9716V19.9521ZM322.687 53.7846C323.737 53.1411 324.578 52.2246 325.208 51.0546C325.819 49.8846 326.144 48.5586 326.144 47.0766C326.144 45.5946 325.838 44.3076 325.246 43.1571C324.654 42.0066 323.833 41.0901 322.782 40.4466C321.732 39.8031 320.528 39.4716 319.21 39.4716C317.893 39.4716 316.689 39.7836 315.639 40.4271C314.588 41.0706 313.748 41.9676 313.156 43.1181C312.544 44.2686 312.258 45.5751 312.258 47.0376C312.258 48.5001 312.564 49.8261 313.156 50.9961C313.748 52.1661 314.569 53.0826 315.639 53.7651C316.708 54.4281 317.893 54.7596 319.191 54.7596C320.49 54.7596 321.655 54.4281 322.706 53.7846H322.687Z" fill="url(#paint7_linear_1175_3666)"/>
<path d="M344.537 61.1751C342.951 60.5706 341.576 59.7126 340.373 58.6011C339.17 57.5091 338.272 56.2416 337.68 54.8376L344.422 51.9711C344.9 52.8876 345.606 53.6871 346.523 54.3696C347.44 55.0521 348.472 55.3836 349.579 55.3836C350.229 55.3836 350.802 55.2666 351.279 55.0521C351.757 54.8181 352.12 54.5256 352.349 54.1746C352.597 53.8041 352.712 53.4336 352.712 53.0631C352.712 52.2441 352.196 51.6006 351.165 51.1131C350.133 50.6256 348.777 50.1771 347.134 49.7676C346.733 49.6506 346.485 49.5726 346.39 49.5531C344.059 48.8901 342.187 47.8371 340.774 46.4331C339.38 45.0096 338.673 43.1961 338.673 40.9926C338.673 39.2766 339.112 37.7361 340.01 36.3906C340.889 35.0451 342.111 33.9921 343.658 33.2316C345.205 32.4906 346.943 32.1006 348.873 32.1006C350.534 32.1006 352.101 32.3736 353.571 32.9391C355.023 33.5046 356.303 34.2651 357.353 35.2401C358.423 36.2151 359.187 37.3071 359.664 38.4966L353.228 41.2656C352.865 40.6611 352.349 40.0956 351.68 39.5496C351.012 39.0036 350.171 38.7306 349.178 38.7306C348.338 38.7306 347.65 38.9451 347.096 39.3936C346.542 39.8421 346.256 40.3881 346.256 41.0316C346.256 41.6361 346.504 42.1431 347.02 42.5526C347.536 42.9621 348.166 43.3131 348.911 43.5861C349.675 43.8591 350.706 44.1711 352.043 44.5416C353.304 44.8926 354.488 45.3216 355.596 45.8481C356.723 46.3746 357.754 47.2131 358.728 48.4026C359.703 49.5726 360.18 51.0936 360.18 52.9461C360.18 54.7986 359.703 56.3196 358.728 57.7236C357.754 59.1276 356.456 60.2196 354.813 60.9801C353.17 61.7601 351.375 62.1501 349.427 62.1501C347.707 62.1501 346.065 61.8381 344.48 61.2336L344.537 61.1751Z" fill="url(#paint8_linear_1175_3666)"/>
<path d="M37.8764 1.32959C16.9613 1.32959 0 18.6456 0 39.9981C0 50.6841 4.24032 60.3561 11.0974 67.3371L3.87741 74.7081C2.46397 76.1511 3.4572 78.6666 5.48185 78.6666H37.8764C58.7914 78.6666 75.7527 61.3506 75.7527 39.9981C75.7336 18.6456 58.7914 1.32959 37.8764 1.32959Z" fill="url(#paint9_linear_1175_3666)"/>
<path d="M59.3435 47.7201C64.2277 47.7201 68.1871 43.6779 68.1871 38.6916C68.1871 33.7053 64.2277 29.6631 59.3435 29.6631C54.4594 29.6631 50.5 33.7053 50.5 38.6916C50.5 43.6779 54.4594 47.7201 59.3435 47.7201Z" fill="white"/>
<path d="M16.3865 47.7201C21.2707 47.7201 25.2301 43.6779 25.2301 38.6916C25.2301 33.7053 21.2707 29.6631 16.3865 29.6631C11.5024 29.6631 7.54297 33.7053 7.54297 38.6916C7.54297 43.6779 11.5024 47.7201 16.3865 47.7201Z" fill="white"/>
<path d="M37.892 65.7576C51.8271 65.7576 63.1238 57.1058 63.1238 46.4331C63.1238 35.7605 51.8271 27.1086 37.892 27.1086C23.9568 27.1086 12.6602 35.7605 12.6602 46.4331C12.6602 57.1058 23.9568 65.7576 37.892 65.7576Z" fill="white"/>
<path d="M30.4054 44.5611C30.2526 47.8176 28.1324 49.0266 25.6493 49.0266C23.1663 49.0266 21.2753 47.3301 21.409 44.0736C21.5427 40.8171 23.682 38.6331 26.1651 38.6331C28.6481 38.6331 30.5391 41.2851 30.4054 44.5611Z" fill="#170049"/>
<path d="M54.3214 44.0736C54.4742 47.3301 52.5833 49.0266 50.0811 49.0266C47.5789 49.0266 45.4588 47.8566 45.3251 44.5611C45.1722 41.3046 47.0632 38.6331 49.5654 38.6331C52.0675 38.6331 54.1877 40.7781 54.3214 44.0736Z" fill="#170049"/>
<path d="M45.3624 44.8535C45.5152 47.8955 47.5017 49.0265 49.7937 49.0265C52.0858 49.0265 53.8812 47.369 53.7666 44.288C53.6138 41.246 51.6274 39.218 49.3353 39.218C47.0433 39.218 45.2287 41.792 45.3624 44.873V44.8535Z" fill="#522E62"/>
<path d="M30.4064 44.8535C30.2536 47.8955 28.2671 49.0265 25.975 49.0265C23.683 49.0265 21.8875 47.369 22.0403 44.288C22.1931 41.246 24.1796 39.218 26.4716 39.218C28.7637 39.218 30.5592 41.792 30.4064 44.873V44.8535Z" fill="#522E62"/>
<path d="M37.8948 51.2107C34.7623 51.2107 31.7635 51.3667 28.994 51.6397C28.5164 51.6982 28.2299 52.1857 28.4018 52.6147C29.949 56.3392 33.6163 58.9522 37.8948 58.9522C42.1733 58.9522 45.8215 56.3587 47.3878 52.6147C47.5597 52.1662 47.2732 51.6787 46.7956 51.6397C44.007 51.3667 41.0273 51.2107 37.8948 51.2107Z" fill="#170049"/>
<path d="M37.8952 51.9321C34.7627 51.9321 31.764 52.0881 29.0135 52.3806C28.536 52.4391 28.2495 52.9266 28.4214 53.3751C29.9685 57.1581 33.6358 59.8101 37.8952 59.8101C42.1546 59.8101 45.8219 57.1581 47.3691 53.3751C47.541 52.9266 47.2545 52.4391 46.777 52.3806C43.9883 52.0881 41.0086 51.9321 37.8952 51.9321Z" fill="white"/>
<path d="M37.8948 51.542C34.8196 51.542 31.8972 51.698 29.1658 51.971C28.6883 52.0295 28.4018 52.517 28.5737 52.946C30.1209 56.6705 33.6927 59.2835 37.8948 59.2835C42.0969 59.2835 45.6687 56.69 47.2158 52.946C47.3877 52.4975 47.1012 52.01 46.6237 51.971C43.8923 51.737 40.97 51.542 37.8948 51.542Z" fill="#522E62"/>
<path d="M51.722 24.4956C55.1821 24.4956 57.987 21.632 57.987 18.0996C57.987 14.5672 55.1821 11.7036 51.722 11.7036C48.262 11.7036 45.457 14.5672 45.457 18.0996C45.457 21.632 48.262 24.4956 51.722 24.4956Z" fill="white"/>
<path d="M37.8171 27.9081C37.0722 27.9081 36.4609 27.5766 36.4609 27.0891C36.4609 21.3561 41.026 16.6956 46.6415 16.6956C47.3864 16.6956 47.9977 17.3391 47.9977 18.0801C47.9977 18.8211 47.3673 19.4646 46.6415 19.4646C42.5349 19.4646 39.1923 22.8771 39.1923 27.0696C39.1923 27.5766 38.562 27.8886 37.8362 27.8886L37.8171 27.9081Z" fill="url(#paint10_radial_1175_3666)"/>
<path d="M28.7822 46.3745C28.7822 47.5445 27.5407 48.0905 26.0317 48.0905C24.5228 48.0905 23.2812 47.5445 23.2812 46.3745C23.2812 45.2045 24.5228 44.2295 26.0317 44.2295C27.5407 44.2295 28.7822 45.1655 28.7822 46.3745Z" fill="white"/>
<path d="M52.5049 46.3745C52.5049 47.5445 51.2633 48.0905 49.7544 48.0905C48.2454 48.0905 47.0039 47.5445 47.0039 46.3745C47.0039 45.2045 48.2454 44.2295 49.7544 44.2295C51.2633 44.2295 52.5049 45.1655 52.5049 46.3745Z" fill="white"/>
<path d="M27.9233 43.1376C28.4613 43.1376 28.8975 42.6487 28.8975 42.0456C28.8975 41.4425 28.4613 40.9536 27.9233 40.9536C27.3854 40.9536 26.9492 41.4425 26.9492 42.0456C26.9492 42.6487 27.3854 43.1376 27.9233 43.1376Z" fill="white"/>
<path d="M51.2632 43.1376C51.8012 43.1376 52.2373 42.6487 52.2373 42.0456C52.2373 41.4425 51.8012 40.9536 51.2632 40.9536C50.7252 40.9536 50.2891 41.4425 50.2891 42.0456C50.2891 42.6487 50.7252 43.1376 51.2632 43.1376Z" fill="white"/>
</g>
</g>
<defs>
<linearGradient id="paint0_linear_1175_3666" x1="108.33" y1="21.7461" x2="108.33" y2="61.7016" gradientUnits="userSpaceOnUse">
<stop stop-color="#130839"/>
<stop offset="0.360577" stop-color="#282251"/>
<stop offset="0.764423" stop-color="#793971"/>
<stop offset="1" stop-color="#CC7897"/>
</linearGradient>
<linearGradient id="paint1_linear_1175_3666" x1="137.181" y1="32.1201" x2="137.181" y2="62.1111" gradientUnits="userSpaceOnUse">
<stop stop-color="#130839"/>
<stop offset="0.360577" stop-color="#282251"/>
<stop offset="0.764423" stop-color="#793971"/>
<stop offset="1" stop-color="#CC7897"/>
</linearGradient>
<linearGradient id="paint2_linear_1175_3666" x1="168.898" y1="19.9521" x2="168.898" y2="62.1306" gradientUnits="userSpaceOnUse">
<stop stop-color="#130839"/>
<stop offset="0.360577" stop-color="#282251"/>
<stop offset="0.764423" stop-color="#793971"/>
<stop offset="1" stop-color="#CC7897"/>
</linearGradient>
<linearGradient id="paint3_linear_1175_3666" x1="202.343" y1="19.9521" x2="202.343" y2="62.1306" gradientUnits="userSpaceOnUse">
<stop stop-color="#130839"/>
<stop offset="0.360577" stop-color="#282251"/>
<stop offset="0.764423" stop-color="#793971"/>
<stop offset="1" stop-color="#CC7897"/>
</linearGradient>
<linearGradient id="paint4_linear_1175_3666" x1="227.02" y1="18.7236" x2="227.02" y2="61.6626" gradientUnits="userSpaceOnUse">
<stop stop-color="#130839"/>
<stop offset="0.360577" stop-color="#282251"/>
<stop offset="0.764423" stop-color="#793971"/>
<stop offset="1" stop-color="#CC7897"/>
</linearGradient>
<linearGradient id="paint5_linear_1175_3666" x1="244.668" y1="24.1836" x2="244.668" y2="61.6821" gradientUnits="userSpaceOnUse">
<stop stop-color="#130839"/>
<stop offset="0.360577" stop-color="#282251"/>
<stop offset="0.764423" stop-color="#793971"/>
<stop offset="1" stop-color="#CC7897"/>
</linearGradient>
<linearGradient id="paint6_linear_1175_3666" x1="284.923" y1="21.7266" x2="284.923" y2="61.6626" gradientUnits="userSpaceOnUse">
<stop stop-color="#130839"/>
<stop offset="0.360577" stop-color="#282251"/>
<stop offset="0.764423" stop-color="#793971"/>
<stop offset="1" stop-color="#CC7897"/>
</linearGradient>
<linearGradient id="paint7_linear_1175_3666" x1="319.144" y1="19.9521" x2="319.144" y2="62.1306" gradientUnits="userSpaceOnUse">
<stop stop-color="#130839"/>
<stop offset="0.360577" stop-color="#282251"/>
<stop offset="0.764423" stop-color="#793971"/>
<stop offset="1" stop-color="#CC7897"/>
</linearGradient>
<linearGradient id="paint8_linear_1175_3666" x1="348.93" y1="32.1006" x2="348.93" y2="62.1501" gradientUnits="userSpaceOnUse">
<stop stop-color="#130839"/>
<stop offset="0.360577" stop-color="#282251"/>
<stop offset="0.764423" stop-color="#793971"/>
<stop offset="1" stop-color="#CC7897"/>
</linearGradient>
<linearGradient id="paint9_linear_1175_3666" x1="37.8764" y1="1.32959" x2="37.8764" y2="78.6666" gradientUnits="userSpaceOnUse">
<stop stop-color="#130839"/>
<stop offset="0.360577" stop-color="#282251"/>
<stop offset="0.764423" stop-color="#793971"/>
<stop offset="1" stop-color="#CC7897"/>
</linearGradient>
<radialGradient id="paint10_radial_1175_3666" cx="0" cy="0" r="1" gradientUnits="userSpaceOnUse" gradientTransform="translate(46.1061 27.0224) scale(11.3293 11.5662)">
<stop offset="0.48" stop-color="#7A9299"/>
<stop offset="0.67" stop-color="#172E35"/>
<stop offset="0.75"/>
<stop offset="0.82" stop-color="#172E35"/>
</radialGradient>
<clipPath id="clip0_1175_3666">
<rect width="361" height="78" fill="white" transform="translate(0 0.998047)"/>
</clipPath>
</defs>
</svg>
