<svg width="362" height="81" viewBox="0 0 362 81" fill="none" xmlns="http://www.w3.org/2000/svg">
<g clip-path="url(#clip0_1175_3624)">
<path d="M243.25 10.4317C243.25 7.6562 245.559 5.40356 248.405 5.40356H307.845C310.692 5.40356 313 7.6562 313 10.4317V70.568C313 73.3444 310.692 75.5952 307.845 75.5952H248.405C245.559 75.5952 243.25 73.3444 243.25 70.5689V10.4317Z" fill="white"/>
<path d="M48 64.1995H77.1084V54.6422H58.5359V18.183H48V64.1995ZM91.8458 64.1995V32.5043H81.3108V64.1995H91.8458ZM86.5793 28.1776C90.2523 28.1776 92.539 25.7436 92.539 22.7002C92.4709 19.5905 90.2523 17.2256 86.6492 17.2256C83.0452 17.2256 80.6885 19.5915 80.6885 22.7002C80.6885 25.7436 82.9752 28.1776 86.5102 28.1776H86.5793ZM96.7368 64.1995H107.272V46.4988C107.272 45.5515 107.34 44.6043 107.619 43.9295C108.379 42.0368 110.113 40.076 113.024 40.076C116.837 40.076 118.362 42.9831 118.362 47.2417V64.1986H128.895V46.0256C128.895 36.2897 123.698 31.7596 116.766 31.7596C111.083 31.7596 108.587 34.9364 107.201 37.1007H107.272V32.5043H96.7368C96.8758 35.4787 96.7368 64.1995 96.7368 64.1995ZM143.758 18.183H133.223V64.1995H143.758V53.9232L146.391 50.6082L154.639 64.1995H167.599L153.739 44.5242L165.866 31.1391H153.184C153.184 31.1391 144.521 43.1139 143.758 44.5352V18.183Z" fill="white"/>
<path d="M195.773 50.9784C195.912 50.1646 196.12 48.6033 196.12 46.8376C196.12 38.6446 191.961 30.3263 181.01 30.3263C169.297 30.3263 163.891 39.59 163.891 47.992C163.891 58.3834 170.475 64.8725 181.98 64.8725C186.555 64.8725 190.781 64.1987 194.248 62.7782L192.862 55.8206C190.019 56.7632 187.108 57.2355 183.505 57.2355C178.585 57.2355 174.288 55.2148 173.941 50.9102L195.773 50.9765V50.9784ZM173.872 43.8513C174.149 41.1467 175.953 37.156 180.457 37.156C185.239 37.156 186.349 41.4164 186.349 43.8513H173.872ZM222.123 18.183V34.1126H221.984C220.459 31.883 217.271 30.3953 213.045 30.3953C204.935 30.3953 197.797 36.8854 197.865 47.9727C197.865 58.25 204.312 64.9434 212.35 64.9434C216.718 64.9434 220.875 63.0489 222.955 59.3979H223.162L223.579 64.1996H232.935C232.797 61.9681 232.657 58.1146 232.657 54.3283V18.1821H222.122L222.123 18.183ZM222.123 49.5285C222.123 50.3386 222.054 51.1514 221.914 51.8253C221.293 54.7343 218.797 56.7605 215.747 56.7605C211.382 56.7605 208.539 53.2457 208.539 47.7021C208.539 42.4972 210.967 38.3049 215.817 38.3049C219.074 38.3049 221.361 40.5354 221.985 43.3063C222.123 43.9167 222.123 44.5933 222.123 45.2009V49.5285Z" fill="white"/>
<path d="M264.395 64.161V32.4657H253.86V64.161H264.395ZM259.129 28.139C262.802 28.139 265.089 25.705 265.089 22.6635C265.02 19.5529 262.802 17.187 259.199 17.187C255.593 17.187 253.238 19.5529 253.238 22.6635C253.238 25.705 255.524 28.139 259.06 28.139H259.128H259.129ZM270.226 64.161H280.76V46.463C280.76 45.5166 280.829 44.5685 281.107 43.8928C281.868 41.9991 283.601 40.0393 286.512 40.0393C290.323 40.0393 291.849 42.9455 291.849 47.2068V64.161H302.383V45.988C302.383 36.2529 297.186 31.7228 290.255 31.7228C284.573 31.7228 282.077 34.8988 280.691 37.0621H280.761V32.4666H270.226C270.364 35.4401 270.226 64.161 270.226 64.161Z" fill="url(#paint0_linear_1175_3624)"/>
</g>
<defs>
<linearGradient id="paint0_linear_1175_3624" x1="277.811" y1="17.187" x2="277.811" y2="64.1619" gradientUnits="userSpaceOnUse">
<stop stop-color="#130839"/>
<stop offset="0.360577" stop-color="#282251"/>
<stop offset="0.764423" stop-color="#793971"/>
<stop offset="1" stop-color="#CC7897"/>
</linearGradient>
<clipPath id="clip0_1175_3624">
<rect width="265.001" height="71" fill="white" transform="translate(48 4.99805)"/>
</clipPath>
</defs>
</svg>
