<svg width="362" height="87" viewBox="0 0 362 87" fill="none" xmlns="http://www.w3.org/2000/svg">
<path d="M198.904 36.8408C201.928 33.1457 206.408 31.1305 211.112 31.3545C216.04 31.3545 219.736 33.3699 222.088 37.2891H222.2V32.25H228.024L227.912 65.9561C227.912 79.3932 221.528 86.1122 208.648 86.1123C204.504 86.2243 200.472 85.3278 196.776 83.5361L198.344 78.3857C201.48 80.1774 204.952 81.0729 208.536 80.9609C217.608 80.9609 222.088 76.1459 222.088 66.6279V62.708H221.977C219.513 67.2992 214.584 69.9867 209.432 69.7627C203.72 69.8745 198.456 66.5157 196.216 61.2529C194.872 58.2295 194.2 54.9818 194.312 51.7344C194.313 45.4635 195.88 40.5361 198.904 36.8408ZM32.248 6.04688V66.5156L56.4404 52.5186L44.5684 47.0312L37.0645 28.3311L75.2559 41.7686V61.2529L32.248 86L15 76.3701V0L32.248 6.04688ZM319.864 68.8662H316.392V62.2598H316.28C315.048 64.6112 313.144 66.5147 310.904 67.8584C308.552 69.2021 305.752 69.986 302.952 69.874C298.584 69.986 294.552 68.1943 291.752 64.835C288.952 61.4756 287.496 56.8847 287.496 51.1738C287.384 47.5906 288.168 44.1194 289.624 40.8721C290.856 37.9606 292.984 35.4967 295.672 33.7051C298.248 32.0255 301.384 31.13 304.52 31.1299C310.007 31.1299 314.04 33.3691 316.392 37.96H316.504V14.2207H319.864V68.8662ZM267.112 31.2422C270.92 31.2422 273.832 32.3623 275.96 34.7139C278.088 37.0654 279.096 40.5365 279.096 45.0156V68.9795H275.736V61.5889H275.624C274.504 64.0523 272.712 66.1801 270.472 67.6357C268.232 69.0913 265.656 69.875 263.08 69.875C260.056 69.987 257.032 68.9794 254.792 66.9639C252.664 65.0602 251.544 62.2604 251.656 59.4609C251.656 52.9662 255.912 49.0472 264.424 47.8154L275.736 46.1357C275.736 38.1853 272.712 34.2657 266.776 34.2656C262.744 34.2656 258.712 35.9451 254.904 39.1924V35.1611C256.584 33.9295 258.488 33.0341 260.504 32.3623C262.632 31.6904 264.872 31.2422 267.112 31.2422ZM341.816 31.0176C344.616 30.9057 347.416 31.5782 349.88 32.9219V36.7285C347.416 35.049 344.392 34.153 341.368 34.041C339.24 33.929 337.112 34.6016 335.544 35.9453C334.088 37.1771 333.304 38.9685 333.304 40.8721C333.192 41.9918 333.416 43.2237 333.976 44.2314C334.536 45.1272 335.32 45.9108 336.216 46.4707C337.672 47.4785 339.352 48.2627 340.92 48.9346C344.84 50.7262 347.528 52.2943 348.984 53.75C350.44 55.3176 351.112 57.4449 351 59.5723C351.112 62.3717 349.88 65.1712 347.64 66.9629C345.064 68.9784 341.816 69.8746 338.568 69.7627C335.432 69.9867 332.296 69.0905 329.72 67.2988V63.2676C331.064 64.3874 332.52 65.1716 334.088 65.7314C335.656 66.4033 337.224 66.7393 338.904 66.7393C344.728 66.7392 347.64 64.3876 347.64 59.6846C347.64 58.1169 346.968 56.6611 345.848 55.6533C343.944 54.0857 341.816 52.8538 339.464 51.958C336.776 50.9502 334.312 49.3828 332.184 47.3672C330.616 45.6875 329.832 43.4473 329.944 41.0957C329.832 38.2964 331.064 35.609 333.304 33.8174C335.768 31.9137 338.792 30.9056 341.816 31.0176ZM115.688 17.2451C120.168 17.2452 123.752 18.3646 126.328 20.4922C128.904 22.6198 130.36 25.7555 130.248 29.0029C130.36 31.6903 129.464 34.3777 127.896 36.6172C126.217 38.8567 123.976 40.4241 121.4 41.208V41.4326C124.536 41.6566 127.561 43.1121 129.688 45.3516C131.816 47.703 132.936 50.8384 132.824 53.9736C132.936 58.1169 131.256 62.0368 128.12 64.6123C124.76 67.4117 120.504 68.8669 116.136 68.7549H101.017V17.2451H115.688ZM146.376 68.7549H140.552V32.25H146.376V68.7549ZM174.152 31.3545C178.184 31.3545 181.208 32.586 183.336 35.2734C185.464 37.9609 186.472 41.6566 186.472 46.4717V68.7549H180.648V47.9268C180.648 40.2004 177.848 36.2812 172.136 36.2812C169.336 36.1694 166.648 37.401 164.856 39.5283C162.841 41.8798 161.832 44.9034 161.944 47.9268V68.7549H156.12V32.1377H162.056V38.2969H162.168C164.52 33.9297 169.112 31.2425 174.152 31.3545ZM304.296 34.1533C300.6 34.0413 297.016 35.7208 294.664 38.7441C292.2 41.7676 290.855 45.7992 290.855 50.9502C290.856 55.877 291.976 59.6843 294.104 62.5957C296.231 65.3951 299.592 67.0747 303.063 66.9629C306.647 67.0749 310.12 65.7311 312.696 63.2676C315.16 60.6921 316.504 57.1086 316.28 53.5254L316.392 46.4707C316.504 43.2233 315.272 39.9756 313.032 37.624C310.792 35.2725 307.656 34.0413 304.296 34.1533ZM265.432 50.3906C261.288 51.0625 258.489 51.9587 257.145 53.1904C255.801 54.6461 255.016 56.6613 255.016 59.3486C254.904 61.4762 255.688 63.3802 257.256 64.8359C258.936 66.2916 261.064 66.9634 263.304 66.8516C266.664 66.9635 270.024 65.5078 272.152 62.8203C274.504 60.0208 275.848 56.3251 275.624 52.6299V48.9346L265.432 50.3906ZM211.784 36.2812C208.424 36.1693 205.288 37.6251 203.272 40.3125C201.256 43 200.248 46.5833 200.248 51.3984C200.136 54.8697 201.144 58.2289 203.16 61.0283C205.064 63.4918 207.976 64.8356 211 64.7236C214.024 64.8356 216.936 63.4924 218.952 61.2529C221.192 58.7894 222.2 55.5413 222.088 52.2939V46.8076C222.2 44.0082 221.08 41.3203 219.064 39.3047C217.16 37.2891 214.584 36.1693 211.784 36.2812ZM107.064 63.3799H115.24C118.824 63.3799 121.512 62.4847 123.528 60.917C125.544 59.2373 126.552 56.6611 126.44 53.9736C126.44 47.927 122.296 44.792 114.008 44.792H107.064V63.3799ZM107.064 39.417H113.224C116.024 39.529 118.824 38.7451 121.064 37.0654C122.968 35.3858 124.088 32.9221 123.864 30.3467C123.864 25.3076 120.616 22.8438 114.008 22.8438L107.064 22.7314V39.417ZM143.464 16.125C144.584 16.125 145.592 16.4613 146.264 17.2451C146.936 17.917 147.384 18.9248 147.384 19.9326C147.384 20.9402 146.936 21.9477 146.152 22.7314C144.696 24.1872 142.344 24.1872 140.776 22.7314C139.992 21.9477 139.656 20.9403 139.656 19.9326C139.656 18.9248 140.104 17.917 140.776 17.2451C141.448 16.4613 142.456 16.1251 143.464 16.125Z" fill="url(#paint0_linear_1175_3604)"/>
<defs>
<linearGradient id="paint0_linear_1175_3604" x1="183.006" y1="0" x2="183.006" y2="86.1217" gradientUnits="userSpaceOnUse">
<stop stop-color="#130839"/>
<stop offset="0.360577" stop-color="#282251"/>
<stop offset="0.764423" stop-color="#793971"/>
<stop offset="1" stop-color="#CC7897"/>
</linearGradient>
</defs>
</svg>
