<svg width="362" height="81" viewBox="0 0 362 81" fill="none" xmlns="http://www.w3.org/2000/svg">
<path d="M34.3838 4.20117C41.4704 -2.61797 53.1853 -0.904425 57.9941 7.66406C61.6098 14.162 65.4419 20.5178 69.166 26.9443C75.3849 37.6194 81.6767 48.2941 87.8232 59.0049C92.9935 67.9662 87.3893 79.2839 77.1211 80.8193C70.8299 81.7476 64.9357 78.8918 61.6816 73.3223C56.2221 63.9325 50.7262 54.5426 45.2666 45.1885C45.1686 44.9949 45.0406 44.8306 44.9102 44.6689C42.751 48.3642 40.5926 52.0251 38.3975 55.7207C35.3648 60.89 32.3313 66.0943 29.2627 71.2637C29.2714 71.2722 29.2795 71.2805 29.2861 71.2871L28.9971 71.7471C28.9967 71.7482 28.9975 71.7498 28.9971 71.751L28.5225 72.626C28.3644 72.9204 28.2012 73.2145 28.0205 73.5C24.8026 78.7483 20.0655 81.3546 13.8467 80.9619C6.72412 80.4619 1.1198 75.1782 0.143555 68.1807C-0.32645 64.7889 0.361172 61.6112 2.13281 58.6836C2.49432 58.0411 2.92756 57.4696 3.3252 56.8271C3.33846 56.8167 3.3476 56.8029 3.3584 56.791C3.34049 56.5631 3.47678 56.4255 3.61426 56.2559L3.62695 56.2686C5.35789 53.3127 7.05404 50.3572 8.78516 47.4014C15.9441 35.1197 23.1028 22.8378 30.2979 10.5918C30.3701 10.4491 30.4785 10.3419 30.5508 10.1992C31.4185 7.94994 32.6121 5.8792 34.3838 4.20117ZM24.7959 64.4092C23.5523 57.3654 14.7886 53.9235 8.89648 58.5205C8.34768 58.9563 8.06759 59.255 7.22363 60.0068C7.08505 60.2167 6.96009 60.4034 6.86914 60.5391C6.67602 60.8272 6.56942 60.995 6.49023 61.1357L6.45117 61.2051L6.41016 61.2725C5.21503 63.2474 4.78887 65.2726 5.09668 67.4941C5.74922 72.1572 9.43835 75.6375 14.1914 75.9736C18.4664 76.2354 21.4705 74.6173 23.7578 70.8867L23.7764 70.8564L23.7959 70.8262C24.0272 70.4607 24.054 70.3735 24.2676 69.9717L24.2695 69.9639L24.377 69.6279C24.9624 67.7884 25.1039 66.1184 24.7988 64.4268L24.7979 64.418L24.7959 64.4092ZM220.847 33.418C223.969 33.418 226.387 34.8221 227.696 36.4268H227.897V34.3203H233.338V57.79C233.338 67.4181 227.696 71.4297 220.947 71.4297C214.601 71.4297 210.774 67.2173 209.363 63.707L214.399 61.6006C215.306 63.7068 217.422 66.2148 220.947 66.2148C225.279 66.2148 227.897 63.5066 227.897 58.4922V56.5859H227.696C226.387 58.1906 223.969 59.5947 220.847 59.5947C214.299 59.5947 208.355 53.8782 208.355 46.5566C208.355 39.1348 214.299 33.418 220.847 33.418ZM164.134 33.418C171.286 33.418 177.229 39.0348 177.229 46.6572C177.229 54.2795 171.386 59.8955 164.134 59.8955C156.881 59.8955 151.038 54.2795 151.038 46.6572C151.038 38.9345 156.982 33.418 164.134 33.418ZM192.54 33.418C199.793 33.418 205.636 39.0348 205.636 46.6572C205.636 54.2795 199.692 59.8955 192.54 59.8955C185.288 59.8953 179.445 54.2793 179.445 46.6572C179.445 38.9347 185.287 33.4182 192.54 33.418ZM258.722 33.418C265.571 33.418 268.996 38.9342 270.104 41.8428L270.709 43.3477L252.88 50.6689C254.189 53.3766 256.304 54.6806 259.326 54.6807C262.247 54.6807 264.363 53.2766 265.874 51.0703L270.407 54.0791C268.997 56.1853 265.471 59.8955 259.326 59.8955C251.771 59.8953 246.131 54.0788 246.131 46.6572C246.131 38.7341 251.872 33.4182 258.722 33.418ZM129.985 18.875C136.231 18.875 140.663 21.3824 143.987 24.5918L140.059 28.5039C137.742 26.1971 134.418 24.4922 129.985 24.4922C121.725 24.4922 115.278 31.1115 115.278 39.2354C115.278 47.3591 121.725 53.9785 129.985 53.9785C135.324 53.9785 138.446 51.7718 140.36 49.8662C141.972 48.2615 142.98 45.9548 143.383 42.8457H129.985V37.3291H148.822C149.024 38.3321 149.125 39.536 149.125 40.8398C149.125 44.9519 148.016 50.0674 144.289 53.7783C140.663 57.489 136.13 59.4951 129.985 59.4951C118.603 59.4951 109.134 50.4683 109.134 39.2354C109.134 28.0023 118.603 18.875 129.985 18.875ZM243.31 59.1934H237.568V20.4795H243.31V59.1934ZM338.308 58.3086H333.895V54.9873H333.689C332.869 56.195 331.739 57.2017 330.2 58.0068C328.661 58.8119 327.019 59.1133 325.274 59.1133C321.991 59.1132 319.22 57.9056 316.963 55.3896C314.705 52.8736 313.576 49.8545 313.576 46.2314C313.576 42.7089 314.705 39.689 316.963 37.0723C319.323 34.5565 321.991 33.3487 325.274 33.3486C327.121 33.3486 328.764 33.7516 330.2 34.4561C331.739 35.2612 332.869 36.1672 333.689 37.4756H333.895L333.689 34.1543V22.9824H338.308V58.3086ZM351.742 33.6543C353.829 33.6543 355.718 34.1512 357.507 35.1455C359.196 36.1399 360.389 37.5322 361.085 39.2227L357.109 40.9131C356.612 39.9187 355.917 39.123 354.923 38.5264C353.929 37.9298 352.736 37.6319 351.444 37.6318C350.252 37.6318 349.258 37.9298 348.264 38.5264C347.369 39.123 346.872 39.8199 346.872 40.7148C346.872 42.1066 348.165 43.1005 350.748 43.5977L354.326 44.4932C359.097 45.6864 361.383 48.0727 361.383 51.6523C361.482 53.7405 360.488 55.5307 358.699 56.9229C356.91 58.3149 354.625 59.1103 351.842 59.1104C349.457 59.1104 347.369 58.5134 345.48 57.2207C343.692 55.9281 342.4 54.337 341.604 52.249L345.58 50.5586C346.176 51.9506 346.972 53.1439 348.164 53.9395C349.257 54.735 350.55 55.1328 351.842 55.1328C353.233 55.1328 354.426 54.8349 355.42 54.2383C356.414 53.6418 356.811 52.8461 356.812 52.0508C356.812 50.5592 355.618 49.365 353.332 48.6689L349.258 47.6748C344.587 46.4815 342.301 44.294 342.301 40.9131C342.301 38.7255 343.195 37.0347 344.984 35.6426C346.773 34.3501 349.059 33.6543 351.742 33.6543ZM312.752 58.293H307.648L304.179 48.7354H289.175L285.705 58.293H280.602L294.074 22.9824H299.279L312.752 58.293ZM325.993 37.5762C323.736 37.5762 321.889 38.3811 320.452 39.9912C318.913 41.6015 318.194 43.7153 318.194 46.2314C318.194 48.7475 318.913 50.8614 320.452 52.4717C321.991 54.0817 323.838 54.8867 325.993 54.8867C328.251 54.9874 330.098 54.1823 331.534 52.5723C333.073 50.962 333.792 48.8481 333.792 46.2314C333.792 43.7153 333.073 41.6015 331.534 39.9912C330.098 38.3811 328.251 37.5762 325.993 37.5762ZM164.134 38.6338C160.205 38.6338 156.78 41.9434 156.78 46.6572C156.78 51.3709 160.205 54.6807 164.134 54.6807C168.062 54.6807 171.487 51.3709 171.487 46.6572C171.487 41.8431 168.062 38.6338 164.134 38.6338ZM192.54 38.6338C188.612 38.6341 185.187 41.9436 185.187 46.6572C185.187 51.3707 188.612 54.6804 192.54 54.6807C196.569 54.6807 199.893 51.3709 199.894 46.6572C199.894 41.8431 196.469 38.6338 192.54 38.6338ZM221.351 38.5332C217.422 38.5332 214.098 41.9431 214.098 46.5566C214.098 51.1702 217.422 54.4795 221.351 54.4795C225.279 54.4793 228.301 51.17 228.301 46.5566C228.301 41.9432 225.279 38.5334 221.351 38.5332ZM258.823 38.5332C255.902 38.5332 251.671 41.1408 251.872 46.2559L263.759 41.3408C263.154 39.6361 261.14 38.5333 258.823 38.5332ZM290.706 44.5107H302.647L296.83 28.6162H296.626L290.706 44.5107Z" fill="url(#paint0_linear_1169_670)"/>
<defs>
<linearGradient id="paint0_linear_1169_670" x1="180.695" y1="0" x2="180.695" y2="81.0007" gradientUnits="userSpaceOnUse">
<stop stop-color="#130839"/>
<stop offset="0.360577" stop-color="#282251"/>
<stop offset="0.764423" stop-color="#793971"/>
<stop offset="1" stop-color="#CC7897"/>
</linearGradient>
</defs>
</svg>
